<svg xmlns="http://www.w3.org/2000/svg" viewBox="0 10.91 318.12 40.12" data-asc="1.0087890625"><g fill="#000000"><g fill="#000000" transform="translate(0, 0)"><path d="M20.09 10.91L25.98 50.44L15.45 50.44L14.94 43.33L11.25 43.33L10.64 50.44L0 50.44L5.22 10.91L20.09 10.91M14.65 36.33Q13.87 29.61 13.09 19.75Q11.52 31.08 11.13 36.33L14.65 36.33ZM37.48 18.04L37.30 21.02Q38.38 19.24 39.93 18.35Q41.48 17.46 43.51 17.46Q46.04 17.46 47.66 18.65Q49.27 19.85 49.73 21.67Q50.20 23.49 50.20 27.73L50.20 50.44L40.33 50.44L40.33 28.00Q40.33 24.66 40.11 23.93Q39.89 23.19 38.89 23.19Q37.84 23.19 37.57 24.04Q37.30 24.88 37.30 28.54L37.30 50.44L27.44 50.44L27.44 18.04L37.48 18.04ZM76.03 10.91L76.03 50.44L66.16 50.44L66.16 48.10Q64.75 49.56 63.18 50.29Q61.62 51.03 59.91 51.03Q57.62 51.03 55.93 49.82Q54.25 48.61 53.77 47.02Q53.30 45.43 53.30 41.85L53.30 26.68Q53.30 22.95 53.77 21.39Q54.25 19.82 55.96 18.64Q57.67 17.46 60.03 17.46Q61.87 17.46 63.39 18.12Q64.92 18.77 66.16 20.09L66.16 10.91L76.03 10.91M66.16 26.20Q66.16 24.41 65.86 23.80Q65.55 23.19 64.65 23.19Q63.77 23.19 63.46 23.74Q63.16 24.29 63.16 26.20L63.16 42.07Q63.16 44.04 63.45 44.67Q63.75 45.29 64.58 45.29Q65.53 45.29 65.84 44.59Q66.16 43.90 66.16 41.19L66.16 26.20ZM89.43 18.04L89.04 22.29Q91.19 17.72 95.26 17.46L95.26 28.86Q92.55 28.86 91.28 29.59Q90.01 30.32 89.72 31.63Q89.43 32.93 89.43 37.65L89.43 50.44L79.57 50.44L79.57 18.04L89.43 18.04ZM119.78 29.42L119.78 37.35Q119.78 41.72 119.34 43.76Q118.90 45.80 117.46 47.57Q116.02 49.34 113.76 50.18Q111.50 51.03 108.57 51.03Q105.30 51.03 103.03 50.31Q100.76 49.58 99.50 48.13Q98.24 46.68 97.71 44.62Q97.17 42.55 97.17 38.43L97.17 30.13Q97.17 25.61 98.14 23.07Q99.12 20.53 101.66 18.99Q104.20 17.46 108.15 17.46Q111.47 17.46 113.85 18.44Q116.24 19.43 117.53 21.02Q118.82 22.61 119.30 24.29Q119.78 25.98 119.78 29.42M109.91 26.98Q109.91 24.49 109.64 23.84Q109.38 23.19 108.50 23.19Q107.62 23.19 107.32 23.84Q107.03 24.49 107.03 26.98L107.03 41.60Q107.03 43.90 107.32 44.59Q107.62 45.29 108.47 45.29Q109.35 45.29 109.63 44.65Q109.91 44.02 109.91 41.92L109.91 26.98ZM133.18 10.91L133.18 16.06L123.02 16.06L123.02 10.91L133.18 10.91M133.18 18.04L133.18 50.44L123.02 50.44L123.02 18.04L133.18 18.04ZM159.16 10.91L159.16 50.44L149.29 50.44L149.29 48.10Q147.88 49.56 146.31 50.29Q144.75 51.03 143.04 51.03Q140.75 51.03 139.06 49.82Q137.38 48.61 136.90 47.02Q136.43 45.43 136.43 41.85L136.43 26.68Q136.43 22.95 136.90 21.39Q137.38 19.82 139.09 18.64Q140.80 17.46 143.16 17.46Q145.00 17.46 146.52 18.12Q148.05 18.77 149.29 20.09L149.29 10.91L159.16 10.91M149.29 26.20Q149.29 24.41 148.99 23.80Q148.68 23.19 147.78 23.19Q146.90 23.19 146.59 23.74Q146.29 24.29 146.29 26.20L146.29 42.07Q146.29 44.04 146.58 44.67Q146.88 45.29 147.71 45.29Q148.66 45.29 148.97 44.59Q149.29 43.90 149.29 41.19L149.29 26.20ZM171.80 10.91L179.08 10.91Q186.35 10.91 188.93 11.47Q191.50 12.04 193.13 14.34Q194.75 16.65 194.75 21.70Q194.75 26.32 193.60 27.91Q192.46 29.49 189.09 29.81Q192.14 30.57 193.19 31.84Q194.24 33.11 194.49 34.17Q194.75 35.23 194.75 40.01L194.75 50.44L185.21 50.44L185.21 37.30Q185.21 34.13 184.70 33.37Q184.20 32.62 182.08 32.62L182.08 50.44L171.80 50.44L171.80 10.91M182.08 17.68L182.08 26.46Q183.81 26.46 184.51 25.99Q185.21 25.51 185.21 22.90L185.21 20.73Q185.21 18.85 184.53 18.26Q183.86 17.68 182.08 17.68ZM221.02 18.04L221.02 50.44L210.99 50.44L211.16 47.75Q210.13 49.39 208.63 50.21Q207.13 51.03 205.18 51.03Q202.95 51.03 201.49 50.24Q200.02 49.46 199.33 48.17Q198.63 46.88 198.46 45.47Q198.29 44.07 198.29 39.89L198.29 18.04L208.15 18.04L208.15 40.09Q208.15 43.87 208.39 44.58Q208.62 45.29 209.64 45.29Q210.74 45.29 210.95 44.56Q211.16 43.82 211.16 39.84L211.16 18.04L221.02 18.04ZM234.59 18.04L234.42 21.02Q235.50 19.24 237.05 18.35Q238.60 17.46 240.63 17.46Q243.16 17.46 244.78 18.65Q246.39 19.85 246.85 21.67Q247.31 23.49 247.31 27.73L247.31 50.44L237.45 50.44L237.45 28.00Q237.45 24.66 237.23 23.93Q237.01 23.19 236.01 23.19Q234.96 23.19 234.69 24.04Q234.42 24.88 234.42 28.54L234.42 50.44L224.56 50.44L224.56 18.04L234.59 18.04ZM260.74 18.04L260.57 21.02Q261.65 19.24 263.20 18.35Q264.75 17.46 266.77 17.46Q269.31 17.46 270.92 18.65Q272.53 19.85 273.00 21.67Q273.46 23.49 273.46 27.73L273.46 50.44L263.60 50.44L263.60 28.00Q263.60 24.66 263.38 23.93Q263.16 23.19 262.16 23.19Q261.11 23.19 260.84 24.04Q260.57 24.88 260.57 28.54L260.57 50.44L250.71 50.44L250.71 18.04L260.74 18.04ZM299.19 34.81L286.43 34.81L286.43 41.82Q286.43 44.02 286.74 44.65Q287.06 45.29 287.96 45.29Q289.09 45.29 289.47 44.45Q289.84 43.60 289.84 41.19L289.84 36.91L299.19 36.91L299.19 39.31Q299.19 42.31 298.82 43.92Q298.44 45.53 297.05 47.36Q295.65 49.19 293.52 50.11Q291.38 51.03 288.16 51.03Q285.03 51.03 282.64 50.12Q280.25 49.22 278.92 47.64Q277.59 46.07 277.08 44.18Q276.56 42.29 276.56 38.67L276.56 29.22Q276.56 24.98 277.71 22.52Q278.86 20.07 281.47 18.76Q284.08 17.46 287.48 17.46Q291.63 17.46 294.32 19.03Q297.02 20.61 298.11 23.21Q299.19 25.81 299.19 30.52L299.19 34.81M289.31 29.54L289.31 27.17Q289.31 24.66 289.04 23.93Q288.77 23.19 287.94 23.19Q286.91 23.19 286.67 23.82Q286.43 24.44 286.43 27.17L286.43 29.54L289.31 29.54ZM312.28 18.04L311.89 22.29Q314.04 17.72 318.12 17.46L318.12 28.86Q315.41 28.86 314.14 29.59Q312.87 30.32 312.57 31.63Q312.28 32.93 312.28 37.65L312.28 50.44L302.42 50.44L302.42 18.04L312.28 18.04Z"/></g></g></svg>