<svg xmlns="http://www.w3.org/2000/svg" viewBox="0 10.91 160.06 40.12" data-asc="1.0087890625"><g fill="#000000"><g fill="#000000" transform="translate(0, 0)"><path d="M9.25 30.59L0 30.59L0 28.42Q0 24.66 0.87 22.62Q1.73 20.58 4.35 19.02Q6.96 17.46 11.13 17.46Q16.14 17.46 18.68 19.23Q21.22 21.00 21.73 23.57Q22.24 26.15 22.24 34.18L22.24 50.44L12.65 50.44L12.65 47.56Q11.74 49.29 10.31 50.16Q8.89 51.03 6.91 51.03Q4.32 51.03 2.16 49.57Q0 48.12 0 43.21L0 40.55Q0 36.91 1.15 35.60Q2.29 34.28 6.84 32.52Q11.69 30.62 12.04 29.96Q12.38 29.30 12.38 27.27Q12.38 24.73 12.00 23.96Q11.62 23.19 10.74 23.19Q9.74 23.19 9.50 23.84Q9.25 24.49 9.25 27.20L9.25 30.59M12.38 35.03Q10.01 36.77 9.63 37.94Q9.25 39.11 9.25 41.31Q9.25 43.82 9.58 44.56Q9.91 45.29 10.89 45.29Q11.82 45.29 12.10 44.71Q12.38 44.14 12.38 41.70L12.38 35.03ZM25.93 10.91L33.62 10.91Q41.06 10.91 43.69 11.60Q46.31 12.28 47.68 13.84Q49.05 15.41 49.39 17.32Q49.73 19.24 49.73 24.85L49.73 38.70Q49.73 44.02 49.23 45.81Q48.73 47.61 47.49 48.62Q46.24 49.63 44.41 50.04Q42.58 50.44 38.89 50.44L25.93 50.44L25.93 10.91M36.21 17.68L36.21 43.68Q38.43 43.68 38.94 42.79Q39.45 41.89 39.45 37.94L39.45 22.58Q39.45 19.90 39.28 19.14Q39.11 18.38 38.50 18.03Q37.89 17.68 36.21 17.68ZM75.59 29.42L75.59 37.35Q75.59 41.72 75.15 43.76Q74.71 45.80 73.27 47.57Q71.83 49.34 69.57 50.18Q67.31 51.03 64.38 51.03Q61.11 51.03 58.84 50.31Q56.57 49.58 55.31 48.13Q54.05 46.68 53.52 44.62Q52.98 42.55 52.98 38.43L52.98 30.13Q52.98 25.61 53.96 23.07Q54.93 20.53 57.47 18.99Q60.01 17.46 63.96 17.46Q67.29 17.46 69.67 18.44Q72.05 19.43 73.34 21.02Q74.63 22.61 75.11 24.29Q75.59 25.98 75.59 29.42M65.72 26.98Q65.72 24.49 65.45 23.84Q65.19 23.19 64.31 23.19Q63.43 23.19 63.13 23.84Q62.84 24.49 62.84 26.98L62.84 41.60Q62.84 43.90 63.13 44.59Q63.43 45.29 64.28 45.29Q65.16 45.29 65.44 44.65Q65.72 44.02 65.72 41.92L65.72 26.98ZM100.63 30.27L91.33 30.27L91.33 26.54Q91.33 24.58 91.02 23.89Q90.70 23.19 89.84 23.19Q88.99 23.19 88.70 23.80Q88.40 24.41 88.40 26.54L88.40 41.82Q88.40 43.55 88.84 44.42Q89.28 45.29 90.14 45.29Q91.14 45.29 91.49 44.38Q91.85 43.48 91.85 40.97L91.85 37.11L100.63 37.11Q100.61 40.99 100.35 42.93Q100.10 44.87 98.72 46.91Q97.34 48.95 95.12 49.99Q92.90 51.03 89.62 51.03Q85.45 51.03 83.01 49.60Q80.57 48.17 79.55 45.59Q78.54 43.02 78.54 38.28L78.54 29.08Q78.54 24.95 79.37 22.85Q80.20 20.75 82.91 19.10Q85.62 17.46 89.50 17.46Q93.36 17.46 96.09 19.09Q98.83 20.73 99.73 23.22Q100.63 25.71 100.63 30.27ZM113.96 13.72L113.96 18.82L116.63 18.82L116.63 23.95L113.96 23.95L113.96 41.28Q113.96 44.48 114.29 44.85Q114.62 45.21 117.04 45.21L117.04 50.44L113.06 50.44Q109.69 50.44 108.25 50.16Q106.81 49.88 105.71 48.86Q104.61 47.85 104.35 46.55Q104.08 45.24 104.08 40.41L104.08 23.95L101.95 23.95L101.95 18.82L104.08 18.82L104.08 13.72L113.96 13.72ZM141.11 29.42L141.11 37.35Q141.11 41.72 140.67 43.76Q140.23 45.80 138.79 47.57Q137.35 49.34 135.10 50.18Q132.84 51.03 129.91 51.03Q126.64 51.03 124.37 50.31Q122.09 49.58 120.84 48.13Q119.58 46.68 119.04 44.62Q118.51 42.55 118.51 38.43L118.51 30.13Q118.51 25.61 119.48 23.07Q120.46 20.53 123.00 18.99Q125.54 17.46 129.49 17.46Q132.81 17.46 135.19 18.44Q137.57 19.43 138.87 21.02Q140.16 22.61 140.64 24.29Q141.11 25.98 141.11 29.42M131.25 26.98Q131.25 24.49 130.98 23.84Q130.71 23.19 129.83 23.19Q128.96 23.19 128.66 23.84Q128.37 24.49 128.37 26.98L128.37 41.60Q128.37 43.90 128.66 44.59Q128.96 45.29 129.81 45.29Q130.69 45.29 130.97 44.65Q131.25 44.02 131.25 41.92L131.25 26.98ZM154.22 18.04L153.83 22.29Q155.98 17.72 160.06 17.46L160.06 28.86Q157.35 28.86 156.08 29.59Q154.81 30.32 154.52 31.63Q154.22 32.93 154.22 37.65L154.22 50.44L144.36 50.44L144.36 18.04L154.22 18.04Z"/></g></g></svg>