<svg xmlns="http://www.w3.org/2000/svg" viewBox="0 10.08 217.24 44.9" data-asc="1.0087890625"><g fill="#000000"><g fill="#000000" transform="translate(0, 0)"><path d="M0 10.91L7.69 10.91Q15.14 10.91 17.76 11.60Q20.39 12.28 21.75 13.84Q23.12 15.41 23.46 17.32Q23.80 19.24 23.80 24.85L23.80 38.70Q23.80 44.02 23.30 45.81Q22.80 47.61 21.56 48.62Q20.31 49.63 18.48 50.04Q16.65 50.44 12.96 50.44L0 50.44L0 10.91M10.28 17.68L10.28 43.68Q12.50 43.68 13.01 42.79Q13.53 41.89 13.53 37.94L13.53 22.58Q13.53 19.90 13.35 19.14Q13.18 18.38 12.57 18.03Q11.96 17.68 10.28 17.68ZM36.16 30.59L26.90 30.59L26.90 28.42Q26.90 24.66 27.77 22.62Q28.64 20.58 31.25 19.02Q33.86 17.46 38.04 17.46Q43.04 17.46 45.58 19.23Q48.12 21.00 48.63 23.57Q49.15 26.15 49.15 34.18L49.15 50.44L39.55 50.44L39.55 47.56Q38.65 49.29 37.22 50.16Q35.79 51.03 33.81 51.03Q31.23 51.03 29.06 49.57Q26.90 48.12 26.90 43.21L26.90 40.55Q26.90 36.91 28.05 35.60Q29.20 34.28 33.74 32.52Q38.60 30.62 38.94 29.96Q39.28 29.30 39.28 27.27Q39.28 24.73 38.90 23.96Q38.53 23.19 37.65 23.19Q36.65 23.19 36.40 23.84Q36.16 24.49 36.16 27.20L36.16 30.59M39.28 35.03Q36.91 36.77 36.54 37.94Q36.16 39.11 36.16 41.31Q36.16 43.82 36.49 44.56Q36.82 45.29 37.79 45.29Q38.72 45.29 39.00 44.71Q39.28 44.14 39.28 41.70L39.28 35.03ZM62.70 10.91L62.70 16.06L52.54 16.06L52.54 10.91L62.70 10.91M62.70 18.04L62.70 50.44L52.54 50.44L52.54 18.04L62.70 18.04ZM76.39 10.91L76.39 50.44L66.24 50.44L66.24 10.91L76.39 10.91ZM100.59 18.04L97.75 41.48Q97.09 47.05 96.64 49.07Q96.19 51.10 95.14 52.42Q94.09 53.74 92.22 54.36Q90.36 54.98 86.25 54.98L80.27 54.98L80.27 49.80Q82.57 49.80 83.23 49.57Q83.89 49.34 83.89 48.54Q83.89 48.14 83.28 45.14L77.88 18.04L86.84 18.04L90.06 39.89L91.63 18.04L100.59 18.04ZM126.64 28.15L116.36 28.15L116.36 21.26Q116.36 18.26 116.03 17.52Q115.70 16.77 114.58 16.77Q113.31 16.77 112.96 17.68Q112.62 18.58 112.62 21.58L112.62 39.94Q112.62 42.82 112.96 43.70Q113.31 44.58 114.50 44.58Q115.65 44.58 116.00 43.70Q116.36 42.82 116.36 39.58L116.36 34.62L126.64 34.62L126.64 36.16Q126.64 42.29 125.77 44.85Q124.90 47.41 121.94 49.34Q118.97 51.27 114.62 51.27Q110.11 51.27 107.18 49.63Q104.25 48.00 103.30 45.10Q102.34 42.21 102.34 36.40L102.34 24.85Q102.34 20.58 102.64 18.44Q102.93 16.31 104.38 14.33Q105.83 12.35 108.41 11.22Q110.99 10.08 114.33 10.08Q118.87 10.08 121.83 11.84Q124.78 13.60 125.71 16.22Q126.64 18.85 126.64 24.39L126.64 28.15ZM140.19 10.91L140.19 50.44L130.03 50.44L130.03 10.91L140.19 10.91ZM166.06 34.81L153.30 34.81L153.30 41.82Q153.30 44.02 153.61 44.65Q153.93 45.29 154.83 45.29Q155.96 45.29 156.34 44.45Q156.71 43.60 156.71 41.19L156.71 36.91L166.06 36.91L166.06 39.31Q166.06 42.31 165.69 43.92Q165.31 45.53 163.92 47.36Q162.52 49.19 160.39 50.11Q158.25 51.03 155.03 51.03Q151.90 51.03 149.51 50.12Q147.12 49.22 145.79 47.64Q144.46 46.07 143.95 44.18Q143.43 42.29 143.43 38.67L143.43 29.22Q143.43 24.98 144.58 22.52Q145.73 20.07 148.34 18.76Q150.95 17.46 154.35 17.46Q158.50 17.46 161.19 19.03Q163.89 20.61 164.98 23.21Q166.06 25.81 166.06 30.52L166.06 34.81M156.18 29.54L156.18 27.17Q156.18 24.66 155.91 23.93Q155.64 23.19 154.81 23.19Q153.78 23.19 153.54 23.82Q153.30 24.44 153.30 27.17L153.30 29.54L156.18 29.54ZM178.10 30.59L168.85 30.59L168.85 28.42Q168.85 24.66 169.71 22.62Q170.58 20.58 173.19 19.02Q175.81 17.46 179.98 17.46Q184.99 17.46 187.52 19.23Q190.06 21.00 190.58 23.57Q191.09 26.15 191.09 34.18L191.09 50.44L181.49 50.44L181.49 47.56Q180.59 49.29 179.16 50.16Q177.73 51.03 175.76 51.03Q173.17 51.03 171.01 49.57Q168.85 48.12 168.85 43.21L168.85 40.55Q168.85 36.91 170.00 35.60Q171.14 34.28 175.68 32.52Q180.54 30.62 180.88 29.96Q181.23 29.30 181.23 27.27Q181.23 24.73 180.85 23.96Q180.47 23.19 179.59 23.19Q178.59 23.19 178.34 23.84Q178.10 24.49 178.10 27.20L178.10 30.59M181.23 35.03Q178.86 36.77 178.48 37.94Q178.10 39.11 178.10 41.31Q178.10 43.82 178.43 44.56Q178.76 45.29 179.74 45.29Q180.66 45.29 180.94 44.71Q181.23 44.14 181.23 41.70L181.23 35.03ZM204.52 18.04L204.35 21.02Q205.42 19.24 206.97 18.35Q208.52 17.46 210.55 17.46Q213.09 17.46 214.70 18.65Q216.31 19.85 216.77 21.67Q217.24 23.49 217.24 27.73L217.24 50.44L207.37 50.44L207.37 28.00Q207.37 24.66 207.15 23.93Q206.93 23.19 205.93 23.19Q204.88 23.19 204.61 24.04Q204.35 24.88 204.35 28.54L204.35 50.44L194.48 50.44L194.48 18.04L204.52 18.04Z"/></g></g></svg>