<svg width="1501" height="251" viewBox="0 0 1501 251" fill="none" xmlns="http://www.w3.org/2000/svg">
<g clip-path="url(#clip0_2_56)">
<path d="M257.153 104.981C257.035 98.4945 258.297 92.0567 260.854 86.0939C263.411 80.131 267.206 74.7793 271.986 70.3927C281.875 61.0089 294.931 56.321 311.153 56.329C321.794 56.329 331.087 58.1865 339.03 61.9016C341.184 55.6942 345.504 50.4711 351.197 47.1894C357.423 43.5615 364.53 41.7205 371.735 41.869L379.338 42.6377V70.765C379.338 70.2606 377.308 70.0084 373.248 70.0084C370.204 70.0507 367.256 71.0742 364.841 72.9268C362.138 74.8724 360.781 77.7308 360.781 81.67V84.2041C363.711 90.7342 365.183 97.8246 365.093 104.981C365.093 119.393 360.193 131.095 350.392 140.087C340.591 149.078 327.496 153.598 311.105 153.646C306.56 153.681 302.02 153.299 297.545 152.505C294.538 152.073 291.596 151.266 288.789 150.103L286.255 148.842C285.256 149.835 284.472 151.021 283.949 152.329C283.426 153.636 283.177 155.037 283.216 156.444C283.168 157.581 283.37 158.714 283.808 159.764C284.246 160.814 284.909 161.755 285.75 162.521C287.253 163.964 289.252 164.777 291.335 164.791H334.934C349.955 164.791 361.318 168.426 369.02 175.696C376.723 182.966 380.567 192.514 380.551 204.34C380.551 218.367 374.637 229.605 362.811 238.052C350.984 246.499 333.409 250.726 310.084 250.734C269.536 250.734 249.258 238.568 249.25 214.236C249.25 202.755 254.743 193.799 265.729 187.37C257.457 181.461 253.318 173.266 253.31 162.785C253.31 151.64 257.958 142.601 267.254 135.667C260.52 127.38 257.153 117.151 257.153 104.981ZM332.952 196.473H289.354C284.621 198.675 282.255 202.054 282.255 206.61C282.147 208.993 282.721 211.357 283.91 213.425C285.099 215.493 286.855 217.179 288.969 218.283C293.453 220.821 301.1 222.087 311.91 222.079C335.931 222.079 347.942 217.01 347.942 206.874C347.886 199.948 342.873 196.481 332.904 196.473H332.952ZM294.746 120.198C298.894 123.905 304.347 125.763 311.105 125.771C317.863 125.779 323.312 123.921 327.451 120.198C331.583 116.475 333.653 111.403 333.661 104.981C333.669 98.5601 331.643 93.4999 327.584 89.8008C323.524 86.0937 318.031 84.2362 311.105 84.2282C304.179 84.2202 298.686 86.0777 294.626 89.8008C290.567 93.5239 288.537 98.5921 288.537 105.005C288.537 111.419 290.607 116.483 294.746 120.198Z" fill="#033930"/>
<path d="M475.856 58.5766V92.2886C473.52 91.8049 471.143 91.5515 468.758 91.532C458.116 91.532 450.133 94.3343 444.809 99.9389C439.484 105.544 436.821 114.351 436.821 126.361V192.512H400.79V59.6215H433.987V76.8558C441.594 64.5255 454.101 58.3564 471.508 58.3484L475.856 58.5766Z" fill="#033930"/>
<path d="M582.644 149.098L615.853 156.701C611.244 168.29 603.25 178.221 592.913 185.2C582.664 192.062 570.109 195.493 555.248 195.493C535.646 195.493 519.592 188.987 507.085 175.977C494.578 162.966 488.324 146.252 488.324 125.835C488.324 106.067 494.578 89.5889 507.085 76.402C519.592 63.215 535.57 56.6095 555.019 56.5855C574.437 56.5855 590.279 63.1309 602.546 76.2218C614.812 89.3127 620.93 105.85 620.898 125.835L620.381 136.476H524.068C525.245 145.603 528.624 152.573 534.205 157.385C539.786 162.197 547.136 164.599 556.256 164.591C569.1 164.567 577.896 159.403 582.644 149.098ZM554.755 85.4455C546.652 85.4455 539.982 87.6793 534.745 92.147C529.509 96.6147 526.126 102.74 524.596 110.522H584.926C583.871 103.471 580.372 97.014 575.041 92.2791C569.788 87.7394 563.018 85.4735 554.731 85.4815L554.755 85.4455Z" fill="#033930"/>
<path d="M733.472 149.093L766.681 156.695C762.073 168.284 754.078 178.216 743.741 185.195C733.508 192.056 720.957 195.487 706.088 195.487C686.486 195.487 670.432 188.982 657.925 175.971C645.418 162.96 639.168 146.246 639.176 125.829C639.176 106.061 645.426 89.5834 657.925 76.3964C670.424 63.2095 686.398 56.624 705.848 56.64C725.265 56.64 741.107 63.1855 753.374 76.2763C765.641 89.3672 771.766 105.885 771.75 125.829L771.234 136.47H674.908C676.085 145.598 679.464 152.568 685.045 157.38C690.626 162.192 697.981 164.594 707.109 164.586C719.952 164.562 728.74 159.397 733.472 149.093ZM705.583 85.4399C697.48 85.4399 690.806 87.6738 685.562 92.1415C680.317 96.6092 676.938 102.734 675.425 110.517H735.742C734.692 103.464 731.192 97.0052 725.857 92.2736C720.621 87.7338 713.863 85.468 705.583 85.476V85.4399Z" fill="#033930"/>
<path d="M1463.49 149.093L1496.7 156.695C1492.09 168.284 1484.1 178.216 1473.76 185.195C1463.53 192.056 1450.98 195.487 1436.11 195.487C1416.51 195.487 1400.45 188.982 1387.95 175.971C1375.44 162.96 1369.19 146.246 1369.2 125.829C1369.2 106.061 1375.45 89.5834 1387.95 76.3964C1400.44 63.2095 1416.42 56.624 1435.87 56.64C1455.29 56.64 1471.13 63.1855 1483.39 76.2763C1495.66 89.3672 1501.79 105.885 1501.77 125.829L1501.25 136.47H1404.93C1406.11 145.598 1409.49 152.568 1415.07 157.38C1420.65 162.192 1428 164.594 1437.13 164.586C1449.97 164.562 1458.76 159.397 1463.49 149.093ZM1435.6 85.4399C1427.5 85.4399 1420.83 87.6738 1415.58 92.1415C1410.34 96.6092 1406.96 102.734 1405.45 110.517H1465.76C1464.71 103.464 1461.21 97.0052 1455.88 92.2736C1450.64 87.7338 1443.88 85.468 1435.6 85.476V85.4399Z" fill="#033930"/>
<path d="M825.103 59.6243V75.8378C832.021 63.0272 845.201 56.6219 864.642 56.6219C880.36 56.6219 892.443 61.3938 900.891 70.9377C909.338 80.4817 913.566 93.3643 913.574 109.586V192.455H877.542V113.609C877.542 96.2107 870.023 87.5075 854.986 87.4995C846.378 87.4995 839.704 90.0776 834.964 95.2339C830.224 100.39 827.858 107.444 827.866 116.395V192.431H791.834V59.6243H825.103Z" fill="#033930"/>
<path d="M972.328 178.235V245.154H936.296V59.6243H969.505V75.8378C978.313 63.0272 992.325 56.6219 1011.54 56.6219C1030.32 56.6219 1045.19 63.2073 1056.16 76.3782C1067.13 89.5492 1072.64 106.099 1072.68 126.027C1072.68 145.964 1067.18 162.522 1056.2 175.701C1045.21 188.88 1030.35 195.477 1011.61 195.493C1003.53 195.646 995.509 193.958 988.17 190.557C981.985 187.767 976.554 183.543 972.328 178.235V178.235ZM980.327 98.969C974.321 106.063 971.319 115.102 971.319 126.088C971.319 137.073 974.321 146.112 980.327 153.206C986.332 160.304 994.223 163.847 1004.01 163.847C1013.8 163.847 1021.72 160.304 1027.72 153.206C1033.73 146.108 1036.72 137.077 1036.72 126.088C1036.72 115.098 1033.71 106.067 1027.72 98.969C1021.73 91.8711 1013.82 88.3282 1004.01 88.3282C994.199 88.3282 986.308 91.8111 980.327 98.9089V98.969Z" fill="#033930"/>
<path d="M1127.3 36.2993C1123 40.2169 1117.4 42.3885 1111.59 42.3885C1105.77 42.3885 1100.17 40.2169 1095.87 36.2993C1093.85 34.2751 1092.27 31.8591 1091.23 29.2006C1090.18 26.542 1089.69 23.6975 1089.79 20.8425C1089.7 17.9648 1090.19 15.0982 1091.24 12.4151C1092.28 9.73205 1093.86 7.28787 1095.87 5.22955C1100.13 1.23917 1105.75 -0.981262 1111.59 -0.981262C1117.42 -0.981262 1123.04 1.23917 1127.3 5.22955C1129.32 7.28728 1130.89 9.73108 1131.94 12.4141C1132.99 15.0971 1133.48 17.964 1133.39 20.8425C1133.49 23.6982 1132.99 26.5431 1131.95 29.2016C1130.9 31.8601 1129.32 34.2757 1127.3 36.2993ZM1093.6 192.429V59.6227H1129.63V192.429H1093.6Z" fill="#033930"/>
<path d="M1288.71 59.6201L1240.67 124.99L1290.23 192.426H1246.89L1219 154.487L1191.13 192.426H1147.77L1197.34 124.99L1149.29 59.6201H1192.64L1219 95.5059L1245.35 59.6201H1288.71Z" fill="#033930"/>
<path d="M1344.51 36.2993C1340.22 40.2169 1334.61 42.3885 1328.8 42.3885C1322.98 42.3885 1317.38 40.2169 1313.08 36.2993C1311.07 34.2757 1309.48 31.8601 1308.44 29.2016C1307.39 26.5431 1306.9 23.6982 1306.99 20.8425C1306.9 17.964 1307.4 15.0971 1308.44 12.4141C1309.49 9.73108 1311.07 7.28728 1313.08 5.22955C1317.34 1.23917 1322.96 -0.981262 1328.8 -0.981262C1334.64 -0.981262 1340.25 1.23917 1344.51 5.22955C1346.53 7.28728 1348.11 9.73108 1349.15 12.4141C1350.2 15.0971 1350.69 17.964 1350.6 20.8425C1350.7 23.6982 1350.21 26.5431 1349.16 29.2016C1348.11 31.8601 1346.53 34.2757 1344.51 36.2993V36.2993ZM1310.8 192.429V59.6227H1346.83V192.429H1310.8Z" fill="#033930"/>
<path d="M185.151 214.866C185.151 214.206 185.151 213.461 185.151 212.644V212.488C183.918 185.304 176.526 158.754 163.532 134.844C163.055 134.252 162.786 133.519 162.769 132.758C162.752 131.998 162.986 131.253 163.436 130.64C176.906 105.795 184.325 78.1238 185.091 49.8732C185.163 46.4863 185.223 44.0363 183.302 42.1147C181.38 40.1931 179.002 40.2652 175.663 40.3492C147.438 41.1529 119.802 48.618 95.0114 62.1353C93.1738 63.1322 92.6093 63.0721 91.144 62.2674C66.2437 48.5745 38.4204 41.0579 10.012 40.3492C7.04533 40.2652 4.48706 40.2051 2.54133 42.1507C0.595602 44.0964 0.655655 46.6545 0.73973 49.633C1.42438 77.8641 8.83602 105.524 22.3589 130.316C23.4159 132.346 23.3318 133.138 22.5271 134.639C8.90577 159.559 1.39343 187.355 0.607617 215.743C0.467371 216.996 0.58928 218.264 0.965599 219.468C1.34192 220.671 1.96442 221.783 2.79356 222.733C3.73559 223.559 4.83901 224.182 6.03399 224.56C7.22896 224.938 8.48946 225.064 9.73572 224.93C38.1041 224.193 65.8914 216.726 90.8077 203.144C92.6453 202.148 93.2098 202.208 94.6631 203.012C118.713 216.211 145.49 223.672 172.901 224.81L174.606 224.882C175.687 224.882 176.672 224.99 177.573 224.99C179.975 224.99 181.704 224.654 183.206 223.189C185.308 221.195 185.235 218.661 185.151 214.866ZM44.4465 154.888L45.3834 152.883C46.8343 149.399 48.6629 146.084 50.8362 142.998C57.5502 134.351 54.4394 127.085 51.0524 121.705C42.5644 108.121 36.5502 93.1416 33.2886 77.46C33.0364 76.3431 32.8202 75.2382 32.604 74.1213C32.4359 73.2325 32.2557 72.3558 32.0755 71.4671C45.1685 73.7978 57.8813 77.9072 69.8611 83.6812L71.8068 84.618C75.7147 86.352 79.4608 88.4299 83.0007 90.8271C91.156 96.712 97.6057 94.1419 102.854 90.8271C118.172 81.2459 135.2 74.7205 152.999 71.6112L153.539 71.5391H153.744C151.396 84.655 147.254 97.3851 141.433 109.371C138.058 115.952 135.355 120.864 132.677 125.26C129.686 130.124 129.65 134.363 132.569 138.987C141.912 153.752 148.621 170.027 152.398 187.087C152.819 189.045 153.287 191.242 153.599 193.404C152.146 193.02 150.693 192.66 149.276 192.299C143.03 190.873 136.89 189.019 130.899 186.751C120.27 182.499 109.881 177.143 99.8157 171.882C97.6585 170.637 95.2304 169.936 92.7414 169.841C90.2353 169.896 87.7973 170.667 85.7152 172.063C69.6271 182.279 51.7345 189.328 33.0004 192.828C32.6721 192.828 32.3598 192.864 32.0635 192.936C34.413 179.742 38.5803 166.938 44.4465 154.888V154.888Z" fill="#34F4A3"/>
</g>
<defs>
<clipPath id="clip0_2_56">
<rect width="1501" height="251" fill="white"/>
</clipPath>
</defs>
</svg>
