<svg xmlns="http://www.w3.org/2000/svg" width="214" height="60" fill="none" viewBox="0 0.658 213.987 59.302"><g clip-path="url(#a)"><path fill="#1e1e1c" d="M190.064 21.878c-1.441-.756-3.014-1.25-4.692-1.25s-3.252.37-4.692 1.25c-1.441.756-2.525 1.883-3.371 3.38-.846 1.499-1.203 3.258-1.203 5.127s.357 3.752 1.203 5.126a10.04 10.04 0 0 0 3.252 3.505c1.44.88 2.894 1.25 4.692 1.25 1.797 0 3.37-.37 4.692-1.25 1.441-.88 2.524-2.007 3.37-3.505s1.203-3.257 1.203-5.126-.357-3.752-1.203-5.126q-1.09-2.062-3.251-3.381m.608 12.52c-.608 1.003-1.322 1.883-2.287 2.377a6.54 6.54 0 0 1-3.132.756c-1.203 0-2.049-.247-3.014-.756-.965-.494-1.678-1.25-2.167-2.377-.476-1.003-.846-2.378-.846-3.876s.238-2.748.846-3.875 1.321-1.883 2.167-2.378 1.93-.756 3.014-.756 2.167.248 3.013.756a6.13 6.13 0 0 1 2.287 2.378c.608 1.127.846 2.377.846 3.875s-.119 2.873-.727 3.876m-85.648-12.451a8.2 8.2 0 0 0-3.013 3.38c-.727 1.498-1.084 3.257-1.084 5.126 0 1.883.357 3.629 1.084 5.127s1.81 2.625 3.132 3.504c1.322.88 2.895 1.25 4.454 1.25 1.56 0 2.895-.37 4.098-1.126s2.048-1.622 2.643-2.749v2.254c0 .88.727 1.622 1.56 1.622.832 0 1.559-.756 1.559-1.622V15.941c0-.88-.727-1.622-1.559-1.622-.833 0-1.56.756-1.56 1.622v8.63c-.608-1.126-1.56-2.006-2.762-2.748-1.203-.756-2.525-1.127-4.098-1.127-1.678 0-3.132.495-4.454 1.25m-.238 12.258c-.608-1.003-.846-2.5-.846-3.875s.238-2.625.846-3.752c.608-1.003 1.322-1.883 2.287-2.378.965-.632 1.929-.88 3.132-.88s2.168.248 3.133.88c.965.633 1.678 1.375 2.286 2.502s.846 2.377.846 3.751-.238 2.625-.846 3.752-1.321 1.883-2.286 2.502-1.93.88-3.133.88-2.167-.248-3.132-.88c-.965-.633-1.679-1.375-2.287-2.502m101.76-13.577c-1.203 0-2.406.248-3.371.756-.965.509-1.811 1.25-2.405 2.254v-1.374c0-.88-.727-1.622-1.56-1.622s-1.56.756-1.56 1.622v16.395c0 .88.727 1.622 1.56 1.622s1.56-.756 1.56-1.622v-9.263c0-2.006.475-3.504 1.44-4.507.965-1.004 2.168-1.498 3.847-1.498s2.894.494 3.727 1.497c.846 1.004 1.322 2.502 1.322 4.385v9.51c0 .88.726 1.498 1.44 1.498s1.441-.756 1.441-1.498V28.9c0-2.625-.727-4.632-2.049-6.006s-3.251-2.254-5.419-2.254zm-107.06.11c-1.44 0-2.644.247-3.609.88-.964.632-1.678 1.374-2.286 2.5v-1.745c0-.88-.727-1.621-1.56-1.621-.832 0-1.56.756-1.56 1.621v16.396c0 .88.728 1.622 1.56 1.622s1.56-.756 1.56-1.622v-9.015c0-3.876 1.678-5.759 5.049-5.759h.727c.846 0 1.56-.756 1.56-1.622 0-.865-.608-1.621-1.441-1.621zm-13.759.123c-.846 0-1.56.757-1.56 1.623v2.13c-.608-1.127-1.44-2.007-2.644-2.749-1.202-.742-2.524-1.127-4.216-1.127s-3.132.371-4.454 1.25c-1.322.757-2.405 2.007-3.132 3.382-.727 1.497-1.084 3.133-1.084 5.126 0 1.992.357 3.628 1.084 5.126s1.81 2.625 3.132 3.505 2.762 1.25 4.454 1.25 3.014-.37 4.098-1.127c1.202-.756 2.048-1.622 2.643-2.748v2.253c0 .88.727 1.622 1.56 1.622.832 0 1.56-.756 1.56-1.622V22.483c.118-.88-.609-1.622-1.441-1.622M83.44 34.385c-.608 1.127-1.322 1.883-2.287 2.501-.964.633-1.93.88-3.132.88s-2.168-.247-3.133-.88c-.964-.632-1.678-1.374-2.286-2.5-.608-1.128-.846-2.378-.846-3.753 0-1.498.238-2.625.846-3.752s1.322-1.883 2.286-2.377c.965-.495 1.93-.88 3.133-.88s2.168.247 3.132.88c.965.632 1.679 1.374 2.287 2.501.608 1.003.846 2.254.846 3.752s-.357 2.625-.846 3.628m55.698-13.635c-.846 0-1.56.757-1.56 1.622v2.13c-.608-1.126-1.441-2.006-2.643-2.748-1.203-.742-2.525-1.127-4.217-1.127s-3.132.371-4.454 1.25c-1.322.757-2.405 2.007-3.132 3.382-.727 1.498-1.084 3.133-1.084 5.126s.357 3.628 1.084 5.126 1.81 2.625 3.132 3.505 2.763 1.25 4.454 1.25c1.692 0 3.014-.37 4.098-1.127 1.202-.756 2.048-1.621 2.643-2.748v2.254c0 .88.727 1.621 1.56 1.621.832 0 1.559-.756 1.559-1.621V22.372c.119-.88-.608-1.621-1.44-1.621m-2.287 13.524c-.608 1.127-1.322 1.883-2.286 2.501-.965.633-1.93.88-3.133.88s-2.168-.247-3.132-.88c-.965-.632-1.679-1.374-2.287-2.5-.608-1.128-.846-2.378-.846-3.753 0-1.498.238-2.625.846-3.752s1.322-1.883 2.287-2.377c.964-.495 1.929-.88 3.132-.88s2.168.248 3.133.88 1.678 1.374 2.286 2.501c.608 1.003.846 2.254.846 3.752s-.357 2.625-.846 3.628"/><g fill="#1e1e1c"><path d="M152.791 20.627c-1.203 0-2.406.248-3.371.756-.965.509-1.81 1.25-2.405 2.254v-1.374c0-.88-.727-1.622-1.56-1.622s-1.559.756-1.559 1.622v16.395c0 .88.726 1.622 1.559 1.622s1.56-.756 1.56-1.622v-9.263c0-2.006.476-3.504 1.44-4.507.965-1.004 2.168-1.498 3.847-1.498s2.894.494 3.727 1.497 1.322 2.502 1.322 4.385v9.51c0 .88.727 1.498 1.44 1.498.714 0 1.441-.756 1.441-1.498V28.9c0-2.625-.727-4.632-2.049-6.006-1.321-1.375-3.251-2.254-5.419-2.254z"/><path d="M157.231 22.263v16.395c0 .88.727 1.622 1.56 1.622s1.56-.756 1.56-1.622v-9.263c0-2.006.476-3.504 1.44-4.507.965-1.004 2.168-1.498 3.847-1.498s2.894.494 3.727 1.497 1.322 2.502 1.322 4.385v9.51c0 .88.727 1.498 1.44 1.498.714 0 1.441-.756 1.441-1.498V28.9c0-2.625-.727-4.632-2.049-6.006-1.321-1.375-3.251-2.254-5.419-2.254-1.203 0-2.405.247-3.37.756-.965.508-1.811 1.25-2.406 2.254l-.938 1.58"/></g><path fill="#609693" d="M39.017 30.316c0-4.068-3.119-7.38-6.992-7.504a7.8 7.8 0 0 0 .86-3.546c0-4.067-3.133-7.38-7.019-7.503a7.75 7.75 0 0 0 .872-3.587c0-4.15-3.251-7.518-7.23-7.518-3.978 0-7.23 3.381-7.23 7.518a7.8 7.8 0 0 0 .873 3.587c-3.886.123-7.018 3.435-7.018 7.504 0 1.278.317 2.487.859 3.545C3.119 22.95 0 26.262 0 30.316s3.12 7.38 7.005 7.504a7.7 7.7 0 0 0-.872 3.573c0 4.068 3.12 7.38 6.992 7.504a7.8 7.8 0 0 0-.86 3.546c0 4.15 3.252 7.517 7.23 7.517s7.23-3.38 7.23-7.517a7.8 7.8 0 0 0-.859-3.546c3.873-.137 6.992-3.45 6.992-7.504a7.7 7.7 0 0 0-.872-3.573c3.885-.124 7.005-3.436 7.005-7.504zm-13.376-16.3c2.776 0 5.036 2.35 5.036 5.237s-2.26 5.236-5.036 5.236-5.035-2.35-5.035-5.236 2.26-5.236 5.035-5.236M19.51 2.927c2.775 0 5.035 2.35 5.035 5.236s-2.26 5.236-5.035 5.236-5.036-2.35-5.036-5.236 2.26-5.236 5.036-5.236m-6.133 11.09c2.775 0 5.036 2.35 5.036 5.237s-2.26 5.236-5.036 5.236-5.036-2.35-5.036-5.236 2.26-5.236 5.036-5.236M7.23 35.567c-2.776 0-5.036-2.35-5.036-5.236s2.26-5.236 5.036-5.236 5.036 2.35 5.036 5.236-2.26 5.236-5.036 5.236m6.146 11.077c-2.776 0-5.036-2.35-5.036-5.236s2.26-5.236 5.036-5.236 5.036 2.35 5.036 5.236-2.26 5.236-5.036 5.236m6.133 11.063c-2.776 0-5.036-2.35-5.036-5.236s2.26-5.236 5.036-5.236 5.035 2.35 5.035 5.236-2.26 5.236-5.035 5.236m6.132-11.063c-2.775 0-5.035-2.35-5.035-5.236s2.26-5.236 5.035-5.236 5.036 2.35 5.036 5.236-2.26 5.236-5.036 5.236m6.146-11.077c-1.387 0-2.643-.591-3.555-1.526h-3.74c-1.018 1.471-2.617 2.474-4.455 2.64-.198.247-.37.508-.528.769a8 8 0 0 0-.53-.77c-1.85-.165-3.475-1.182-4.48-2.68a6.4 6.4 0 0 0-.899-.082 7 7 0 0 0 .37-.839 6.5 6.5 0 0 1-.594-2.734c0-.976.225-1.91.595-2.735a9 9 0 0 0-.357-.811c.29 0 .581-.041.859-.083 1.018-1.525 2.656-2.556 4.533-2.72a5.6 5.6 0 0 0 .503-.743c.158.261.33.509.502.742 1.864.165 3.476 1.182 4.507 2.68h3.674c.912-.962 2.181-1.567 3.582-1.567 2.776 0 5.036 2.35 5.036 5.237s-2.26 5.236-5.036 5.236z"/><path fill="#1e1e1c" d="M28.232 34.027h-.014c-.105-.454-.885-.797-1.85-.797s-1.745.343-1.85.797h-.027c-1.11 1.608-2.934 2.666-4.983 2.666-3.383 0-6.132-2.859-6.132-6.377s2.749-6.377 6.132-6.377c2.076 0 3.9 1.072 5.01 2.708.132.426.898.756 1.85.756s1.718-.33 1.85-.756h.027l-.027-.055c0-.028.014-.055.014-.07 0-.15-.093-.288-.225-.411-1.52-3.299-4.758-5.594-8.512-5.594-5.194 0-9.424 4.398-9.424 9.8 0 5.4 4.23 9.798 9.424 9.798 3.74 0 6.966-2.281 8.486-5.566.145-.124.237-.275.237-.426 0-.027 0-.055-.013-.082v-.028zm37.378.069h-.013c-.105-.454-.898-.811-1.89-.811-.99 0-1.784.357-1.89.81h-.026c-1.137 1.65-2.987 2.722-5.076 2.722-3.45 0-6.251-2.914-6.251-6.5 0-3.588 2.802-6.501 6.251-6.501 2.115 0 3.966 1.085 5.102 2.748.133.44.912.77 1.877.77s1.745-.33 1.877-.77h.026l-.026-.055c0-.027.013-.055.013-.069 0-.15-.092-.288-.225-.412-1.546-3.367-4.85-5.703-8.67-5.703-5.3 0-9.609 4.48-9.609 9.991s4.309 9.991 9.609 9.991c3.807 0 7.098-2.322 8.657-5.662.146-.137.238-.275.238-.44 0-.027 0-.054-.013-.082v-.027z"/></g><defs><clipPath id="a"><path fill="#fff" d="M0 .644h214v59.343H0z"/></clipPath></defs></svg>