<svg xmlns="http://www.w3.org/2000/svg" viewBox="0 10.91 301.22 44.07" data-asc="1.0087890625"><g fill="#000000"><g fill="#000000" transform="translate(0, 0)"><path d="M12.35 10.91L12.35 16.06L2.20 16.06L2.20 10.91L12.35 10.91M12.35 18.04L12.35 43.68Q12.35 48.19 12.17 49.79Q11.99 51.39 11.05 52.60Q10.11 53.81 8.53 54.39Q6.96 54.98 3.81 54.98L0 54.98L0 49.80Q1.76 49.80 1.98 49.41Q2.20 49.02 2.20 44.53L2.20 18.04L12.35 18.04ZM16.19 10.91L26.54 10.91Q30.74 10.91 33.00 11.57Q35.25 12.23 36.39 13.48Q37.52 14.72 37.93 16.49Q38.33 18.26 38.33 21.97L38.33 25.42Q38.33 29.20 37.55 30.93Q36.77 32.67 34.68 33.59Q32.59 34.52 29.22 34.52L26.46 34.52L26.46 50.44L16.19 50.44L16.19 10.91M26.46 17.68L26.46 27.73Q26.90 27.76 27.22 27.76Q28.64 27.76 29.19 27.06Q29.74 26.37 29.74 24.17L29.74 20.92Q29.74 18.90 29.10 18.29Q28.47 17.68 26.46 17.68ZM63.31 29.42L63.31 37.35Q63.31 41.72 62.87 43.76Q62.43 45.80 60.99 47.57Q59.55 49.34 57.29 50.18Q55.03 51.03 52.10 51.03Q48.83 51.03 46.56 50.31Q44.29 49.58 43.03 48.13Q41.77 46.68 41.24 44.62Q40.70 42.55 40.70 38.43L40.70 30.13Q40.70 25.61 41.67 23.07Q42.65 20.53 45.19 18.99Q47.73 17.46 51.68 17.46Q55.00 17.46 57.39 18.44Q59.77 19.43 61.06 21.02Q62.35 22.61 62.83 24.29Q63.31 25.98 63.31 29.42M53.44 26.98Q53.44 24.49 53.17 23.84Q52.91 23.19 52.03 23.19Q51.15 23.19 50.85 23.84Q50.56 24.49 50.56 26.98L50.56 41.60Q50.56 43.90 50.85 44.59Q51.15 45.29 52.00 45.29Q52.88 45.29 53.16 44.65Q53.44 44.02 53.44 41.92L53.44 26.98ZM98.41 18.04L94.48 50.44L83.76 50.44Q82.89 44.51 81.74 34.81Q81.35 39.06 80.64 43.41L79.54 50.44L68.82 50.44L64.65 18.04L73.14 18.04Q73.24 19.31 75.29 36.57Q75.44 34.81 77.49 18.04L85.67 18.04L87.67 36.57Q88.13 28.47 89.92 18.04L98.41 18.04ZM122.36 34.81L109.59 34.81L109.59 41.82Q109.59 44.02 109.91 44.65Q110.23 45.29 111.13 45.29Q112.26 45.29 112.63 44.45Q113.01 43.60 113.01 41.19L113.01 36.91L122.36 36.91L122.36 39.31Q122.36 42.31 121.98 43.92Q121.61 45.53 120.21 47.36Q118.82 49.19 116.69 50.11Q114.55 51.03 111.33 51.03Q108.20 51.03 105.81 50.12Q103.42 49.22 102.09 47.64Q100.76 46.07 100.24 44.18Q99.73 42.29 99.73 38.67L99.73 29.22Q99.73 24.98 100.88 22.52Q102.03 20.07 104.64 18.76Q107.25 17.46 110.64 17.46Q114.79 17.46 117.49 19.03Q120.19 20.61 121.28 23.21Q122.36 25.81 122.36 30.52L122.36 34.81M112.48 29.54L112.48 27.17Q112.48 24.66 112.21 23.93Q111.94 23.19 111.11 23.19Q110.08 23.19 109.84 23.82Q109.59 24.44 109.59 27.17L109.59 29.54L112.48 29.54ZM135.45 18.04L135.06 22.29Q137.21 17.72 141.28 17.46L141.28 28.86Q138.57 28.86 137.30 29.59Q136.04 30.32 135.74 31.63Q135.45 32.93 135.45 37.65L135.45 50.44L125.59 50.44L125.59 18.04L135.45 18.04ZM175.49 10.91L175.49 50.44L166.50 50.44L166.50 23.75L162.92 50.44L156.54 50.44L152.76 24.37L152.76 50.44L143.77 50.44L143.77 10.91L157.08 10.91Q157.67 14.48 158.33 19.31L159.74 29.37L162.08 10.91L175.49 10.91ZM201.64 29.42L201.64 37.35Q201.64 41.72 201.20 43.76Q200.76 45.80 199.32 47.57Q197.88 49.34 195.62 50.18Q193.36 51.03 190.43 51.03Q187.16 51.03 184.89 50.31Q182.62 49.58 181.36 48.13Q180.10 46.68 179.57 44.62Q179.03 42.55 179.03 38.43L179.03 30.13Q179.03 25.61 180.00 23.07Q180.98 20.53 183.52 18.99Q186.06 17.46 190.01 17.46Q193.33 17.46 195.72 18.44Q198.10 19.43 199.39 21.02Q200.68 22.61 201.16 24.29Q201.64 25.98 201.64 29.42M191.77 26.98Q191.77 24.49 191.50 23.84Q191.24 23.19 190.36 23.19Q189.48 23.19 189.18 23.84Q188.89 24.49 188.89 26.98L188.89 41.60Q188.89 43.90 189.18 44.59Q189.48 45.29 190.33 45.29Q191.21 45.29 191.49 44.65Q191.77 44.02 191.77 41.92L191.77 26.98ZM214.92 18.04L214.75 21.02Q215.82 19.24 217.37 18.35Q218.92 17.46 220.95 17.46Q223.49 17.46 225.10 18.65Q226.71 19.85 227.17 21.67Q227.64 23.49 227.64 27.73L227.64 50.44L217.77 50.44L217.77 28.00Q217.77 24.66 217.55 23.93Q217.33 23.19 216.33 23.19Q215.28 23.19 215.01 24.04Q214.75 24.88 214.75 28.54L214.75 50.44L204.88 50.44L204.88 18.04L214.92 18.04ZM241.19 10.91L241.19 16.06L231.03 16.06L231.03 10.91L241.19 10.91M241.19 18.04L241.19 50.44L231.03 50.44L231.03 18.04L241.19 18.04ZM255.13 13.72L255.13 18.82L257.79 18.82L257.79 23.95L255.13 23.95L255.13 41.28Q255.13 44.48 255.46 44.85Q255.79 45.21 258.20 45.21L258.20 50.44L254.22 50.44Q250.85 50.44 249.41 50.16Q247.97 49.88 246.88 48.86Q245.78 47.85 245.51 46.55Q245.24 45.24 245.24 40.41L245.24 23.95L243.12 23.95L243.12 18.82L245.24 18.82L245.24 13.72L255.13 13.72ZM282.28 29.42L282.28 37.35Q282.28 41.72 281.84 43.76Q281.40 45.80 279.96 47.57Q278.52 49.34 276.26 50.18Q274.00 51.03 271.07 51.03Q267.80 51.03 265.53 50.31Q263.26 49.58 262.00 48.13Q260.74 46.68 260.21 44.62Q259.67 42.55 259.67 38.43L259.67 30.13Q259.67 25.61 260.64 23.07Q261.62 20.53 264.16 18.99Q266.70 17.46 270.65 17.46Q273.97 17.46 276.35 18.44Q278.74 19.43 280.03 21.02Q281.32 22.61 281.80 24.29Q282.28 25.98 282.28 29.42M272.41 26.98Q272.41 24.49 272.14 23.84Q271.88 23.19 271.00 23.19Q270.12 23.19 269.82 23.84Q269.53 24.49 269.53 26.98L269.53 41.60Q269.53 43.90 269.82 44.59Q270.12 45.29 270.97 45.29Q271.85 45.29 272.13 44.65Q272.41 44.02 272.41 41.92L272.41 26.98ZM295.39 18.04L295.00 22.29Q297.14 17.72 301.22 17.46L301.22 28.86Q298.51 28.86 297.24 29.59Q295.97 30.32 295.68 31.63Q295.39 32.93 295.39 37.65L295.39 50.44L285.52 50.44L285.52 18.04L295.39 18.04Z"/></g></g></svg>