<svg xmlns="http://www.w3.org/2000/svg" viewBox="0 10.91 91.28 40.12" data-asc="1.0087890625"><g fill="#000000"><g fill="#000000" transform="translate(0, 0)"><path d="M10.28 10.91L10.28 42.53L16.53 42.53L16.53 50.44L0 50.44L0 10.91L10.28 10.91ZM29.30 10.91L29.30 50.44L19.02 50.44L19.02 10.91L29.30 10.91ZM65.14 10.91L65.14 50.44L56.15 50.44L56.15 23.75L52.56 50.44L46.19 50.44L42.41 24.37L42.41 50.44L33.42 50.44L33.42 10.91L46.73 10.91Q47.31 14.48 47.97 19.31L49.39 29.37L51.73 10.91L65.14 10.91ZM91.28 29.42L91.28 37.35Q91.28 41.72 90.84 43.76Q90.41 45.80 88.96 47.57Q87.52 49.34 85.27 50.18Q83.01 51.03 80.08 51.03Q76.81 51.03 74.54 50.31Q72.27 49.58 71.01 48.13Q69.75 46.68 69.21 44.62Q68.68 42.55 68.68 38.43L68.68 30.13Q68.68 25.61 69.65 23.07Q70.63 20.53 73.17 18.99Q75.71 17.46 79.66 17.46Q82.98 17.46 85.36 18.44Q87.74 19.43 89.04 21.02Q90.33 22.61 90.81 24.29Q91.28 25.98 91.28 29.42M81.42 26.98Q81.42 24.49 81.15 23.84Q80.88 23.19 80.00 23.19Q79.13 23.19 78.83 23.84Q78.54 24.49 78.54 26.98L78.54 41.60Q78.54 43.90 78.83 44.59Q79.13 45.29 79.98 45.29Q80.86 45.29 81.14 44.65Q81.42 44.02 81.42 41.92L81.42 26.98Z"/></g></g></svg>