<svg xmlns="http://www.w3.org/2000/svg" viewBox="0 10.08 200.1 41.190002" data-asc="1.0087890625"><g fill="#000000"><g fill="#000000" transform="translate(0, 0)"><path d="M0 10.91L10.35 10.91Q14.55 10.91 16.81 11.57Q19.07 12.23 20.20 13.48Q21.34 14.72 21.74 16.49Q22.14 18.26 22.14 21.97L22.14 25.42Q22.14 29.20 21.36 30.93Q20.58 32.67 18.49 33.59Q16.41 34.52 13.04 34.52L10.28 34.52L10.28 50.44L0 50.44L0 10.91M10.28 17.68L10.28 27.73Q10.72 27.76 11.04 27.76Q12.45 27.76 13.00 27.06Q13.55 26.37 13.55 24.17L13.55 20.92Q13.55 18.90 12.92 18.29Q12.28 17.68 10.28 17.68ZM47.12 29.42L47.12 37.35Q47.12 41.72 46.68 43.76Q46.24 45.80 44.80 47.57Q43.36 49.34 41.10 50.18Q38.84 51.03 35.91 51.03Q32.64 51.03 30.37 50.31Q28.10 49.58 26.84 48.13Q25.59 46.68 25.05 44.62Q24.51 42.55 24.51 38.43L24.51 30.13Q24.51 25.61 25.49 23.07Q26.46 20.53 29.00 18.99Q31.54 17.46 35.50 17.46Q38.82 17.46 41.20 18.44Q43.58 19.43 44.87 21.02Q46.17 22.61 46.64 24.29Q47.12 25.98 47.12 29.42M37.26 26.98Q37.26 24.49 36.99 23.84Q36.72 23.19 35.84 23.19Q34.96 23.19 34.67 23.84Q34.38 24.49 34.38 26.98L34.38 41.60Q34.38 43.90 34.67 44.59Q34.96 45.29 35.82 45.29Q36.69 45.29 36.98 44.65Q37.26 44.02 37.26 41.92L37.26 26.98ZM82.23 18.04L78.30 50.44L67.58 50.44Q66.70 44.51 65.55 34.81Q65.16 39.06 64.45 43.41L63.35 50.44L52.64 50.44L48.46 18.04L56.96 18.04Q57.06 19.31 59.11 36.57Q59.25 34.81 61.30 18.04L69.48 18.04L71.48 36.57Q71.95 28.47 73.73 18.04L82.23 18.04ZM106.18 34.81L93.41 34.81L93.41 41.82Q93.41 44.02 93.73 44.65Q94.04 45.29 94.95 45.29Q96.07 45.29 96.45 44.45Q96.83 43.60 96.83 41.19L96.83 36.91L106.18 36.91L106.18 39.31Q106.18 42.31 105.80 43.92Q105.42 45.53 104.03 47.36Q102.64 49.19 100.50 50.11Q98.36 51.03 95.14 51.03Q92.02 51.03 89.62 50.12Q87.23 49.22 85.90 47.64Q84.57 46.07 84.06 44.18Q83.54 42.29 83.54 38.67L83.54 29.22Q83.54 24.98 84.69 22.52Q85.84 20.07 88.45 18.76Q91.06 17.46 94.46 17.46Q98.61 17.46 101.31 19.03Q104.00 20.61 105.09 23.21Q106.18 25.81 106.18 30.52L106.18 34.81M96.29 29.54L96.29 27.17Q96.29 24.66 96.02 23.93Q95.75 23.19 94.92 23.19Q93.90 23.19 93.65 23.82Q93.41 24.44 93.41 27.17L93.41 29.54L96.29 29.54ZM119.26 18.04L118.87 22.29Q121.02 17.72 125.10 17.46L125.10 28.86Q122.39 28.86 121.12 29.59Q119.85 30.32 119.56 31.63Q119.26 32.93 119.26 37.65L119.26 50.44L109.40 50.44L109.40 18.04L119.26 18.04ZM148.29 10.91L148.29 18.82L142.19 18.82L142.19 50.44L131.91 50.44L131.91 18.82L125.83 18.82L125.83 10.91L148.29 10.91ZM174.12 34.06Q174.12 40.01 173.84 42.49Q173.56 44.97 172.08 47.02Q170.61 49.07 168.09 50.17Q165.58 51.27 162.23 51.27Q159.06 51.27 156.53 50.23Q154.00 49.19 152.47 47.12Q150.93 45.04 150.63 42.60Q150.34 40.16 150.34 34.06L150.34 27.29Q150.34 21.34 150.62 18.86Q150.90 16.38 152.38 14.33Q153.86 12.28 156.37 11.18Q158.89 10.08 162.23 10.08Q165.41 10.08 167.93 11.12Q170.46 12.16 172.00 14.23Q173.54 16.31 173.83 18.75Q174.12 21.19 174.12 27.29L174.12 34.06M163.84 21.07Q163.84 18.31 163.54 17.54Q163.23 16.77 162.28 16.77Q161.47 16.77 161.05 17.40Q160.62 18.02 160.62 21.07L160.62 39.53Q160.62 42.97 160.90 43.77Q161.18 44.58 162.21 44.58Q163.26 44.58 163.55 43.65Q163.84 42.72 163.84 39.23L163.84 21.07ZM177.95 10.91L188.31 10.91Q192.50 10.91 194.76 11.57Q197.02 12.23 198.16 13.48Q199.29 14.72 199.69 16.49Q200.10 18.26 200.10 21.97L200.10 25.42Q200.10 29.20 199.32 30.93Q198.54 32.67 196.45 33.59Q194.36 34.52 190.99 34.52L188.23 34.52L188.23 50.44L177.95 50.44L177.95 10.91M188.23 17.68L188.23 27.73Q188.67 27.76 188.99 27.76Q190.41 27.76 190.95 27.06Q191.50 26.37 191.50 24.17L191.50 20.92Q191.50 18.90 190.87 18.29Q190.23 17.68 188.23 17.68Z"/></g></g></svg>