<svg xmlns="http://www.w3.org/2000/svg" viewBox="0 10.08 137.67 41.190002" data-asc="1.0087890625"><g fill="#000000"><g fill="#000000" transform="translate(0, 0)"><path d="M24.29 28.15L14.01 28.15L14.01 21.26Q14.01 18.26 13.68 17.52Q13.35 16.77 12.23 16.77Q10.96 16.77 10.62 17.68Q10.28 18.58 10.28 21.58L10.28 39.94Q10.28 42.82 10.62 43.70Q10.96 44.58 12.16 44.58Q13.31 44.58 13.66 43.70Q14.01 42.82 14.01 39.58L14.01 34.62L24.29 34.62L24.29 36.16Q24.29 42.29 23.43 44.85Q22.56 47.41 19.59 49.34Q16.63 51.27 12.28 51.27Q7.76 51.27 4.83 49.63Q1.90 48.00 0.95 45.10Q0 42.21 0 36.40L0 24.85Q0 20.58 0.29 18.44Q0.59 16.31 2.04 14.33Q3.49 12.35 6.07 11.22Q8.64 10.08 11.99 10.08Q16.53 10.08 19.48 11.84Q22.44 13.60 23.36 16.22Q24.29 18.85 24.29 24.39L24.29 28.15ZM38.26 10.91L38.26 42.53L44.51 42.53L44.51 50.44L27.98 50.44L27.98 10.91L38.26 10.91ZM47.00 10.91L64.14 10.91L64.14 18.82L57.28 18.82L57.28 26.32L63.70 26.32L63.70 33.84L57.28 33.84L57.28 42.53L64.82 42.53L64.82 50.44L47.00 50.44L47.00 10.91ZM92.19 10.91L86.96 50.44L71.36 50.44L65.43 10.91L76.27 10.91Q78.15 27.25 78.96 38.53Q79.76 27.12 80.64 18.26L81.35 10.91L92.19 10.91ZM93.95 10.91L111.08 10.91L111.08 18.82L104.22 18.82L104.22 26.32L110.64 26.32L110.64 33.84L104.22 33.84L104.22 42.53L111.77 42.53L111.77 50.44L93.95 50.44L93.95 10.91ZM114.72 10.91L122.00 10.91Q129.27 10.91 131.85 11.47Q134.42 12.04 136.05 14.34Q137.67 16.65 137.67 21.70Q137.67 26.32 136.52 27.91Q135.38 29.49 132.01 29.81Q135.06 30.57 136.11 31.84Q137.16 33.11 137.41 34.17Q137.67 35.23 137.67 40.01L137.67 50.44L128.13 50.44L128.13 37.30Q128.13 34.13 127.62 33.37Q127.12 32.62 125 32.62L125 50.44L114.72 50.44L114.72 10.91M125 17.68L125 26.46Q126.73 26.46 127.43 25.99Q128.13 25.51 128.13 22.90L128.13 20.73Q128.13 18.85 127.45 18.26Q126.78 17.68 125 17.68Z"/></g></g></svg>