<svg xmlns="http://www.w3.org/2000/svg" viewBox="0 10.08 124.22 44.9" data-asc="1.0087890625"><g fill="#000000"><g fill="#000000" transform="translate(0, 0)"><path d="M24.29 28.15L14.01 28.15L14.01 21.26Q14.01 18.26 13.68 17.52Q13.35 16.77 12.23 16.77Q10.96 16.77 10.62 17.68Q10.28 18.58 10.28 21.58L10.28 39.94Q10.28 42.82 10.62 43.70Q10.96 44.58 12.16 44.58Q13.31 44.58 13.66 43.70Q14.01 42.82 14.01 39.58L14.01 34.62L24.29 34.62L24.29 36.16Q24.29 42.29 23.43 44.85Q22.56 47.41 19.59 49.34Q16.63 51.27 12.28 51.27Q7.76 51.27 4.83 49.63Q1.90 48.00 0.95 45.10Q0 42.21 0 36.40L0 24.85Q0 20.58 0.29 18.44Q0.59 16.31 2.04 14.33Q3.49 12.35 6.07 11.22Q8.64 10.08 11.99 10.08Q16.53 10.08 19.48 11.84Q22.44 13.60 23.36 16.22Q24.29 18.85 24.29 24.39L24.29 28.15ZM51.46 34.06Q51.46 40.01 51.18 42.49Q50.90 44.97 49.43 47.02Q47.95 49.07 45.43 50.17Q42.92 51.27 39.58 51.27Q36.40 51.27 33.87 50.23Q31.35 49.19 29.81 47.12Q28.27 45.04 27.98 42.60Q27.69 40.16 27.69 34.06L27.69 27.29Q27.69 21.34 27.97 18.86Q28.25 16.38 29.72 14.33Q31.20 12.28 33.72 11.18Q36.23 10.08 39.58 10.08Q42.75 10.08 45.28 11.12Q47.80 12.16 49.34 14.23Q50.88 16.31 51.17 18.75Q51.46 21.19 51.46 27.29L51.46 34.06M41.19 21.07Q41.19 18.31 40.88 17.54Q40.58 16.77 39.62 16.77Q38.82 16.77 38.39 17.40Q37.96 18.02 37.96 21.07L37.96 39.53Q37.96 42.97 38.24 43.77Q38.53 44.58 39.55 44.58Q40.60 44.58 40.89 43.65Q41.19 42.72 41.19 39.23L41.19 21.07ZM76.27 43.70L76.27 50.44L54.57 50.44L54.57 44.80Q64.21 29.03 66.03 25.28Q67.85 21.53 67.85 19.43Q67.85 17.82 67.30 17.03Q66.75 16.24 65.63 16.24Q64.50 16.24 63.95 17.11Q63.40 17.99 63.40 20.61L63.40 24.37L54.57 24.37L54.57 22.92Q54.57 19.60 54.91 17.69Q55.25 15.77 56.59 13.92Q57.93 12.06 60.08 11.11Q62.23 10.16 65.23 10.16Q71.12 10.16 74.13 13.07Q77.15 15.99 77.15 20.46Q77.15 23.85 75.45 27.64Q73.75 31.42 65.45 43.70L76.27 43.70ZM86.67 42.38L86.67 50.44L79.22 50.44L79.22 42.38L86.67 42.38ZM99.78 10.91L99.78 16.06L89.62 16.06L89.62 10.91L99.78 10.91M99.78 18.04L99.78 43.68Q99.78 48.19 99.60 49.79Q99.41 51.39 98.47 52.60Q97.53 53.81 95.96 54.39Q94.38 54.98 91.24 54.98L87.43 54.98L87.43 49.80Q89.18 49.80 89.40 49.41Q89.62 49.02 89.62 44.53L89.62 18.04L99.78 18.04ZM123.46 28.39L114.72 28.39L114.72 26.64Q114.72 24.39 114.47 23.79Q114.21 23.19 113.18 23.19Q112.35 23.19 111.94 23.74Q111.52 24.29 111.52 25.39Q111.52 26.88 111.73 27.58Q111.94 28.27 112.98 29.10Q114.01 29.93 117.24 31.52Q121.53 33.62 122.88 35.47Q124.22 37.33 124.22 40.87Q124.22 44.82 123.19 46.84Q122.17 48.85 119.76 49.94Q117.36 51.03 113.96 51.03Q110.21 51.03 107.53 49.85Q104.86 48.68 103.86 46.68Q102.86 44.68 102.86 40.63L102.86 39.06L111.60 39.06L111.60 41.11Q111.60 43.73 111.93 44.51Q112.26 45.29 113.23 45.29Q114.28 45.29 114.70 44.76Q115.11 44.24 115.11 42.55Q115.11 40.23 114.58 39.65Q114.01 39.06 108.84 36.18Q104.49 33.74 103.54 31.75Q102.59 29.76 102.59 27.03Q102.59 23.14 103.61 21.30Q104.64 19.46 107.09 18.46Q109.55 17.46 112.79 17.46Q116.02 17.46 118.27 18.27Q120.53 19.09 121.74 20.43Q122.95 21.78 123.21 22.92Q123.46 24.07 123.46 26.51L123.46 28.39Z"/></g></g></svg>