<svg viewBox="0 0 181 59" fill="none" xmlns="http://www.w3.org/2000/svg"><path d="M22.098 52.403a23.415 23.415 0 0 1-9.038-4.28 23.537 23.537 0 0 1-6.445-7.67A23.656 23.656 0 0 1 5.5 20.873a23.57 23.57 0 0 1 5.531-8.358 23.443 23.443 0 0 1 8.494-5.287A23.363 23.363 0 0 1 38.974 8.97l2.285-3.175a27.226 27.226 0 0 0-22.742-2.352A27.317 27.317 0 0 0 8.505 9.532a27.465 27.465 0 0 0-6.559 9.735A27.568 27.568 0 0 0 3.14 42.198a27.43 27.43 0 0 0 7.533 8.995 27.287 27.287 0 0 0 10.587 5.008l.839-3.8Z" fill="#FDC32D"></path><path d="M53.34 20.766a27.298 27.298 0 0 0-8.336-12.293l-2.278 3.163a23.565 23.565 0 0 1 7.683 13.174 23.637 23.637 0 0 1-1.978 15.138 23.491 23.491 0 0 1-10.808 10.736 23.347 23.347 0 0 1-15.093 1.818l-.839 3.798a27.2 27.2 0 0 0 14.197-.732 27.304 27.304 0 0 0 11.909-7.797 27.48 27.48 0 0 0 6.394-12.752c.974-4.743.68-9.66-.85-14.253Z" fill="#FDC32D"></path><path d="M23.475 46.135a17.037 17.037 0 0 1-6.492-3.078 17.124 17.124 0 0 1-4.658-5.488 17.202 17.202 0 0 1-.986-14.066 17.155 17.155 0 0 1 3.846-6.089 17.062 17.062 0 0 1 6-3.962 17.002 17.002 0 0 1 14.018.762l2.287-3.175a20.857 20.857 0 0 0-17.316-1.361 20.931 20.931 0 0 0-7.513 4.765 21.044 21.044 0 0 0-4.87 7.466 21.12 21.12 0 0 0 1.066 17.412 21.011 21.011 0 0 0 5.743 6.811 20.904 20.904 0 0 0 8.039 3.805l.836-3.802Z" fill="#7AE04A"></path><path d="M47.27 22.796a20.89 20.89 0 0 0-6.023-9.106l-2.278 3.163a17.158 17.158 0 0 1 5.245 9.611 17.204 17.204 0 0 1-1.627 10.838 17.098 17.098 0 0 1-7.833 7.631 16.994 16.994 0 0 1-10.834 1.304l-.839 3.797c3.609.769 7.355.566 10.86-.588a20.923 20.923 0 0 0 9.1-5.984 21.057 21.057 0 0 0 4.883-9.762 21.11 21.11 0 0 0-.654-10.904Z" fill="#7AE04A"></path><path d="M24.792 40.183a10.959 10.959 0 0 1-4.083-1.92 11.015 11.015 0 0 1-2.97-3.407 11.063 11.063 0 0 1-.873-8.819 11.041 11.041 0 0 1 2.244-3.927 10.985 10.985 0 0 1 3.626-2.69 10.94 10.94 0 0 1 8.823-.142l2.342-3.251a14.822 14.822 0 0 0-17.288 3.076 14.95 14.95 0 0 0-3.268 5.308 15.001 15.001 0 0 0 .94 12.17 14.92 14.92 0 0 0 4.045 4.738 14.845 14.845 0 0 0 5.618 2.666l.844-3.802Z" fill="#F395E4"></path><path d="M41.502 24.725a14.767 14.767 0 0 0-3.868-6.016l-2.28 3.168a10.955 10.955 0 0 1 2.464 4.078 11.089 11.089 0 0 1-2.182 10.808 10.991 10.991 0 0 1-4.734 3.159 10.948 10.948 0 0 1-5.671.363l-.837 3.797c2.56.532 5.214.378 7.695-.449 2.48-.827 4.7-2.296 6.436-4.26a14.953 14.953 0 0 0 3.446-6.923 14.99 14.99 0 0 0-.469-7.727v.002Z" fill="#F395E4"></path><path d="M35.004 26.897a7.993 7.993 0 0 0-1.417-2.554l-2.437 3.385c.06.132.133.258.18.398a4.208 4.208 0 0 1-.23 3.192 4.179 4.179 0 0 1-2.407 2.098 4.114 4.114 0 0 1-1.97.14l-.837 3.798a7.916 7.916 0 0 0 4.033-.237 8.064 8.064 0 0 0 4.646-4.054 8.12 8.12 0 0 0 .44-6.166ZM25.434 37.268l.837-3.797a4.16 4.16 0 0 1-2.177-1.451 4.19 4.19 0 0 1-.134-4.98 4.163 4.163 0 0 1 2.096-1.567c.382-.122.78-.187 1.181-.192l2.538-3.527a7.927 7.927 0 0 0-4.943.019 8.037 8.037 0 0 0-4.07 3.066 8.096 8.096 0 0 0 .379 9.686 8.03 8.03 0 0 0 4.296 2.736l-.003.007Z" fill="#4B73FF"></path><path d="M91.764 21.018v6.883c-2.5-.404-6.045.607-6.045 4.613v9.147h-6.04V21.424h6.045v3.6c.806-2.71 3.504-4.006 6.04-4.006ZM113.377 21.424V41.66h-6.042v-1.898c-1.089 1.497-3.102 2.468-5.763 2.468-4.069 0-7.535-2.912-7.535-8.376V21.424h6.044V32.96c0 2.508 1.571 3.68 3.507 3.68 2.216 0 3.747-1.293 3.747-4.167V21.424h6.042ZM137.54 21.424v19.224c0 6.8-5.278 9.674-10.633 9.674-4.189 0-7.693-1.579-9.548-4.896l5.158-2.996c.766 1.424 1.933 2.55 4.593 2.55 2.819 0 4.554-1.458 4.554-4.332v-1.86c-1.331 1.66-3.266 2.629-5.884 2.629-5.72 0-9.924-4.694-9.924-10.279 0-5.584 4.192-10.279 9.924-10.279 2.618 0 4.553.971 5.884 2.63v-2.062l5.876-.003Zm-5.881 9.712c0-2.791-2.015-4.695-4.877-4.695-2.861 0-4.875 1.9-4.875 4.695 0 2.796 2.016 4.694 4.875 4.694s4.877-1.9 4.877-4.694ZM161.569 21.424v19.224c0 6.8-5.279 9.674-10.633 9.674-4.19 0-7.696-1.579-9.549-4.896l5.158-2.996c.766 1.424 1.933 2.55 4.594 2.55 2.819 0 4.553-1.458 4.553-4.332v-1.86c-1.33 1.66-3.265 2.629-5.884 2.629-5.72 0-9.924-4.694-9.924-10.279 0-5.584 4.192-10.279 9.924-10.279 2.619 0 4.554.971 5.884 2.63v-2.062l5.877-.003Zm-5.882 9.712c0-2.791-2.015-4.695-4.877-4.695-2.861 0-4.874 1.9-4.874 4.695 0 2.796 2.015 4.694 4.874 4.694 2.859 0 4.877-1.9 4.877-4.694ZM176.745 21.018v6.883c-2.497-.404-6.041.607-6.041 4.613v9.147h-6.045V21.424h6.045v3.6c.805-2.71 3.504-4.006 6.041-4.006ZM62.227 26.624v-5.2h3.044v-1.272c0-2.215.698-3.988 2.095-5.318 1.397-1.325 3.46-1.987 5.593-1.987 2.214 0 3.94.475 5.18 1.424l-2.413 4.604a2.628 2.628 0 0 0-1.817-.636c-1.53 0-2.293.768-2.292 2.305v.873h5.225v5.2h-5.227v15.035h-6.347V26.624h-3.04Z" fill="currentColor"></path></svg>