<svg class="hoverable" id="logo" width="2000" height="500" viewBox="0 0 2000 500" xmlns="http://www.w3.org/2000/svg"><g id="Gruppe"><path id="Pfad" stroke="none" d="M 758 199.559998 C 744.179993 191.319977 728.76001 187.199982 711.75 187.199982 C 694.73999 187.199982 679.320007 191.319977 665.5 199.559998 C 651.679993 207.799988 640.640015 218.839996 632.410034 232.649994 C 624.170044 246.470001 620.049988 261.890015 620.049988 278.899994 C 620.049988 295.910004 624.170044 311.330017 632.410034 325.150024 C 640.650024 338.969971 651.75 349.940002 665.700012 358.039978 C 679.660034 366.150024 695.01001 370.200012 711.75 370.200012 C 728.48999 370.200012 743.849976 366.150024 757.799988 358.039978 C 771.76001 349.929993 782.849976 338.969971 791.090027 325.150024 C 799.330017 311.330017 803.450012 295.910004 803.450012 278.899994 C 803.450012 261.890015 799.330017 246.470001 791.090027 232.649994 C 782.849976 218.829987 771.809998 207.799988 758 199.559998 Z M 766.969971 310.799988 C 761.25 320.369995 753.539978 328.01001 743.840027 333.72998 C 734.130005 339.450012 723.440002 342.299988 711.73999 342.299988 C 700.040039 342.299988 689.340027 339.450012 679.640015 333.72998 C 669.929993 328.02002 662.230042 320.369995 656.51001 310.799988 C 650.790039 301.22998 647.940002 290.599976 647.940002 278.899994 C 647.940002 267.200012 650.790039 256.169983 656.51001 246.599991 C 662.220032 237.029999 669.929993 229.389984 679.640015 223.669983 C 689.340027 217.959991 700.040039 215.099976 711.73999 215.099976 C 723.440002 215.099976 734.469971 217.959991 744.039978 223.669983 C 753.609985 229.389984 761.25 237.029999 766.969971 246.599991 C 772.679993 256.169983 775.539978 266.929993 775.539978 278.899994 C 775.539978 290.869995 772.679993 301.22998 766.969971 310.799988 Z"></path><path id="path1" stroke="none" d="M 978.890015 221.889984 C 971.179993 211.789978 961.809998 203.619995 950.780029 197.369995 C 939.75 191.130005 927.059998 188 912.700012 188 C 896.219971 188 881.530029 192.319977 868.640015 200.959991 C 855.73999 209.599976 845.640015 220.829987 838.340027 234.649994 C 831.030029 248.479996 827.380005 263.5 827.380005 279.709991 C 827.380005 295.919983 831.030029 310.609985 838.340027 324.570007 C 845.650024 338.529968 855.75 349.830017 868.640015 358.460022 C 881.530029 367.099976 896.210022 371.419983 912.700012 371.419983 C 922.27002 371.419983 931.099976 370.02002 939.219971 367.22998 C 947.320007 364.440002 954.700012 360.450012 961.349976 355.27002 C 967.98999 350.090027 973.840027 344.169983 978.890015 337.529968 L 978.890015 367.429993 L 1006.799988 367.429993 L 1006.799988 191.98999 L 978.890015 191.98999 L 978.890015 221.889984 Z M 970.909973 311 C 965.590027 320.710022 958.280029 328.539978 948.97998 334.52002 C 939.669983 340.5 929.039978 343.48999 917.080017 343.48999 C 905.119995 343.48999 894.47998 340.5 885.179993 334.52002 C 875.869995 328.539978 868.559998 320.700012 863.25 311 C 857.929993 301.299988 855.280029 290.859985 855.280029 279.700012 C 855.280029 268.539978 857.929993 257.77002 863.25 248.199997 C 868.559998 238.630005 875.869995 230.859985 885.179993 224.869995 C 894.47998 218.889984 905.119995 215.899994 917.080017 215.899994 C 929.039978 215.899994 939.669983 218.889984 948.97998 224.869995 C 958.280029 230.849976 965.590027 238.630005 970.909973 248.199997 C 976.219971 257.77002 978.880005 268.27002 978.880005 279.700012 C 978.880005 291.130005 976.219971 301.299988 970.909973 311 Z"></path><path id="path2" stroke="none" d="M 1185.820068 191.589996 L 1148.73999 191.589996 L 1084.540039 270.529999 L 1084.540039 68.380005 L 1056.630005 68.380005 L 1056.630005 367.419983 L 1084.540039 367.419983 L 1084.540039 283.289978 L 1153.52002 367.419983 L 1190.599976 367.419983 L 1113.650024 276.910004 L 1185.820068 191.589996 Z"></path><path id="path3" stroke="none" d="M 1220.5 68.380005 L 1248.410034 68.380005 L 1248.410034 367.419983 L 1220.5 367.419983 Z"></path><path id="path4" stroke="none" d="M 1423.439941 199.559998 C 1409.619995 191.319977 1394.459961 187.199982 1377.98999 187.199982 C 1361.52002 187.199982 1345.560059 191.319977 1331.73999 199.559998 C 1317.910034 207.799988 1306.880005 218.839996 1298.650024 232.649994 C 1290.410034 246.470001 1286.290039 261.890015 1286.290039 278.899994 C 1286.290039 297.23999 1290.680054 313.26001 1299.449951 326.950012 C 1308.219971 340.640015 1319.849976 351.27002 1334.339966 358.849976 C 1348.819946 366.429993 1364.839966 370.210022 1382.390015 370.210022 C 1391.420044 370.210022 1400.589966 368.809998 1409.900024 366.02002 C 1419.199951 363.22998 1428.040039 359.109985 1436.410034 353.659973 C 1444.780029 348.210022 1451.890015 341.77002 1457.73999 334.320007 L 1436.609985 316.779968 C 1431.829956 322.630005 1426.439941 327.409973 1420.459961 331.130005 C 1414.47998 334.859985 1407.959961 337.650024 1400.920044 339.5 C 1393.869995 341.359985 1386.22998 342.289978 1377.98999 342.289978 C 1367.359985 342.289978 1357.26001 339.77002 1347.689941 334.710022 C 1338.119995 329.659973 1330.280029 322.549988 1324.170044 313.380005 C 1319.280029 306.049988 1316.349976 297.73999 1315.369995 288.459991 L 1469.699951 288.459991 L 1469.699951 277.289978 C 1469.699951 260.809998 1465.449951 245.789993 1456.939941 232.23999 C 1448.430054 218.679993 1437.27002 207.789978 1423.449951 199.539978 Z M 1317.219971 262.559998 C 1318.540039 257.299988 1320.449951 252.309998 1322.959961 247.610001 C 1328.27002 237.639984 1335.650024 229.73999 1345.089966 223.889984 C 1354.52002 218.049988 1365.48999 215.119995 1377.97998 215.119995 C 1393.130005 215.119995 1406.48999 219.699982 1418.050049 228.880005 C 1429.609985 238.049988 1436.98999 249.279999 1440.180054 262.570007 L 1317.209961 262.570007 Z"></path><path id="path5" stroke="none" d="M 1647.119995 221.889984 C 1639.410034 211.789978 1630.040039 203.619995 1619.01001 197.369995 C 1607.97998 191.130005 1595.290039 188 1580.930054 188 C 1564.449951 188 1549.76001 192.319977 1536.869995 200.959991 C 1523.969971 209.599976 1513.869995 220.829987 1506.569946 234.649994 C 1499.26001 248.479996 1495.609985 263.5 1495.609985 279.709991 C 1495.609985 295.919983 1499.26001 310.609985 1506.569946 324.570007 C 1513.880005 338.529968 1523.97998 349.830017 1536.869995 358.460022 C 1549.76001 367.099976 1564.439941 371.419983 1580.930054 371.419983 C 1590.5 371.419983 1599.329956 370.02002 1607.439941 367.22998 C 1615.550049 364.440002 1622.920044 360.450012 1629.569946 355.27002 C 1636.209961 350.090027 1642.060059 344.169983 1647.109985 337.529968 L 1647.109985 367.429993 L 1675.02002 367.429993 L 1675.02002 191.98999 L 1647.109985 191.98999 L 1647.109985 221.889984 Z M 1639.150024 311 C 1633.829956 320.710022 1626.52002 328.539978 1617.219971 334.52002 C 1607.910034 340.5 1597.280029 343.48999 1585.319946 343.48999 C 1573.359985 343.48999 1562.719971 340.5 1553.420044 334.52002 C 1544.109985 328.539978 1536.800049 320.700012 1531.48999 311 C 1526.170044 301.299988 1523.52002 290.859985 1523.52002 279.700012 C 1523.52002 268.539978 1526.170044 257.77002 1531.48999 248.199997 C 1536.800049 238.630005 1544.109985 230.859985 1553.420044 224.869995 C 1562.719971 218.889984 1573.359985 215.899994 1585.319946 215.899994 C 1597.280029 215.899994 1607.910034 218.889984 1617.219971 224.869995 C 1626.52002 230.849976 1633.829956 238.630005 1639.150024 248.199997 C 1644.459961 257.77002 1647.119995 268.27002 1647.119995 279.700012 C 1647.119995 291.130005 1644.459961 301.299988 1639.150024 311 Z"></path><path id="path6" stroke="none" d="M 1870.400024 220.089996 C 1865.349976 209.859985 1858.040039 202.019989 1848.469971 196.569977 C 1838.900024 191.119995 1827.199951 188.399994 1813.380005 188.399994 C 1800.349976 188.399994 1789.060059 191.660004 1779.48999 198.169983 C 1769.920044 204.690002 1762.349976 212.720001 1756.76001 222.289978 L 1756.76001 191.98999 L 1728.849976 191.98999 L 1728.849976 367.429993 L 1756.76001 367.429993 L 1756.76001 294.070007 C 1756.76001 279.720001 1758.75 266.630005 1762.73999 254.800003 C 1766.72998 242.97998 1773.109985 233.609985 1781.880005 226.690002 C 1790.650024 219.779999 1802.209961 216.319977 1816.569946 216.319977 C 1825.069946 216.319977 1831.780029 218.309998 1836.709961 222.299988 C 1841.630005 226.289978 1845.079956 231.470001 1847.079956 237.849976 C 1849.069946 244.229996 1850.069946 250.880005 1850.069946 257.789978 L 1850.069946 367.440002 L 1877.97998 367.440002 L 1877.97998 257.789978 C 1877.97998 242.910004 1875.449951 230.349976 1870.400024 220.109985 Z"></path></g><g id="g1"><path id="path7" stroke="none" d="M 292.420013 92.170013 C 198.449997 92.170013 122 168.619995 122 262.589996 C 122 356.559998 198.449997 433.01001 292.420013 433.01001 C 386.390015 433.01001 462.839996 356.559998 462.839996 262.589996 C 462.839996 168.619995 386.380005 92.170013 292.420013 92.170013 Z M 292.420013 410 C 211.130005 410 145 343.869995 145 262.580017 C 145 181.290009 211.130005 115.170013 292.420013 115.170013 C 373.710022 115.170013 439.839996 181.300018 439.839996 262.589996 C 439.839996 343.880005 373.710022 410.01001 292.420013 410.01001 Z"></path><path id="path8" stroke="none" d="M 355.449982 187.860016 C 340.25 176.440002 322.609985 169.529999 303.919983 167.559998 L 303.919983 147.850006 L 280.919983 147.850006 L 280.919983 167.640015 C 239.259995 172.399994 203.639999 202.070007 192.080002 243.070007 C 192.050003 243.179993 192.019989 243.290009 191.98999 243.399994 C 191.059998 247.099991 192.039993 251.009995 194.559998 253.839996 C 197.009995 256.599976 200.509995 258.970001 204.759995 261 C 210.039993 310.220001 241.23999 353.400024 287.600006 374.859985 C 289.130005 375.570007 290.779999 375.919983 292.429993 375.919983 C 294.079987 375.919983 295.72998 375.570007 297.259979 374.859985 C 344.190002 353.140015 375.470001 309.359985 380.25 259.47998 C 384.529999 257.200012 387.899994 254.639999 390.380005 251.770004 C 392.980011 248.779999 393.859985 244.649994 392.690002 240.860016 C 386.279999 219.910004 373.049988 201.089996 355.449982 187.860016 Z M 292.709991 189.950012 C 310.519989 189.950012 327.440002 195.589996 341.639984 206.25 C 353.209991 214.950012 362.359985 226.730011 367.949982 239.990021 C 358.389984 244.419998 336.75 249.369995 301.029999 250.220001 C 280.070007 250.720001 259.070007 249.619995 241.910004 247.130005 C 228.849991 245.240005 221.23999 243.02002 216.940002 241.309998 C 229.149994 210.690002 259.199982 189.940002 292.720001 189.940002 Z M 292.419983 351.619995 C 259.139984 334.459991 235.98999 303.73999 229.080002 268.339996 C 251.949997 272.75 278.889984 273.330017 291.47998 273.330017 C 292.079987 273.330017 292.660004 273.330017 293.190002 273.330017 C 314.47998 273.23999 334.220001 271.649994 350.279999 268.72998 C 352.220001 268.380005 354.079987 268 355.889984 267.619995 C 349.179993 303.339996 325.97998 334.330017 292.419983 351.630005 Z"></path></g></svg>