<svg width="129px" height="38px" viewBox="0 0 129 38" version="1.1"><g stroke="none" stroke-width="1" fill="none" fill-rule="evenodd"><g fill="#22d6b2"><path class="logo__txt" d="M51.7117173,29.0643253 C51.078384,29.1641387 49.7108907,29.2644587 48.5105973,29.2644587 C45.3758507,29.2644587 43.574144,28.230352 43.574144,24.6284587 L43.574144,7.420032 C43.574144,7.08664533 43.8745973,6.853072 44.2419307,6.786192 L45.875424,6.51917867 L45.942304,6.51917867 C46.2756907,6.51917867 46.509264,6.819632 46.509264,7.15352533 L46.509264,10.688032 L51.7117173,10.688032 C52.0790507,10.688032 52.3455573,10.9216053 52.3455573,11.2889387 L52.3455573,12.4228587 C52.3455573,12.7557387 52.0790507,13.022752 51.7117173,13.022752 L46.509264,13.022752 L46.509264,24.6284587 C46.509264,26.562912 47.1425973,26.8968053 48.9772373,26.8968053 L51.678784,26.8968053 C52.145424,26.8968053 52.3784907,27.029552 52.3784907,27.3634453 L52.3784907,28.4973653 C52.3784907,28.7978187 52.212304,28.9974453 51.7117173,29.0643253"></path><path class="logo__txt" d="M70.061056,29.0306827 L67.759776,29.0306827 C67.5262027,29.0306827 67.426896,28.9638027 67.2926293,28.764176 L62.5238827,21.7939627 L57.755136,28.697296 C57.554496,28.9977493 57.4881227,29.0306827 57.1886827,29.0306827 L55.1873493,29.0306827 C54.9198293,29.0306827 54.7870827,28.8974293 54.7870827,28.697296 C54.7870827,28.5974827 54.820016,28.4302827 54.953776,28.2635893 L60.956256,19.692816 L55.286656,11.5218027 C55.1873493,11.3551093 55.1204693,11.221856 55.1204693,11.0886027 C55.1204693,10.8550293 55.320096,10.688336 55.6205493,10.688336 L57.7880693,10.688336 C58.0550827,10.688336 58.221776,10.7881493 58.4553493,11.1554827 L62.690576,17.4254827 L66.9592427,11.1554827 C67.259696,10.721776 67.360016,10.688336 67.6599627,10.688336 L69.5939093,10.688336 C69.860416,10.688336 70.0281227,10.8550293 70.0281227,11.0886027 C70.0281227,11.221856 69.9612427,11.3551093 69.860416,11.5218027 L64.2582027,19.4926827 L70.3610027,28.2635893 C70.4613227,28.3968427 70.494256,28.5311093 70.494256,28.663856 C70.494256,28.8639893 70.3944427,29.0306827 70.061056,29.0306827"></path><path class="logo__txt" d="M81.3868293,29.0643253 C80.753496,29.1641387 79.3860027,29.2644587 78.1857093,29.2644587 C75.050456,29.2644587 73.2497627,28.230352 73.2497627,24.6284587 L73.2497627,7.420032 C73.2497627,7.08664533 73.5497093,6.853072 73.916536,6.786192 L75.5510427,6.51917867 L75.617416,6.51917867 C75.9508027,6.51917867 76.184376,6.819632 76.184376,7.15352533 L76.184376,10.688032 L81.3868293,10.688032 C81.7541627,10.688032 82.0206693,10.9216053 82.0206693,11.2889387 L82.0206693,12.4228587 C82.0206693,12.7557387 81.7541627,13.022752 81.3868293,13.022752 L76.184376,13.022752 L76.184376,24.6284587 C76.184376,26.562912 76.8177093,26.8968053 78.652856,26.8968053 L81.3533893,26.8968053 C81.820536,26.8968053 82.0541093,27.029552 82.0541093,27.3634453 L82.0541093,28.4973653 C82.0541093,28.7978187 81.887416,28.9974453 81.3868293,29.0643253"></path><path class="logo__txt" d="M92.2588827,29.2642053 L91.958936,29.2642053 C89.691096,29.2642053 85.0890427,27.997032 85.0890427,21.4265787 L85.0890427,11.3550587 C85.0890427,10.9887387 85.322616,10.6882853 85.688936,10.6882853 L87.423256,10.6882853 C87.7905893,10.6882853 88.0241627,10.9887387 88.0241627,11.3550587 L88.0241627,21.4265787 C88.0241627,25.4287387 89.724536,26.6964187 91.958936,26.6964187 L92.2588827,26.6964187 C94.4932827,26.6964187 96.1946693,25.4287387 96.1946693,21.4265787 L96.1946693,11.3550587 C96.1946693,10.9887387 96.4282427,10.6882853 96.7945627,10.6882853 L98.5288827,10.6882853 C98.896216,10.6882853 99.1297893,10.9887387 99.1297893,11.3550587 L99.1297893,21.4265787 C99.1297893,27.997032 94.5272293,29.2642053 92.2588827,29.2642053"></path><path class="logo__txt" d="M110.902139,13.0226507 C108.634299,13.0226507 107.534325,13.0895307 106.266645,13.3560373 L106.266645,28.363504 C106.266645,28.6973973 106.033072,29.030784 105.665739,29.030784 L103.931925,29.030784 C103.598539,29.030784 103.332032,28.7308373 103.332032,28.363504 L103.332032,12.155744 C103.332032,11.7889173 103.565605,11.555344 103.931925,11.3886507 C105.832939,10.5546773 108.134219,10.4553707 110.902139,10.4553707 C111.335339,10.4553707 111.602352,10.488304 111.602352,10.954944 L111.602352,12.4891307 C111.602352,12.8559573 111.535979,13.0226507 110.902139,13.0226507"></path><path class="logo__txt" d="M125.575661,18.392152 C125.575661,14.8236987 124.141795,13.0224987 121.207688,13.0224987 C118.339448,13.0224987 116.738381,14.956952 116.738381,18.392152 L116.738381,18.559352 L125.575661,18.559352 L125.575661,18.392152 Z M127.910381,20.7932453 L116.738381,20.7932453 L116.738381,21.193512 C116.738381,25.0289787 118.539075,26.7967387 121.606941,26.7967387 C123.541395,26.7967387 125.776301,26.5626587 127.309981,26.329592 L127.476675,26.329592 C127.743688,26.329592 128.011208,26.4628453 128.011208,26.7967387 L128.011208,27.930152 C128.011208,28.3638587 127.876941,28.597432 127.343421,28.6972453 C125.442915,29.064072 123.841848,29.2642053 121.606941,29.2642053 C117.772488,29.2642053 113.803768,27.430072 113.803768,21.0268187 L113.803768,18.6926053 C113.803768,13.956792 116.438435,10.4552187 121.207688,10.4552187 C126.076248,10.4552187 128.544221,13.923352 128.544221,18.6591653 L128.544221,20.059592 C128.544221,20.4932987 128.310648,20.7932453 127.910381,20.7932453 L127.910381,20.7932453 Z"></path><path class="logo__icon" d="M6.97659733,21.6854853 L3.30377067,19.5650853 C2.85233067,19.3046587 2.85233067,18.8826053 3.30377067,18.6221787 L6.97659733,16.5017787 L11.465664,19.0938853 L12.297104,19.5742053 L13.1290507,20.0540187 L14.5249173,20.8601253 C14.9991573,21.1337253 15.5686507,21.2781253 16.173104,21.2781253 C16.778064,21.2781253 17.3485707,21.1337253 17.8217973,20.8601253 L19.2181707,20.0540187 L20.0501173,19.5742053 L20.8810507,19.0933787 L25.3711307,16.5017787 L29.0434507,18.6221787 C29.494384,18.8826053 29.494384,19.3046587 29.0434507,19.5650853 L25.3711307,21.6854853 L24.539184,22.1658053 L23.7072373,22.6461253 L16.9903573,26.524152 C16.764384,26.6543653 16.4689973,26.7197253 16.173104,26.7197253 C15.8777173,26.7197253 15.5823307,26.6543653 15.356864,26.524152 L8.63947733,22.6461253 L7.80803733,22.1658053 L6.97659733,21.6854853 Z M16.173104,4.36356533 C16.4689973,4.36356533 16.764384,4.42841867 16.9903573,4.55913867 L29.0434507,11.5176987 C29.494384,11.7781253 29.494384,12.2001787 29.0434507,12.4606053 L25.3711307,14.5810053 L24.539184,15.0613253 L23.7072373,15.5416453 L19.2181707,18.1332453 L18.3867307,18.6135653 L17.554784,19.0933787 L16.9903573,19.419672 C16.764384,19.5498853 16.4689973,19.6152453 16.173104,19.6152453 C15.8777173,19.6152453 15.5823307,19.5498853 15.356864,19.419672 L14.7924373,19.0933787 L13.9604907,18.6135653 L13.1290507,18.1332453 L8.63947733,15.5416453 L7.80803733,15.0613253 L6.97659733,14.5810053 L3.30377067,12.4606053 C2.85233067,12.2001787 2.85233067,11.7781253 3.30377067,11.5176987 L15.356864,4.55913867 C15.5823307,4.42841867 15.8777173,4.36356533 16.173104,4.36356533 L16.173104,4.36356533 Z M16.173104,33.8236987 C15.8777173,33.8236987 15.5823307,33.7588453 15.356864,33.628632 L3.30377067,26.6695653 C2.85233067,26.4091387 2.85233067,25.9870853 3.30377067,25.7266587 L6.97659733,23.6062587 L14.5249173,27.965112 C14.9991573,28.2382053 15.5691573,28.3826053 16.173104,28.3826053 C16.778064,28.3826053 17.348064,28.2382053 17.8212907,27.965112 L25.3711307,23.6062587 L29.0434507,25.7266587 C29.494384,25.9870853 29.494384,26.4091387 29.0434507,26.6695653 L16.9903573,33.628632 C16.764384,33.7588453 16.4689973,33.8236987 16.173104,33.8236987 L16.173104,33.8236987 Z M31.9618507,9.475832 L16.6453173,0.632978667 C16.3534773,0.464765333 15.9942507,0.464765333 15.7024107,0.632978667 L0.385370667,9.475832 C0.147237333,9.61364533 -0.000202666667,9.867992 -0.000202666667,10.1436187 L-0.000202666667,27.928632 C-0.000202666667,28.2042587 0.147237333,28.459112 0.385370667,28.5969253 L15.7880373,37.489432 C16.0261707,37.6272453 16.3200373,37.6272453 16.559184,37.489432 L31.9618507,28.5969253 C32.199984,28.459112 32.3469173,28.2042587 32.3469173,27.9291387 L32.3469173,10.1436187 C32.3469173,9.86849867 32.199984,9.61364533 31.9618507,9.475832 L31.9618507,9.475832 Z"></path></g></g></svg>