<svg xmlns="http://www.w3.org/2000/svg" viewBox="0 10.905034107337714 304.9557395061899 40.11755405104778" data-asc="1.0087890625"><g fill="#000000"><g fill="#000000" transform="translate(0, 0)"><path d="M20.09 10.91L25.98 50.44L15.45 50.44L14.94 43.33L11.25 43.33L10.64 50.44L0 50.44L5.22 10.91L20.09 10.91M14.65 36.33Q13.87 29.61 13.09 19.75Q11.52 31.08 11.13 36.33L14.65 36.33ZM38.01 10.91L38.01 50.44L27.73 50.44L27.73 10.91L38.01 10.91ZM50.95 10.91L61.30 10.91Q65.50 10.91 67.76 11.57Q70.02 12.23 71.15 13.48Q72.29 14.72 72.69 16.49Q73.10 18.26 73.10 21.97L73.10 25.42Q73.10 29.20 72.31 30.93Q71.53 32.67 69.45 33.59Q67.36 34.52 63.99 34.52L61.23 34.52L61.23 50.44L50.95 50.44L50.95 10.91M61.23 17.68L61.23 27.73Q61.67 27.76 61.99 27.76Q63.40 27.76 63.95 27.06Q64.50 26.37 64.50 24.17L64.50 20.92Q64.50 18.90 63.87 18.29Q63.23 17.68 61.23 17.68ZM98.07 29.42L98.07 37.35Q98.07 41.72 97.63 43.76Q97.19 45.80 95.75 47.57Q94.31 49.34 92.05 50.18Q89.79 51.03 86.87 51.03Q83.59 51.03 81.32 50.31Q79.05 49.58 77.80 48.13Q76.54 46.68 76.00 44.62Q75.46 42.55 75.46 38.43L75.46 30.13Q75.46 25.61 76.44 23.07Q77.42 20.53 79.96 18.99Q82.50 17.46 86.45 17.46Q89.77 17.46 92.15 18.44Q94.53 19.43 95.83 21.02Q97.12 22.61 97.60 24.29Q98.07 25.98 98.07 29.42M88.21 26.98Q88.21 24.49 87.94 23.84Q87.67 23.19 86.79 23.19Q85.91 23.19 85.62 23.84Q85.33 24.49 85.33 26.98L85.33 41.60Q85.33 43.90 85.62 44.59Q85.91 45.29 86.77 45.29Q87.65 45.29 87.93 44.65Q88.21 44.02 88.21 41.92L88.21 26.98ZM133.18 18.04L129.25 50.44L118.53 50.44Q117.65 44.51 116.50 34.81Q116.11 39.06 115.41 43.41L114.31 50.44L103.59 50.44L99.41 18.04L107.91 18.04Q108.01 19.31 110.06 36.57Q110.21 34.81 112.26 18.04L120.43 18.04L122.44 36.57Q122.90 28.47 124.68 18.04L133.18 18.04ZM157.13 34.81L144.36 34.81L144.36 41.82Q144.36 44.02 144.68 44.65Q145.00 45.29 145.90 45.29Q147.02 45.29 147.40 44.45Q147.78 43.60 147.78 41.19L147.78 36.91L157.13 36.91L157.13 39.31Q157.13 42.31 156.75 43.92Q156.37 45.53 154.98 47.36Q153.59 49.19 151.45 50.11Q149.32 51.03 146.09 51.03Q142.97 51.03 140.58 50.12Q138.18 49.22 136.85 47.64Q135.52 46.07 135.01 44.18Q134.50 42.29 134.50 38.67L134.50 29.22Q134.50 24.98 135.64 22.52Q136.79 20.07 139.40 18.76Q142.02 17.46 145.41 17.46Q149.56 17.46 152.26 19.03Q154.96 20.61 156.04 23.21Q157.13 25.81 157.13 30.52L157.13 34.81M147.24 29.54L147.24 27.17Q147.24 24.66 146.97 23.93Q146.70 23.19 145.87 23.19Q144.85 23.19 144.60 23.82Q144.36 24.44 144.36 27.17L144.36 29.54L147.24 29.54ZM170.21 18.04L169.82 22.29Q171.97 17.72 176.05 17.46L176.05 28.86Q173.34 28.86 172.07 29.59Q170.80 30.32 170.51 31.63Q170.21 32.93 170.21 37.65L170.21 50.44L160.35 50.44L160.35 18.04L170.21 18.04ZM219.07 10.91L219.07 50.44L210.08 50.44L210.08 23.75L206.49 50.44L200.12 50.44L196.34 24.37L196.34 50.44L187.35 50.44L187.35 10.91L200.66 10.91Q201.25 14.48 201.90 19.31L203.32 29.37L205.66 10.91L219.07 10.91ZM245.24 34.81L232.47 34.81L232.47 41.82Q232.47 44.02 232.79 44.65Q233.11 45.29 234.01 45.29Q235.13 45.29 235.51 44.45Q235.89 43.60 235.89 41.19L235.89 36.91L245.24 36.91L245.24 39.31Q245.24 42.31 244.86 43.92Q244.48 45.53 243.09 47.36Q241.70 49.19 239.56 50.11Q237.43 51.03 234.20 51.03Q231.08 51.03 228.69 50.12Q226.29 49.22 224.96 47.64Q223.63 46.07 223.12 44.18Q222.61 42.29 222.61 38.67L222.61 29.22Q222.61 24.98 223.75 22.52Q224.90 20.07 227.51 18.76Q230.13 17.46 233.52 17.46Q237.67 17.46 240.37 19.03Q243.07 20.61 244.15 23.21Q245.24 25.81 245.24 30.52L245.24 34.81M235.35 29.54L235.35 27.17Q235.35 24.66 235.08 23.93Q234.81 23.19 233.98 23.19Q232.96 23.19 232.71 23.82Q232.47 24.44 232.47 27.17L232.47 29.54L235.35 29.54ZM258.86 13.72L258.86 18.82L261.52 18.82L261.52 23.95L258.86 23.95L258.86 41.28Q258.86 44.48 259.19 44.85Q259.52 45.21 261.94 45.21L261.94 50.44L257.96 50.44Q254.59 50.44 253.15 50.16Q251.71 49.88 250.61 48.86Q249.51 47.85 249.24 46.55Q248.97 45.24 248.97 40.41L248.97 23.95L246.85 23.95L246.85 18.82L248.97 18.82L248.97 13.72L258.86 13.72ZM286.04 34.81L273.27 34.81L273.27 41.82Q273.27 44.02 273.58 44.65Q273.90 45.29 274.80 45.29Q275.93 45.29 276.31 44.45Q276.68 43.60 276.68 41.19L276.68 36.91L286.04 36.91L286.04 39.31Q286.04 42.31 285.66 43.92Q285.28 45.53 283.89 47.36Q282.50 49.19 280.36 50.11Q278.22 51.03 275 51.03Q271.88 51.03 269.48 50.12Q267.09 49.22 265.76 47.64Q264.43 46.07 263.92 44.18Q263.40 42.29 263.40 38.67L263.40 29.22Q263.40 24.98 264.55 22.52Q265.70 20.07 268.31 18.76Q270.92 17.46 274.32 17.46Q278.47 17.46 281.16 19.03Q283.86 20.61 284.95 23.21Q286.04 25.81 286.04 30.52L286.04 34.81M276.15 29.54L276.15 27.17Q276.15 24.66 275.88 23.93Q275.61 23.19 274.78 23.19Q273.75 23.19 273.51 23.82Q273.27 24.44 273.27 27.17L273.27 29.54L276.15 29.54ZM299.12 18.04L298.73 22.29Q300.88 17.72 304.96 17.46L304.96 28.86Q302.25 28.86 300.98 29.59Q299.71 30.32 299.41 31.63Q299.12 32.93 299.12 37.65L299.12 50.44L289.26 50.44L289.26 18.04L299.12 18.04Z"/></g></g></svg>