<svg xmlns="http://www.w3.org/2000/svg" viewBox="0 10.07948587560665 296.6794579553568 41.18606085079281" data-asc="1.0087890625"><g fill="#000000"><g fill="#000000" transform="translate(0, 0)"><path d="M24.29 28.15L14.01 28.15L14.01 21.26Q14.01 18.26 13.68 17.52Q13.35 16.77 12.23 16.77Q10.96 16.77 10.62 17.68Q10.28 18.58 10.28 21.58L10.28 39.94Q10.28 42.82 10.62 43.70Q10.96 44.58 12.16 44.58Q13.31 44.58 13.66 43.70Q14.01 42.82 14.01 39.58L14.01 34.62L24.29 34.62L24.29 36.16Q24.29 42.29 23.43 44.85Q22.56 47.41 19.59 49.34Q16.63 51.27 12.28 51.27Q7.76 51.27 4.83 49.63Q1.90 48.00 0.95 45.10Q0 42.21 0 36.40L0 24.85Q0 20.58 0.29 18.44Q0.59 16.31 2.04 14.33Q3.49 12.35 6.07 11.22Q8.64 10.08 11.99 10.08Q16.53 10.08 19.48 11.84Q22.44 13.60 23.36 16.22Q24.29 18.85 24.29 24.39L24.29 28.15ZM36.50 30.59L27.25 30.59L27.25 28.42Q27.25 24.66 28.11 22.62Q28.98 20.58 31.59 19.02Q34.20 17.46 38.38 17.46Q43.38 17.46 45.92 19.23Q48.46 21.00 48.97 23.57Q49.49 26.15 49.49 34.18L49.49 50.44L39.89 50.44L39.89 47.56Q38.99 49.29 37.56 50.16Q36.13 51.03 34.16 51.03Q31.57 51.03 29.41 49.57Q27.25 48.12 27.25 43.21L27.25 40.55Q27.25 36.91 28.39 35.60Q29.54 34.28 34.08 32.52Q38.94 30.62 39.28 29.96Q39.62 29.30 39.62 27.27Q39.62 24.73 39.25 23.96Q38.87 23.19 37.99 23.19Q36.99 23.19 36.74 23.84Q36.50 24.49 36.50 27.20L36.50 30.59M39.62 35.03Q37.26 36.77 36.88 37.94Q36.50 39.11 36.50 41.31Q36.50 43.82 36.83 44.56Q37.16 45.29 38.13 45.29Q39.06 45.29 39.34 44.71Q39.62 44.14 39.62 41.70L39.62 35.03ZM62.74 18.04L62.35 22.29Q64.50 17.72 68.58 17.46L68.58 28.86Q65.87 28.86 64.60 29.59Q63.33 30.32 63.04 31.63Q62.74 32.93 62.74 37.65L62.74 50.44L52.88 50.44L52.88 18.04L62.74 18.04ZM80.64 10.91L80.64 20.26Q81.86 18.85 83.36 18.15Q84.86 17.46 86.62 17.46Q88.65 17.46 90.14 18.09Q91.63 18.73 92.41 19.87Q93.19 21.02 93.35 22.12Q93.51 23.22 93.51 26.81L93.51 41.41Q93.51 44.97 93.03 46.72Q92.55 48.46 90.80 49.74Q89.04 51.03 86.62 51.03Q84.89 51.03 83.39 50.27Q81.88 49.51 80.64 48.00L80.00 50.44L70.78 50.44L70.78 10.91L80.64 10.91M83.64 27.25Q83.64 24.73 83.33 23.96Q83.01 23.19 82.08 23.19Q81.18 23.19 80.91 23.86Q80.64 24.54 80.64 27.25L80.64 41.21Q80.64 43.82 80.94 44.56Q81.25 45.29 82.15 45.29Q83.08 45.29 83.36 44.53Q83.64 43.77 83.64 40.89L83.64 27.25ZM119.07 29.42L119.07 37.35Q119.07 41.72 118.63 43.76Q118.19 45.80 116.75 47.57Q115.31 49.34 113.05 50.18Q110.79 51.03 107.86 51.03Q104.59 51.03 102.32 50.31Q100.05 49.58 98.79 48.13Q97.53 46.68 97.00 44.62Q96.46 42.55 96.46 38.43L96.46 30.13Q96.46 25.61 97.44 23.07Q98.41 20.53 100.95 18.99Q103.49 17.46 107.45 17.46Q110.77 17.46 113.15 18.44Q115.53 19.43 116.82 21.02Q118.12 22.61 118.59 24.29Q119.07 25.98 119.07 29.42M109.20 26.98Q109.20 24.49 108.94 23.84Q108.67 23.19 107.79 23.19Q106.91 23.19 106.62 23.84Q106.32 24.49 106.32 26.98L106.32 41.60Q106.32 43.90 106.62 44.59Q106.91 45.29 107.76 45.29Q108.64 45.29 108.92 44.65Q109.20 44.02 109.20 41.92L109.20 26.98ZM132.35 18.04L132.18 21.02Q133.25 19.24 134.80 18.35Q136.35 17.46 138.38 17.46Q140.92 17.46 142.53 18.65Q144.14 19.85 144.60 21.67Q145.07 23.49 145.07 27.73L145.07 50.44L135.21 50.44L135.21 28.00Q135.21 24.66 134.99 23.93Q134.77 23.19 133.76 23.19Q132.71 23.19 132.45 24.04Q132.18 24.88 132.18 28.54L132.18 50.44L122.31 50.44L122.31 18.04L132.35 18.04ZM158.86 13.72L158.86 18.82L161.52 18.82L161.52 23.95L158.86 23.95L158.86 41.28Q158.86 44.48 159.19 44.85Q159.52 45.21 161.94 45.21L161.94 50.44L157.96 50.44Q154.59 50.44 153.15 50.16Q151.71 49.88 150.61 48.86Q149.51 47.85 149.24 46.55Q148.97 45.24 148.97 40.41L148.97 23.95L146.85 23.95L146.85 18.82L148.97 18.82L148.97 13.72L158.86 13.72ZM173.56 18.04L173.17 22.29Q175.32 17.72 179.39 17.46L179.39 28.86Q176.68 28.86 175.42 29.59Q174.15 30.32 173.85 31.63Q173.56 32.93 173.56 37.65L173.56 50.44L163.70 50.44L163.70 18.04L173.56 18.04ZM190.41 30.59L181.15 30.59L181.15 28.42Q181.15 24.66 182.02 22.62Q182.89 20.58 185.50 19.02Q188.11 17.46 192.29 17.46Q197.29 17.46 199.83 19.23Q202.37 21.00 202.88 23.57Q203.39 26.15 203.39 34.18L203.39 50.44L193.80 50.44L193.80 47.56Q192.90 49.29 191.47 50.16Q190.04 51.03 188.06 51.03Q185.47 51.03 183.31 49.57Q181.15 48.12 181.15 43.21L181.15 40.55Q181.15 36.91 182.30 35.60Q183.45 34.28 187.99 32.52Q192.85 30.62 193.19 29.96Q193.53 29.30 193.53 27.27Q193.53 24.73 193.15 23.96Q192.77 23.19 191.89 23.19Q190.89 23.19 190.65 23.84Q190.41 24.49 190.41 27.20L190.41 30.59M193.53 35.03Q191.16 36.77 190.78 37.94Q190.41 39.11 190.41 41.31Q190.41 43.82 190.73 44.56Q191.06 45.29 192.04 45.29Q192.97 45.29 193.25 44.71Q193.53 44.14 193.53 41.70L193.53 35.03ZM228.59 30.27L219.29 30.27L219.29 26.54Q219.29 24.58 218.97 23.89Q218.65 23.19 217.80 23.19Q216.94 23.19 216.65 23.80Q216.36 24.41 216.36 26.54L216.36 41.82Q216.36 43.55 216.80 44.42Q217.24 45.29 218.09 45.29Q219.09 45.29 219.45 44.38Q219.80 43.48 219.80 40.97L219.80 37.11L228.59 37.11Q228.56 40.99 228.31 42.93Q228.05 44.87 226.67 46.91Q225.29 48.95 223.07 49.99Q220.85 51.03 217.58 51.03Q213.40 51.03 210.96 49.60Q208.52 48.17 207.51 45.59Q206.49 43.02 206.49 38.28L206.49 29.08Q206.49 24.95 207.32 22.85Q208.15 20.75 210.86 19.10Q213.57 17.46 217.46 17.46Q221.31 17.46 224.05 19.09Q226.78 20.73 227.69 23.22Q228.59 25.71 228.59 30.27ZM252.76 18.04L248.75 30.96L253.96 50.44L244.46 50.44L241.38 36.33L241.38 50.44L231.52 50.44L231.52 10.91L241.38 10.91L241.38 27.51L244.46 18.04L252.76 18.04ZM277.76 34.81L264.99 34.81L264.99 41.82Q264.99 44.02 265.31 44.65Q265.63 45.29 266.53 45.29Q267.65 45.29 268.03 44.45Q268.41 43.60 268.41 41.19L268.41 36.91L277.76 36.91L277.76 39.31Q277.76 42.31 277.38 43.92Q277.00 45.53 275.61 47.36Q274.22 49.19 272.08 50.11Q269.95 51.03 266.72 51.03Q263.60 51.03 261.21 50.12Q258.81 49.22 257.48 47.64Q256.15 46.07 255.64 44.18Q255.13 42.29 255.13 38.67L255.13 29.22Q255.13 24.98 256.27 22.52Q257.42 20.07 260.03 18.76Q262.65 17.46 266.04 17.46Q270.19 17.46 272.89 19.03Q275.59 20.61 276.67 23.21Q277.76 25.81 277.76 30.52L277.76 34.81M267.87 29.54L267.87 27.17Q267.87 24.66 267.60 23.93Q267.33 23.19 266.50 23.19Q265.48 23.19 265.23 23.82Q264.99 24.44 264.99 27.17L264.99 29.54L267.87 29.54ZM290.84 18.04L290.45 22.29Q292.60 17.72 296.68 17.46L296.68 28.86Q293.97 28.86 292.70 29.59Q291.43 30.32 291.14 31.63Q290.84 32.93 290.84 37.65L290.84 50.44L280.98 50.44L280.98 18.04L290.84 18.04Z"/></g></g></svg>