<svg xmlns="http://www.w3.org/2000/svg" viewBox="0 10.07948587560665 624.9777951679735 45.94654201274308" data-asc="1.0087890625"><g fill="#000000"><g fill="#000000" transform="translate(0, 0)"><path d="M24.29 28.15L14.01 28.15L14.01 21.26Q14.01 18.26 13.68 17.52Q13.35 16.77 12.23 16.77Q10.96 16.77 10.62 17.68Q10.28 18.58 10.28 21.58L10.28 39.94Q10.28 42.82 10.62 43.70Q10.96 44.58 12.16 44.58Q13.31 44.58 13.66 43.70Q14.01 42.82 14.01 39.58L14.01 34.62L24.29 34.62L24.29 36.16Q24.29 42.29 23.43 44.85Q22.56 47.41 19.59 49.34Q16.63 51.27 12.28 51.27Q7.76 51.27 4.83 49.63Q1.90 48.00 0.95 45.10Q0 42.21 0 36.40L0 24.85Q0 20.58 0.29 18.44Q0.59 16.31 2.04 14.33Q3.49 12.35 6.07 11.22Q8.64 10.08 11.99 10.08Q16.53 10.08 19.48 11.84Q22.44 13.60 23.36 16.22Q24.29 18.85 24.29 24.39L24.29 28.15ZM36.50 30.59L27.25 30.59L27.25 28.42Q27.25 24.66 28.11 22.62Q28.98 20.58 31.59 19.02Q34.20 17.46 38.38 17.46Q43.38 17.46 45.92 19.23Q48.46 21.00 48.97 23.57Q49.49 26.15 49.49 34.18L49.49 50.44L39.89 50.44L39.89 47.56Q38.99 49.29 37.56 50.16Q36.13 51.03 34.16 51.03Q31.57 51.03 29.41 49.57Q27.25 48.12 27.25 43.21L27.25 40.55Q27.25 36.91 28.39 35.60Q29.54 34.28 34.08 32.52Q38.94 30.62 39.28 29.96Q39.62 29.30 39.62 27.27Q39.62 24.73 39.25 23.96Q38.87 23.19 37.99 23.19Q36.99 23.19 36.74 23.84Q36.50 24.49 36.50 27.20L36.50 30.59M39.62 35.03Q37.26 36.77 36.88 37.94Q36.50 39.11 36.50 41.31Q36.50 43.82 36.83 44.56Q37.16 45.29 38.13 45.29Q39.06 45.29 39.34 44.71Q39.62 44.14 39.62 41.70L39.62 35.03ZM62.74 18.04L62.35 22.29Q64.50 17.72 68.58 17.46L68.58 28.86Q65.87 28.86 64.60 29.59Q63.33 30.32 63.04 31.63Q62.74 32.93 62.74 37.65L62.74 50.44L52.88 50.44L52.88 18.04L62.74 18.04ZM80.64 10.91L80.64 20.26Q81.86 18.85 83.36 18.15Q84.86 17.46 86.62 17.46Q88.65 17.46 90.14 18.09Q91.63 18.73 92.41 19.87Q93.19 21.02 93.35 22.12Q93.51 23.22 93.51 26.81L93.51 41.41Q93.51 44.97 93.03 46.72Q92.55 48.46 90.80 49.74Q89.04 51.03 86.62 51.03Q84.89 51.03 83.39 50.27Q81.88 49.51 80.64 48.00L80.00 50.44L70.78 50.44L70.78 10.91L80.64 10.91M83.64 27.25Q83.64 24.73 83.33 23.96Q83.01 23.19 82.08 23.19Q81.18 23.19 80.91 23.86Q80.64 24.54 80.64 27.25L80.64 41.21Q80.64 43.82 80.94 44.56Q81.25 45.29 82.15 45.29Q83.08 45.29 83.36 44.53Q83.64 43.77 83.64 40.89L83.64 27.25ZM119.07 29.42L119.07 37.35Q119.07 41.72 118.63 43.76Q118.19 45.80 116.75 47.57Q115.31 49.34 113.05 50.18Q110.79 51.03 107.86 51.03Q104.59 51.03 102.32 50.31Q100.05 49.58 98.79 48.13Q97.53 46.68 97.00 44.62Q96.46 42.55 96.46 38.43L96.46 30.13Q96.46 25.61 97.44 23.07Q98.41 20.53 100.95 18.99Q103.49 17.46 107.45 17.46Q110.77 17.46 113.15 18.44Q115.53 19.43 116.82 21.02Q118.12 22.61 118.59 24.29Q119.07 25.98 119.07 29.42M109.20 26.98Q109.20 24.49 108.94 23.84Q108.67 23.19 107.79 23.19Q106.91 23.19 106.62 23.84Q106.32 24.49 106.32 26.98L106.32 41.60Q106.32 43.90 106.62 44.59Q106.91 45.29 107.76 45.29Q108.64 45.29 108.92 44.65Q109.20 44.02 109.20 41.92L109.20 26.98ZM132.35 18.04L132.18 21.02Q133.25 19.24 134.80 18.35Q136.35 17.46 138.38 17.46Q140.92 17.46 142.53 18.65Q144.14 19.85 144.60 21.67Q145.07 23.49 145.07 27.73L145.07 50.44L135.21 50.44L135.21 28.00Q135.21 24.66 134.99 23.93Q134.77 23.19 133.76 23.19Q132.71 23.19 132.45 24.04Q132.18 24.88 132.18 28.54L132.18 50.44L122.31 50.44L122.31 18.04L132.35 18.04ZM160.55 30.83L160.55 37.65L147.58 37.65L147.58 30.83L160.55 30.83ZM181.23 10.91L187.11 50.44L176.59 50.44L176.07 43.33L172.39 43.33L171.78 50.44L161.13 50.44L166.36 10.91L181.23 10.91M175.78 36.33Q175 29.61 174.22 19.75Q172.66 31.08 172.27 36.33L175.78 36.33ZM220.43 18.04L216.50 50.44L205.79 50.44Q204.91 44.51 203.76 34.81Q203.37 39.06 202.66 43.41L201.56 50.44L190.84 50.44L186.67 18.04L195.17 18.04Q195.26 19.31 197.31 36.57Q197.46 34.81 199.51 18.04L207.69 18.04L209.69 36.57Q210.16 28.47 211.94 18.04L220.43 18.04ZM230.86 30.59L221.61 30.59L221.61 28.42Q221.61 24.66 222.47 22.62Q223.34 20.58 225.95 19.02Q228.56 17.46 232.74 17.46Q237.74 17.46 240.28 19.23Q242.82 21.00 243.33 23.57Q243.85 26.15 243.85 34.18L243.85 50.44L234.25 50.44L234.25 47.56Q233.35 49.29 231.92 50.16Q230.49 51.03 228.52 51.03Q225.93 51.03 223.77 49.57Q221.61 48.12 221.61 43.21L221.61 40.55Q221.61 36.91 222.75 35.60Q223.90 34.28 228.44 32.52Q233.30 30.62 233.64 29.96Q233.98 29.30 233.98 27.27Q233.98 24.73 233.61 23.96Q233.23 23.19 232.35 23.19Q231.35 23.19 231.10 23.84Q230.86 24.49 230.86 27.20L230.86 30.59M233.98 35.03Q231.62 36.77 231.24 37.94Q230.86 39.11 230.86 41.31Q230.86 43.82 231.19 44.56Q231.52 45.29 232.50 45.29Q233.42 45.29 233.70 44.71Q233.98 44.14 233.98 41.70L233.98 35.03ZM257.10 18.04L256.71 22.29Q258.86 17.72 262.94 17.46L262.94 28.86Q260.23 28.86 258.96 29.59Q257.69 30.32 257.40 31.63Q257.10 32.93 257.10 37.65L257.10 50.44L247.24 50.44L247.24 18.04L257.10 18.04ZM287.48 34.81L274.71 34.81L274.71 41.82Q274.71 44.02 275.02 44.65Q275.34 45.29 276.25 45.29Q277.37 45.29 277.75 44.45Q278.13 43.60 278.13 41.19L278.13 36.91L287.48 36.91L287.48 39.31Q287.48 42.31 287.10 43.92Q286.72 45.53 285.33 47.36Q283.94 49.19 281.80 50.11Q279.66 51.03 276.44 51.03Q273.32 51.03 270.92 50.12Q268.53 49.22 267.20 47.64Q265.87 46.07 265.36 44.18Q264.84 42.29 264.84 38.67L264.84 29.22Q264.84 24.98 265.99 22.52Q267.14 20.07 269.75 18.76Q272.36 17.46 275.76 17.46Q279.91 17.46 282.60 19.03Q285.30 20.61 286.39 23.21Q287.48 25.81 287.48 30.52L287.48 34.81M277.59 29.54L277.59 27.17Q277.59 24.66 277.32 23.93Q277.05 23.19 276.22 23.19Q275.20 23.19 274.95 23.82Q274.71 24.44 274.71 27.17L274.71 29.54L277.59 29.54ZM302.78 30.83L302.78 37.65L289.82 37.65L289.82 30.83L302.78 30.83ZM329.71 28.15L319.43 28.15L319.43 21.26Q319.43 18.26 319.10 17.52Q318.77 16.77 317.65 16.77Q316.38 16.77 316.04 17.68Q315.70 18.58 315.70 21.58L315.70 39.94Q315.70 42.82 316.04 43.70Q316.38 44.58 317.58 44.58Q318.73 44.58 319.08 43.70Q319.43 42.82 319.43 39.58L319.43 34.62L329.71 34.62L329.71 36.16Q329.71 42.29 328.85 44.85Q327.98 47.41 325.01 49.34Q322.05 51.27 317.70 51.27Q313.18 51.27 310.25 49.63Q307.32 48.00 306.37 45.10Q305.42 42.21 305.42 36.40L305.42 24.85Q305.42 20.58 305.71 18.44Q306.01 16.31 307.46 14.33Q308.91 12.35 311.49 11.22Q314.06 10.08 317.41 10.08Q321.95 10.08 324.90 11.84Q327.86 13.60 328.78 16.22Q329.71 18.85 329.71 24.39L329.71 28.15ZM355.42 29.42L355.42 37.35Q355.42 41.72 354.98 43.76Q354.54 45.80 353.10 47.57Q351.66 49.34 349.40 50.18Q347.14 51.03 344.21 51.03Q340.94 51.03 338.67 50.31Q336.40 49.58 335.14 48.13Q333.89 46.68 333.35 44.62Q332.81 42.55 332.81 38.43L332.81 30.13Q332.81 25.61 333.79 23.07Q334.77 20.53 337.30 18.99Q339.84 17.46 343.80 17.46Q347.12 17.46 349.50 18.44Q351.88 19.43 353.17 21.02Q354.47 22.61 354.94 24.29Q355.42 25.98 355.42 29.42M345.56 26.98Q345.56 24.49 345.29 23.84Q345.02 23.19 344.14 23.19Q343.26 23.19 342.97 23.84Q342.68 24.49 342.68 26.98L342.68 41.60Q342.68 43.90 342.97 44.59Q343.26 45.29 344.12 45.29Q345.00 45.29 345.28 44.65Q345.56 44.02 345.56 41.92L345.56 26.98ZM368.41 18.04L368.24 21.12Q369.38 19.29 370.97 18.37Q372.56 17.46 374.58 17.46Q378.54 17.46 380.81 21.12Q382.06 19.29 383.62 18.37Q385.18 17.46 387.08 17.46Q389.60 17.46 391.25 18.68Q392.90 19.90 393.36 21.67Q393.82 23.44 393.82 27.42L393.82 50.44L384.25 50.44L384.25 29.32Q384.25 25.17 383.97 24.18Q383.69 23.19 382.67 23.19Q381.62 23.19 381.31 24.17Q381.01 25.15 381.01 29.32L381.01 50.44L371.44 50.44L371.44 29.86Q371.44 25.10 371.20 24.15Q370.97 23.19 369.92 23.19Q369.26 23.19 368.80 23.69Q368.33 24.19 368.29 24.91Q368.24 25.63 368.24 27.98L368.24 50.44L358.67 50.44L358.67 18.04L368.41 18.04ZM407.25 18.04L407.08 20.90Q408.40 19.17 409.99 18.31Q411.57 17.46 413.45 17.46Q415.75 17.46 417.42 18.69Q419.09 19.92 419.51 21.53Q419.92 23.14 419.92 27.00L419.92 40.65Q419.92 45.07 419.40 46.94Q418.87 48.80 417.25 49.91Q415.63 51.03 413.33 51.03Q411.50 51.03 409.94 50.17Q408.37 49.32 407.08 47.63L407.08 55.05L397.22 55.05L397.22 18.04L407.25 18.04M410.06 27.47Q410.06 24.46 409.84 23.83Q409.62 23.19 408.62 23.19Q407.64 23.19 407.36 23.93Q407.08 24.66 407.08 27.47L407.08 40.89Q407.08 43.82 407.37 44.56Q407.67 45.29 408.64 45.29Q409.59 45.29 409.83 44.62Q410.06 43.95 410.06 41.36L410.06 27.47ZM445.75 18.04L445.75 50.44L435.72 50.44L435.89 47.75Q434.86 49.39 433.36 50.21Q431.86 51.03 429.91 51.03Q427.69 51.03 426.22 50.24Q424.76 49.46 424.06 48.17Q423.36 46.88 423.19 45.47Q423.02 44.07 423.02 39.89L423.02 18.04L432.89 18.04L432.89 40.09Q432.89 43.87 433.12 44.58Q433.35 45.29 434.38 45.29Q435.47 45.29 435.68 44.56Q435.89 43.82 435.89 39.84L435.89 18.04L445.75 18.04ZM459.69 13.72L459.69 18.82L462.35 18.82L462.35 23.95L459.69 23.95L459.69 41.28Q459.69 44.48 460.02 44.85Q460.35 45.21 462.77 45.21L462.77 50.44L458.79 50.44Q455.42 50.44 453.98 50.16Q452.54 49.88 451.44 48.86Q450.34 47.85 450.07 46.55Q449.80 45.24 449.80 40.41L449.80 23.95L447.68 23.95L447.68 18.82L449.80 18.82L449.80 13.72L459.69 13.72ZM474.68 10.91L474.68 16.06L464.53 16.06L464.53 10.91L474.68 10.91M474.68 18.04L474.68 50.44L464.53 50.44L464.53 18.04L474.68 18.04ZM488.26 18.04L488.09 21.02Q489.16 19.24 490.71 18.35Q492.26 17.46 494.29 17.46Q496.83 17.46 498.44 18.65Q500.05 19.85 500.51 21.67Q500.98 23.49 500.98 27.73L500.98 50.44L491.11 50.44L491.11 28.00Q491.11 24.66 490.89 23.93Q490.67 23.19 489.67 23.19Q488.62 23.19 488.35 24.04Q488.09 24.88 488.09 28.54L488.09 50.44L478.22 50.44L478.22 18.04L488.26 18.04ZM526.78 18.04L526.78 42.99Q526.78 48.05 526.55 49.52Q526.32 51.00 524.90 52.65Q523.49 54.30 520.96 55.16Q518.43 56.03 514.60 56.03Q509.89 56.03 507.03 54.43Q504.17 52.83 504.08 48.14L513.65 48.14Q513.65 50.29 515.21 50.29Q516.33 50.29 516.70 49.63Q517.07 48.97 517.07 46.88L517.07 44.43Q515.80 45.58 514.39 46.17Q512.99 46.75 511.45 46.75Q508.79 46.75 507.07 45.68Q505.35 44.60 504.71 42.86Q504.08 41.11 504.08 37.89L504.08 26.12Q504.08 21.51 505.74 19.48Q507.40 17.46 510.79 17.46Q512.65 17.46 514.17 18.21Q515.70 18.97 516.89 20.48L517.60 18.04L526.78 18.04M516.89 26.64Q516.89 24.41 516.64 23.80Q516.38 23.19 515.50 23.19Q514.65 23.19 514.29 23.89Q513.94 24.58 513.94 26.64L513.94 37.52Q513.94 39.70 514.21 40.34Q514.48 40.99 515.33 40.99Q516.31 40.99 516.60 40.21Q516.89 39.43 516.89 36.67L516.89 26.64ZM536.87 42.38L536.87 50.44L529.42 50.44L529.42 42.38L536.87 42.38ZM561.33 30.27L552.03 30.27L552.03 26.54Q552.03 24.58 551.71 23.89Q551.39 23.19 550.54 23.19Q549.68 23.19 549.39 23.80Q549.10 24.41 549.10 26.54L549.10 41.82Q549.10 43.55 549.54 44.42Q549.98 45.29 550.83 45.29Q551.83 45.29 552.19 44.38Q552.54 43.48 552.54 40.97L552.54 37.11L561.33 37.11Q561.30 40.99 561.05 42.93Q560.79 44.87 559.41 46.91Q558.03 48.95 555.81 49.99Q553.59 51.03 550.32 51.03Q546.14 51.03 543.70 49.60Q541.26 48.17 540.25 45.59Q539.23 43.02 539.23 38.28L539.23 29.08Q539.23 24.95 540.06 22.85Q540.89 20.75 543.60 19.10Q546.31 17.46 550.20 17.46Q554.05 17.46 556.79 19.09Q559.52 20.73 560.42 23.22Q561.33 25.71 561.33 30.27ZM586.57 29.42L586.57 37.35Q586.57 41.72 586.13 43.76Q585.69 45.80 584.25 47.57Q582.81 49.34 580.55 50.18Q578.30 51.03 575.37 51.03Q572.09 51.03 569.82 50.31Q567.55 49.58 566.30 48.13Q565.04 46.68 564.50 44.62Q563.96 42.55 563.96 38.43L563.96 30.13Q563.96 25.61 564.94 23.07Q565.92 20.53 568.46 18.99Q571.00 17.46 574.95 17.46Q578.27 17.46 580.65 18.44Q583.03 19.43 584.33 21.02Q585.62 22.61 586.10 24.29Q586.57 25.98 586.57 29.42M576.71 26.98Q576.71 24.49 576.44 23.84Q576.17 23.19 575.29 23.19Q574.41 23.19 574.12 23.84Q573.83 24.49 573.83 26.98L573.83 41.60Q573.83 43.90 574.12 44.59Q574.41 45.29 575.27 45.29Q576.15 45.29 576.43 44.65Q576.71 44.02 576.71 41.92L576.71 26.98ZM599.56 18.04L599.39 21.12Q600.54 19.29 602.12 18.37Q603.71 17.46 605.74 17.46Q609.69 17.46 611.96 21.12Q613.21 19.29 614.77 18.37Q616.33 17.46 618.24 17.46Q620.75 17.46 622.40 18.68Q624.05 19.90 624.51 21.67Q624.98 23.44 624.98 27.42L624.98 50.44L615.41 50.44L615.41 29.32Q615.41 25.17 615.12 24.18Q614.84 23.19 613.82 23.19Q612.77 23.19 612.46 24.17Q612.16 25.15 612.16 29.32L612.16 50.44L602.59 50.44L602.59 29.86Q602.59 25.10 602.36 24.15Q602.12 23.19 601.07 23.19Q600.42 23.19 599.95 23.69Q599.49 24.19 599.44 24.91Q599.39 25.63 599.39 27.98L599.39 50.44L589.82 50.44L589.82 18.04L599.56 18.04Z"/></g></g></svg>