<svg xmlns="http://www.w3.org/2000/svg" viewBox="0 10.07948587560665 408.05660404042146 44.90158624693439" data-asc="1.0087890625"><g fill="#000000"><g fill="#000000" transform="translate(0, 0)"><path d="M24.29 28.15L14.01 28.15L14.01 21.26Q14.01 18.26 13.68 17.52Q13.35 16.77 12.23 16.77Q10.96 16.77 10.62 17.68Q10.28 18.58 10.28 21.58L10.28 39.94Q10.28 42.82 10.62 43.70Q10.96 44.58 12.16 44.58Q13.31 44.58 13.66 43.70Q14.01 42.82 14.01 39.58L14.01 34.62L24.29 34.62L24.29 36.16Q24.29 42.29 23.43 44.85Q22.56 47.41 19.59 49.34Q16.63 51.27 12.28 51.27Q7.76 51.27 4.83 49.63Q1.90 48.00 0.95 45.10Q0 42.21 0 36.40L0 24.85Q0 20.58 0.29 18.44Q0.59 16.31 2.04 14.33Q3.49 12.35 6.07 11.22Q8.64 10.08 11.99 10.08Q16.53 10.08 19.48 11.84Q22.44 13.60 23.36 16.22Q24.29 18.85 24.29 24.39L24.29 28.15ZM36.50 30.59L27.25 30.59L27.25 28.42Q27.25 24.66 28.11 22.62Q28.98 20.58 31.59 19.02Q34.20 17.46 38.38 17.46Q43.38 17.46 45.92 19.23Q48.46 21.00 48.97 23.57Q49.49 26.15 49.49 34.18L49.49 50.44L39.89 50.44L39.89 47.56Q38.99 49.29 37.56 50.16Q36.13 51.03 34.16 51.03Q31.57 51.03 29.41 49.57Q27.25 48.12 27.25 43.21L27.25 40.55Q27.25 36.91 28.39 35.60Q29.54 34.28 34.08 32.52Q38.94 30.62 39.28 29.96Q39.62 29.30 39.62 27.27Q39.62 24.73 39.25 23.96Q38.87 23.19 37.99 23.19Q36.99 23.19 36.74 23.84Q36.50 24.49 36.50 27.20L36.50 30.59M39.62 35.03Q37.26 36.77 36.88 37.94Q36.50 39.11 36.50 41.31Q36.50 43.82 36.83 44.56Q37.16 45.29 38.13 45.29Q39.06 45.29 39.34 44.71Q39.62 44.14 39.62 41.70L39.62 35.03ZM62.74 18.04L62.35 22.29Q64.50 17.72 68.58 17.46L68.58 28.86Q65.87 28.86 64.60 29.59Q63.33 30.32 63.04 31.63Q62.74 32.93 62.74 37.65L62.74 50.44L52.88 50.44L52.88 18.04L62.74 18.04ZM80.64 10.91L80.64 20.26Q81.86 18.85 83.36 18.15Q84.86 17.46 86.62 17.46Q88.65 17.46 90.14 18.09Q91.63 18.73 92.41 19.87Q93.19 21.02 93.35 22.12Q93.51 23.22 93.51 26.81L93.51 41.41Q93.51 44.97 93.03 46.72Q92.55 48.46 90.80 49.74Q89.04 51.03 86.62 51.03Q84.89 51.03 83.39 50.27Q81.88 49.51 80.64 48.00L80.00 50.44L70.78 50.44L70.78 10.91L80.64 10.91M83.64 27.25Q83.64 24.73 83.33 23.96Q83.01 23.19 82.08 23.19Q81.18 23.19 80.91 23.86Q80.64 24.54 80.64 27.25L80.64 41.21Q80.64 43.82 80.94 44.56Q81.25 45.29 82.15 45.29Q83.08 45.29 83.36 44.53Q83.64 43.77 83.64 40.89L83.64 27.25ZM119.07 29.42L119.07 37.35Q119.07 41.72 118.63 43.76Q118.19 45.80 116.75 47.57Q115.31 49.34 113.05 50.18Q110.79 51.03 107.86 51.03Q104.59 51.03 102.32 50.31Q100.05 49.58 98.79 48.13Q97.53 46.68 97.00 44.62Q96.46 42.55 96.46 38.43L96.46 30.13Q96.46 25.61 97.44 23.07Q98.41 20.53 100.95 18.99Q103.49 17.46 107.45 17.46Q110.77 17.46 113.15 18.44Q115.53 19.43 116.82 21.02Q118.12 22.61 118.59 24.29Q119.07 25.98 119.07 29.42M109.20 26.98Q109.20 24.49 108.94 23.84Q108.67 23.19 107.79 23.19Q106.91 23.19 106.62 23.84Q106.32 24.49 106.32 26.98L106.32 41.60Q106.32 43.90 106.62 44.59Q106.91 45.29 107.76 45.29Q108.64 45.29 108.92 44.65Q109.20 44.02 109.20 41.92L109.20 26.98ZM132.35 18.04L132.18 21.02Q133.25 19.24 134.80 18.35Q136.35 17.46 138.38 17.46Q140.92 17.46 142.53 18.65Q144.14 19.85 144.60 21.67Q145.07 23.49 145.07 27.73L145.07 50.44L135.21 50.44L135.21 28.00Q135.21 24.66 134.99 23.93Q134.77 23.19 133.76 23.19Q132.71 23.19 132.45 24.04Q132.18 24.88 132.18 28.54L132.18 50.44L122.31 50.44L122.31 18.04L132.35 18.04ZM160.55 30.83L160.55 37.65L147.58 37.65L147.58 30.83L160.55 30.83ZM173.75 10.91L173.75 50.44L163.48 50.44L163.48 10.91L173.75 10.91ZM187.62 18.04L187.45 21.02Q188.53 19.24 190.08 18.35Q191.63 17.46 193.65 17.46Q196.19 17.46 197.80 18.65Q199.41 19.85 199.88 21.67Q200.34 23.49 200.34 27.73L200.34 50.44L190.48 50.44L190.48 28.00Q190.48 24.66 190.26 23.93Q190.04 23.19 189.04 23.19Q187.99 23.19 187.72 24.04Q187.45 24.88 187.45 28.54L187.45 50.44L177.59 50.44L177.59 18.04L187.62 18.04ZM214.14 13.72L214.14 18.82L216.80 18.82L216.80 23.95L214.14 23.95L214.14 41.28Q214.14 44.48 214.47 44.85Q214.79 45.21 217.21 45.21L217.21 50.44L213.23 50.44Q209.86 50.44 208.42 50.16Q206.98 49.88 205.88 48.86Q204.79 47.85 204.52 46.55Q204.25 45.24 204.25 40.41L204.25 23.95L202.12 23.95L202.12 18.82L204.25 18.82L204.25 13.72L214.14 13.72ZM241.31 34.81L228.54 34.81L228.54 41.82Q228.54 44.02 228.86 44.65Q229.17 45.29 230.08 45.29Q231.20 45.29 231.58 44.45Q231.96 43.60 231.96 41.19L231.96 36.91L241.31 36.91L241.31 39.31Q241.31 42.31 240.93 43.92Q240.55 45.53 239.16 47.36Q237.77 49.19 235.63 50.11Q233.50 51.03 230.27 51.03Q227.15 51.03 224.76 50.12Q222.36 49.22 221.03 47.64Q219.70 46.07 219.19 44.18Q218.68 42.29 218.68 38.67L218.68 29.22Q218.68 24.98 219.82 22.52Q220.97 20.07 223.58 18.76Q226.20 17.46 229.59 17.46Q233.74 17.46 236.44 19.03Q239.14 20.61 240.22 23.21Q241.31 25.81 241.31 30.52L241.31 34.81M231.42 29.54L231.42 27.17Q231.42 24.66 231.15 23.93Q230.88 23.19 230.05 23.19Q229.03 23.19 228.78 23.82Q228.54 24.44 228.54 27.17L228.54 29.54L231.42 29.54ZM254.57 18.04L254.39 21.02Q255.47 19.24 257.02 18.35Q258.57 17.46 260.60 17.46Q263.13 17.46 264.75 18.65Q266.36 19.85 266.82 21.67Q267.29 23.49 267.29 27.73L267.29 50.44L257.42 50.44L257.42 28.00Q257.42 24.66 257.20 23.93Q256.98 23.19 255.98 23.19Q254.93 23.19 254.66 24.04Q254.39 24.88 254.39 28.54L254.39 50.44L244.53 50.44L244.53 18.04L254.57 18.04ZM290.82 28.39L282.08 28.39L282.08 26.64Q282.08 24.39 281.82 23.79Q281.57 23.19 280.54 23.19Q279.71 23.19 279.30 23.74Q278.88 24.29 278.88 25.39Q278.88 26.88 279.09 27.58Q279.30 28.27 280.33 29.10Q281.37 29.93 284.59 31.52Q288.89 33.62 290.23 35.47Q291.58 37.33 291.58 40.87Q291.58 44.82 290.55 46.84Q289.53 48.85 287.12 49.94Q284.72 51.03 281.32 51.03Q277.56 51.03 274.89 49.85Q272.22 48.68 271.22 46.68Q270.21 44.68 270.21 40.63L270.21 39.06L278.96 39.06L278.96 41.11Q278.96 43.73 279.28 44.51Q279.61 45.29 280.59 45.29Q281.64 45.29 282.06 44.76Q282.47 44.24 282.47 42.55Q282.47 40.23 281.93 39.65Q281.37 39.06 276.20 36.18Q271.85 33.74 270.90 31.75Q269.95 29.76 269.95 27.03Q269.95 23.14 270.97 21.30Q272.00 19.46 274.45 18.46Q276.90 17.46 280.15 17.46Q283.37 17.46 285.63 18.27Q287.89 19.09 289.10 20.43Q290.31 21.78 290.56 22.92Q290.82 24.07 290.82 26.51L290.82 28.39ZM304.37 10.91L304.37 16.06L294.21 16.06L294.21 10.91L304.37 10.91M304.37 18.04L304.37 50.44L294.21 50.44L294.21 18.04L304.37 18.04ZM318.31 13.72L318.31 18.82L320.97 18.82L320.97 23.95L318.31 23.95L318.31 41.28Q318.31 44.48 318.64 44.85Q318.97 45.21 321.39 45.21L321.39 50.44L317.41 50.44Q314.04 50.44 312.60 50.16Q311.16 49.88 310.06 48.86Q308.96 47.85 308.69 46.55Q308.42 45.24 308.42 40.41L308.42 23.95L306.30 23.95L306.30 18.82L308.42 18.82L308.42 13.72L318.31 13.72ZM344.80 18.04L341.97 41.48Q341.31 47.05 340.86 49.07Q340.41 51.10 339.36 52.42Q338.31 53.74 336.44 54.36Q334.57 54.98 330.47 54.98L324.49 54.98L324.49 49.80Q326.78 49.80 327.44 49.57Q328.10 49.34 328.10 48.54Q328.10 48.14 327.49 45.14L322.09 18.04L331.05 18.04L334.28 39.89L335.84 18.04L344.80 18.04ZM379.03 10.91L379.03 37.33Q379.03 41.82 378.74 43.64Q378.44 45.46 377.00 47.38Q375.56 49.29 373.21 50.28Q370.85 51.27 367.65 51.27Q364.11 51.27 361.40 50.10Q358.69 48.93 357.35 47.05Q356.01 45.17 355.76 43.08Q355.52 40.99 355.52 34.30L355.52 10.91L365.80 10.91L365.80 40.55Q365.80 43.14 366.08 43.86Q366.36 44.58 367.21 44.58Q368.19 44.58 368.47 43.79Q368.75 42.99 368.75 40.04L368.75 10.91L379.03 10.91ZM407.50 10.91L401.61 28.76L408.06 50.44L397.44 50.44L393.29 33.50L393.29 50.44L383.01 50.44L383.01 10.91L393.29 10.91L393.29 26.27L397.85 10.91L407.50 10.91Z"/></g></g></svg>