<svg xmlns="http://www.w3.org/2000/svg" viewBox="0 10.07948587560665 581.4734130967241 44.971480298856385" data-asc="1.0087890625"><g fill="#000000"><g fill="#000000" transform="translate(0, 0)"><path d="M24.29 28.15L14.01 28.15L14.01 21.26Q14.01 18.26 13.68 17.52Q13.35 16.77 12.23 16.77Q10.96 16.77 10.62 17.68Q10.28 18.58 10.28 21.58L10.28 39.94Q10.28 42.82 10.62 43.70Q10.96 44.58 12.16 44.58Q13.31 44.58 13.66 43.70Q14.01 42.82 14.01 39.58L14.01 34.62L24.29 34.62L24.29 36.16Q24.29 42.29 23.43 44.85Q22.56 47.41 19.59 49.34Q16.63 51.27 12.28 51.27Q7.76 51.27 4.83 49.63Q1.90 48.00 0.95 45.10Q0 42.21 0 36.40L0 24.85Q0 20.58 0.29 18.44Q0.59 16.31 2.04 14.33Q3.49 12.35 6.07 11.22Q8.64 10.08 11.99 10.08Q16.53 10.08 19.48 11.84Q22.44 13.60 23.36 16.22Q24.29 18.85 24.29 24.39L24.29 28.15ZM36.50 30.59L27.25 30.59L27.25 28.42Q27.25 24.66 28.11 22.62Q28.98 20.58 31.59 19.02Q34.20 17.46 38.38 17.46Q43.38 17.46 45.92 19.23Q48.46 21.00 48.97 23.57Q49.49 26.15 49.49 34.18L49.49 50.44L39.89 50.44L39.89 47.56Q38.99 49.29 37.56 50.16Q36.13 51.03 34.16 51.03Q31.57 51.03 29.41 49.57Q27.25 48.12 27.25 43.21L27.25 40.55Q27.25 36.91 28.39 35.60Q29.54 34.28 34.08 32.52Q38.94 30.62 39.28 29.96Q39.62 29.30 39.62 27.27Q39.62 24.73 39.25 23.96Q38.87 23.19 37.99 23.19Q36.99 23.19 36.74 23.84Q36.50 24.49 36.50 27.20L36.50 30.59M39.62 35.03Q37.26 36.77 36.88 37.94Q36.50 39.11 36.50 41.31Q36.50 43.82 36.83 44.56Q37.16 45.29 38.13 45.29Q39.06 45.29 39.34 44.71Q39.62 44.14 39.62 41.70L39.62 35.03ZM62.74 18.04L62.35 22.29Q64.50 17.72 68.58 17.46L68.58 28.86Q65.87 28.86 64.60 29.59Q63.33 30.32 63.04 31.63Q62.74 32.93 62.74 37.65L62.74 50.44L52.88 50.44L52.88 18.04L62.74 18.04ZM80.64 10.91L80.64 20.26Q81.86 18.85 83.36 18.15Q84.86 17.46 86.62 17.46Q88.65 17.46 90.14 18.09Q91.63 18.73 92.41 19.87Q93.19 21.02 93.35 22.12Q93.51 23.22 93.51 26.81L93.51 41.41Q93.51 44.97 93.03 46.72Q92.55 48.46 90.80 49.74Q89.04 51.03 86.62 51.03Q84.89 51.03 83.39 50.27Q81.88 49.51 80.64 48.00L80.00 50.44L70.78 50.44L70.78 10.91L80.64 10.91M83.64 27.25Q83.64 24.73 83.33 23.96Q83.01 23.19 82.08 23.19Q81.18 23.19 80.91 23.86Q80.64 24.54 80.64 27.25L80.64 41.21Q80.64 43.82 80.94 44.56Q81.25 45.29 82.15 45.29Q83.08 45.29 83.36 44.53Q83.64 43.77 83.64 40.89L83.64 27.25ZM119.07 29.42L119.07 37.35Q119.07 41.72 118.63 43.76Q118.19 45.80 116.75 47.57Q115.31 49.34 113.05 50.18Q110.79 51.03 107.86 51.03Q104.59 51.03 102.32 50.31Q100.05 49.58 98.79 48.13Q97.53 46.68 97.00 44.62Q96.46 42.55 96.46 38.43L96.46 30.13Q96.46 25.61 97.44 23.07Q98.41 20.53 100.95 18.99Q103.49 17.46 107.45 17.46Q110.77 17.46 113.15 18.44Q115.53 19.43 116.82 21.02Q118.12 22.61 118.59 24.29Q119.07 25.98 119.07 29.42M109.20 26.98Q109.20 24.49 108.94 23.84Q108.67 23.19 107.79 23.19Q106.91 23.19 106.62 23.84Q106.32 24.49 106.32 26.98L106.32 41.60Q106.32 43.90 106.62 44.59Q106.91 45.29 107.76 45.29Q108.64 45.29 108.92 44.65Q109.20 44.02 109.20 41.92L109.20 26.98ZM132.35 18.04L132.18 21.02Q133.25 19.24 134.80 18.35Q136.35 17.46 138.38 17.46Q140.92 17.46 142.53 18.65Q144.14 19.85 144.60 21.67Q145.07 23.49 145.07 27.73L145.07 50.44L135.21 50.44L135.21 28.00Q135.21 24.66 134.99 23.93Q134.77 23.19 133.76 23.19Q132.71 23.19 132.45 24.04Q132.18 24.88 132.18 28.54L132.18 50.44L122.31 50.44L122.31 18.04L132.35 18.04ZM175.32 10.91L181.20 50.44L170.68 50.44L170.17 43.33L166.48 43.33L165.87 50.44L155.22 50.44L160.45 10.91L175.32 10.91M169.87 36.33Q169.09 29.61 168.31 19.75Q166.75 31.08 166.36 36.33L169.87 36.33ZM214.53 18.04L210.60 50.44L199.88 50.44Q199.00 44.51 197.85 34.81Q197.46 39.06 196.75 43.41L195.65 50.44L184.94 50.44L180.76 18.04L189.26 18.04Q189.36 19.31 191.41 36.57Q191.55 34.81 193.60 18.04L201.78 18.04L203.78 36.57Q204.25 28.47 206.03 18.04L214.53 18.04ZM224.95 30.59L215.70 30.59L215.70 28.42Q215.70 24.66 216.56 22.62Q217.43 20.58 220.04 19.02Q222.66 17.46 226.83 17.46Q231.84 17.46 234.38 19.23Q236.91 21.00 237.43 23.57Q237.94 26.15 237.94 34.18L237.94 50.44L228.34 50.44L228.34 47.56Q227.44 49.29 226.01 50.16Q224.58 51.03 222.61 51.03Q220.02 51.03 217.86 49.57Q215.70 48.12 215.70 43.21L215.70 40.55Q215.70 36.91 216.85 35.60Q217.99 34.28 222.53 32.52Q227.39 30.62 227.73 29.96Q228.08 29.30 228.08 27.27Q228.08 24.73 227.70 23.96Q227.32 23.19 226.44 23.19Q225.44 23.19 225.20 23.84Q224.95 24.49 224.95 27.20L224.95 30.59M228.08 35.03Q225.71 36.77 225.33 37.94Q224.95 39.11 224.95 41.31Q224.95 43.82 225.28 44.56Q225.61 45.29 226.59 45.29Q227.51 45.29 227.80 44.71Q228.08 44.14 228.08 41.70L228.08 35.03ZM251.20 18.04L250.81 22.29Q252.95 17.72 257.03 17.46L257.03 28.86Q254.32 28.86 253.05 29.59Q251.78 30.32 251.49 31.63Q251.20 32.93 251.20 37.65L251.20 50.44L241.33 50.44L241.33 18.04L251.20 18.04ZM281.57 34.81L268.80 34.81L268.80 41.82Q268.80 44.02 269.12 44.65Q269.43 45.29 270.34 45.29Q271.46 45.29 271.84 44.45Q272.22 43.60 272.22 41.19L272.22 36.91L281.57 36.91L281.57 39.31Q281.57 42.31 281.19 43.92Q280.81 45.53 279.42 47.36Q278.03 49.19 275.89 50.11Q273.75 51.03 270.53 51.03Q267.41 51.03 265.01 50.12Q262.62 49.22 261.29 47.64Q259.96 46.07 259.45 44.18Q258.94 42.29 258.94 38.67L258.94 29.22Q258.94 24.98 260.08 22.52Q261.23 20.07 263.84 18.76Q266.46 17.46 269.85 17.46Q274.00 17.46 276.70 19.03Q279.39 20.61 280.48 23.21Q281.57 25.81 281.57 30.52L281.57 34.81M271.68 29.54L271.68 27.17Q271.68 24.66 271.41 23.93Q271.14 23.19 270.31 23.19Q269.29 23.19 269.04 23.82Q268.80 24.44 268.80 27.17L268.80 29.54L271.68 29.54ZM318.38 10.91L312.50 28.76L318.95 50.44L308.33 50.44L304.17 33.50L304.17 50.44L293.90 50.44L293.90 10.91L304.17 10.91L304.17 26.27L308.74 10.91L318.38 10.91ZM320.73 10.91L337.87 10.91L337.87 18.82L331.01 18.82L331.01 26.32L337.43 26.32L337.43 33.84L331.01 33.84L331.01 42.53L338.55 42.53L338.55 50.44L320.73 50.44L320.73 10.91ZM341.50 10.91L349.19 10.91Q356.64 10.91 359.27 11.60Q361.89 12.28 363.26 13.84Q364.62 15.41 364.97 17.32Q365.31 19.24 365.31 24.85L365.31 38.70Q365.31 44.02 364.81 45.81Q364.31 47.61 363.06 48.62Q361.82 49.63 359.99 50.04Q358.15 50.44 354.47 50.44L341.50 50.44L341.50 10.91M351.78 17.68L351.78 43.68Q354.00 43.68 354.52 42.79Q355.03 41.89 355.03 37.94L355.03 22.58Q355.03 19.90 354.86 19.14Q354.69 18.38 354.08 18.03Q353.47 17.68 351.78 17.68ZM386.89 10.91L392.77 50.44L382.25 50.44L381.74 43.33L378.05 43.33L377.44 50.44L366.80 50.44L372.02 10.91L386.89 10.91M381.45 36.33Q380.66 29.61 379.88 19.75Q378.32 31.08 377.93 36.33L381.45 36.33ZM426.83 34.06Q426.83 40.01 426.55 42.49Q426.27 44.97 424.79 47.02Q423.32 49.07 420.80 50.17Q418.29 51.27 414.94 51.27Q411.77 51.27 409.24 50.23Q406.71 49.19 405.18 47.12Q403.64 45.04 403.34 42.60Q403.05 40.16 403.05 34.06L403.05 27.29Q403.05 21.34 403.33 18.86Q403.61 16.38 405.09 14.33Q406.57 12.28 409.08 11.18Q411.60 10.08 414.94 10.08Q418.12 10.08 420.64 11.12Q423.17 12.16 424.71 14.23Q426.25 16.31 426.54 18.75Q426.83 21.19 426.83 27.29L426.83 34.06M416.55 21.07Q416.55 18.31 416.25 17.54Q415.94 16.77 414.99 16.77Q414.18 16.77 413.76 17.40Q413.33 18.02 413.33 21.07L413.33 39.53Q413.33 42.97 413.61 43.77Q413.89 44.58 414.92 44.58Q415.97 44.58 416.26 43.65Q416.55 42.72 416.55 39.23L416.55 21.07ZM440.41 18.04L440.23 20.90Q441.55 19.17 443.14 18.31Q444.73 17.46 446.61 17.46Q448.90 17.46 450.57 18.69Q452.25 19.92 452.66 21.53Q453.08 23.14 453.08 27.00L453.08 40.65Q453.08 45.07 452.55 46.94Q452.03 48.80 450.40 49.91Q448.78 51.03 446.48 51.03Q444.65 51.03 443.09 50.17Q441.53 49.32 440.23 47.63L440.23 55.05L430.37 55.05L430.37 18.04L440.41 18.04M443.21 27.47Q443.21 24.46 442.99 23.83Q442.77 23.19 441.77 23.19Q440.80 23.19 440.52 23.93Q440.23 24.66 440.23 27.47L440.23 40.89Q440.23 43.82 440.53 44.56Q440.82 45.29 441.80 45.29Q442.75 45.29 442.98 44.62Q443.21 43.95 443.21 41.36L443.21 27.47ZM478.66 34.81L465.89 34.81L465.89 41.82Q465.89 44.02 466.21 44.65Q466.53 45.29 467.43 45.29Q468.55 45.29 468.93 44.45Q469.31 43.60 469.31 41.19L469.31 36.91L478.66 36.91L478.66 39.31Q478.66 42.31 478.28 43.92Q477.91 45.53 476.51 47.36Q475.12 49.19 472.99 50.11Q470.85 51.03 467.63 51.03Q464.50 51.03 462.11 50.12Q459.72 49.22 458.39 47.64Q457.06 46.07 456.54 44.18Q456.03 42.29 456.03 38.67L456.03 29.22Q456.03 24.98 457.18 22.52Q458.33 20.07 460.94 18.76Q463.55 17.46 466.94 17.46Q471.09 17.46 473.79 19.03Q476.49 20.61 477.58 23.21Q478.66 25.81 478.66 30.52L478.66 34.81M468.77 29.54L468.77 27.17Q468.77 24.66 468.51 23.93Q468.24 23.19 467.41 23.19Q466.38 23.19 466.14 23.82Q465.89 24.44 465.89 27.17L465.89 29.54L468.77 29.54ZM491.75 18.04L491.36 22.29Q493.51 17.72 497.58 17.46L497.58 28.86Q494.87 28.86 493.60 29.59Q492.33 30.32 492.04 31.63Q491.75 32.93 491.75 37.65L491.75 50.44L481.88 50.44L481.88 18.04L491.75 18.04ZM508.59 30.59L499.34 30.59L499.34 28.42Q499.34 24.66 500.21 22.62Q501.07 20.58 503.69 19.02Q506.30 17.46 510.47 17.46Q515.48 17.46 518.02 19.23Q520.56 21.00 521.07 23.57Q521.58 26.15 521.58 34.18L521.58 50.44L511.99 50.44L511.99 47.56Q511.08 49.29 509.66 50.16Q508.23 51.03 506.25 51.03Q503.66 51.03 501.50 49.57Q499.34 48.12 499.34 43.21L499.34 40.55Q499.34 36.91 500.49 35.60Q501.64 34.28 506.18 32.52Q511.04 30.62 511.38 29.96Q511.72 29.30 511.72 27.27Q511.72 24.73 511.34 23.96Q510.96 23.19 510.08 23.19Q509.08 23.19 508.84 23.84Q508.59 24.49 508.59 27.20L508.59 30.59M511.72 35.03Q509.35 36.77 508.97 37.94Q508.59 39.11 508.59 41.31Q508.59 43.82 508.92 44.56Q509.25 45.29 510.23 45.29Q511.16 45.29 511.44 44.71Q511.72 44.14 511.72 41.70L511.72 35.03ZM535.38 13.72L535.38 18.82L538.04 18.82L538.04 23.95L535.38 23.95L535.38 41.28Q535.38 44.48 535.71 44.85Q536.04 45.21 538.45 45.21L538.45 50.44L534.47 50.44Q531.10 50.44 529.66 50.16Q528.22 49.88 527.12 48.86Q526.03 47.85 525.76 46.55Q525.49 45.24 525.49 40.41L525.49 23.95L523.36 23.95L523.36 18.82L525.49 18.82L525.49 13.72L535.38 13.72ZM562.52 29.42L562.52 37.35Q562.52 41.72 562.08 43.76Q561.65 45.80 560.21 47.57Q558.76 49.34 556.51 50.18Q554.25 51.03 551.32 51.03Q548.05 51.03 545.78 50.31Q543.51 49.58 542.25 48.13Q540.99 46.68 540.45 44.62Q539.92 42.55 539.92 38.43L539.92 30.13Q539.92 25.61 540.89 23.07Q541.87 20.53 544.41 18.99Q546.95 17.46 550.90 17.46Q554.22 17.46 556.60 18.44Q558.98 19.43 560.28 21.02Q561.57 22.61 562.05 24.29Q562.52 25.98 562.52 29.42M552.66 26.98Q552.66 24.49 552.39 23.84Q552.12 23.19 551.25 23.19Q550.37 23.19 550.07 23.84Q549.78 24.49 549.78 26.98L549.78 41.60Q549.78 43.90 550.07 44.59Q550.37 45.29 551.22 45.29Q552.10 45.29 552.38 44.65Q552.66 44.02 552.66 41.92L552.66 26.98ZM575.63 18.04L575.24 22.29Q577.39 17.72 581.47 17.46L581.47 28.86Q578.76 28.86 577.49 29.59Q576.22 30.32 575.93 31.63Q575.63 32.93 575.63 37.65L575.63 50.44L565.77 50.44L565.77 18.04L575.63 18.04Z"/></g></g></svg>