<svg xmlns="http://www.w3.org/2000/svg" viewBox="0 10.07948587560665 354.3740052569353 45.94654201274308" data-asc="1.0087890625"><g fill="#000000"><g fill="#000000" transform="translate(0, 0)"><path d="M24.29 28.15L14.01 28.15L14.01 21.26Q14.01 18.26 13.68 17.52Q13.35 16.77 12.23 16.77Q10.96 16.77 10.62 17.68Q10.28 18.58 10.28 21.58L10.28 39.94Q10.28 42.82 10.62 43.70Q10.96 44.58 12.16 44.58Q13.31 44.58 13.66 43.70Q14.01 42.82 14.01 39.58L14.01 34.62L24.29 34.62L24.29 36.16Q24.29 42.29 23.43 44.85Q22.56 47.41 19.59 49.34Q16.63 51.27 12.28 51.27Q7.76 51.27 4.83 49.63Q1.90 48.00 0.95 45.10Q0 42.21 0 36.40L0 24.85Q0 20.58 0.29 18.44Q0.59 16.31 2.04 14.33Q3.49 12.35 6.07 11.22Q8.64 10.08 11.99 10.08Q16.53 10.08 19.48 11.84Q22.44 13.60 23.36 16.22Q24.29 18.85 24.29 24.39L24.29 28.15ZM27.98 10.91L38.33 10.91Q42.53 10.91 44.79 11.57Q47.05 12.23 48.18 13.48Q49.32 14.72 49.72 16.49Q50.12 18.26 50.12 21.97L50.12 25.42Q50.12 29.20 49.34 30.93Q48.56 32.67 46.47 33.59Q44.38 34.52 41.02 34.52L38.26 34.52L38.26 50.44L27.98 50.44L27.98 10.91M38.26 17.68L38.26 27.73Q38.70 27.76 39.01 27.76Q40.43 27.76 40.98 27.06Q41.53 26.37 41.53 24.17L41.53 20.92Q41.53 18.90 40.89 18.29Q40.26 17.68 38.26 17.68ZM76.44 10.91L76.44 37.33Q76.44 41.82 76.15 43.64Q75.85 45.46 74.41 47.38Q72.97 49.29 70.62 50.28Q68.26 51.27 65.06 51.27Q61.52 51.27 58.81 50.10Q56.10 48.93 54.76 47.05Q53.42 45.17 53.17 43.08Q52.93 40.99 52.93 34.30L52.93 10.91L63.21 10.91L63.21 40.55Q63.21 43.14 63.49 43.86Q63.77 44.58 64.62 44.58Q65.60 44.58 65.88 43.79Q66.16 42.99 66.16 40.04L66.16 10.91L76.44 10.91ZM89.23 10.91L106.37 10.91L106.37 18.82L99.51 18.82L99.51 26.32L105.93 26.32L105.93 33.84L99.51 33.84L99.51 42.53L107.06 42.53L107.06 50.44L89.23 50.44L89.23 10.91ZM119.75 18.04L119.58 21.02Q120.65 19.24 122.20 18.35Q123.75 17.46 125.78 17.46Q128.32 17.46 129.93 18.65Q131.54 19.85 132.01 21.67Q132.47 23.49 132.47 27.73L132.47 50.44L122.61 50.44L122.61 28.00Q122.61 24.66 122.39 23.93Q122.17 23.19 121.17 23.19Q120.12 23.19 119.85 24.04Q119.58 24.88 119.58 28.54L119.58 50.44L109.72 50.44L109.72 18.04L119.75 18.04ZM158.20 34.81L145.43 34.81L145.43 41.82Q145.43 44.02 145.75 44.65Q146.07 45.29 146.97 45.29Q148.10 45.29 148.47 44.45Q148.85 43.60 148.85 41.19L148.85 36.91L158.20 36.91L158.20 39.31Q158.20 42.31 157.82 43.92Q157.45 45.53 156.05 47.36Q154.66 49.19 152.53 50.11Q150.39 51.03 147.17 51.03Q144.04 51.03 141.65 50.12Q139.26 49.22 137.93 47.64Q136.60 46.07 136.08 44.18Q135.57 42.29 135.57 38.67L135.57 29.22Q135.57 24.98 136.72 22.52Q137.87 20.07 140.48 18.76Q143.09 17.46 146.48 17.46Q150.63 17.46 153.33 19.03Q156.03 20.61 157.12 23.21Q158.20 25.81 158.20 30.52L158.20 34.81M148.32 29.54L148.32 27.17Q148.32 24.66 148.05 23.93Q147.78 23.19 146.95 23.19Q145.92 23.19 145.68 23.82Q145.43 24.44 145.43 27.17L145.43 29.54L148.32 29.54ZM171.29 18.04L170.90 22.29Q173.05 17.72 177.12 17.46L177.12 28.86Q174.41 28.86 173.14 29.59Q171.88 30.32 171.58 31.63Q171.29 32.93 171.29 37.65L171.29 50.44L161.43 50.44L161.43 18.04L171.29 18.04ZM201.73 18.04L201.73 42.99Q201.73 48.05 201.50 49.52Q201.27 51.00 199.85 52.65Q198.44 54.30 195.91 55.16Q193.38 56.03 189.55 56.03Q184.84 56.03 181.98 54.43Q179.13 52.83 179.03 48.14L188.60 48.14Q188.60 50.29 190.16 50.29Q191.28 50.29 191.65 49.63Q192.02 48.97 192.02 46.88L192.02 44.43Q190.75 45.58 189.34 46.17Q187.94 46.75 186.40 46.75Q183.74 46.75 182.02 45.68Q180.30 44.60 179.66 42.86Q179.03 41.11 179.03 37.89L179.03 26.12Q179.03 21.51 180.69 19.48Q182.35 17.46 185.74 17.46Q187.60 17.46 189.12 18.21Q190.65 18.97 191.85 20.48L192.55 18.04L201.73 18.04M191.85 26.64Q191.85 24.41 191.59 23.80Q191.33 23.19 190.45 23.19Q189.60 23.19 189.25 23.89Q188.89 24.58 188.89 26.64L188.89 37.52Q188.89 39.70 189.16 40.34Q189.43 40.99 190.28 40.99Q191.26 40.99 191.55 40.21Q191.85 39.43 191.85 36.67L191.85 26.64ZM225.90 18.04L223.07 41.48Q222.41 47.05 221.96 49.07Q221.51 51.10 220.46 52.42Q219.41 53.74 217.54 54.36Q215.67 54.98 211.57 54.98L205.59 54.98L205.59 49.80Q207.89 49.80 208.54 49.57Q209.20 49.34 209.20 48.54Q209.20 48.14 208.59 45.14L203.20 18.04L212.16 18.04L215.38 39.89L216.94 18.04L225.90 18.04ZM268.48 10.91L268.48 50.44L259.50 50.44L259.50 23.75L255.91 50.44L249.54 50.44L245.75 24.37L245.75 50.44L236.77 50.44L236.77 10.91L250.07 10.91Q250.66 14.48 251.32 19.31L252.73 29.37L255.08 10.91L268.48 10.91ZM294.65 34.81L281.88 34.81L281.88 41.82Q281.88 44.02 282.20 44.65Q282.52 45.29 283.42 45.29Q284.55 45.29 284.92 44.45Q285.30 43.60 285.30 41.19L285.30 36.91L294.65 36.91L294.65 39.31Q294.65 42.31 294.27 43.92Q293.90 45.53 292.50 47.36Q291.11 49.19 288.98 50.11Q286.84 51.03 283.62 51.03Q280.49 51.03 278.10 50.12Q275.71 49.22 274.38 47.64Q273.05 46.07 272.53 44.18Q272.02 42.29 272.02 38.67L272.02 29.22Q272.02 24.98 273.17 22.52Q274.32 20.07 276.93 18.76Q279.54 17.46 282.93 17.46Q287.08 17.46 289.78 19.03Q292.48 20.61 293.57 23.21Q294.65 25.81 294.65 30.52L294.65 34.81M284.77 29.54L284.77 27.17Q284.77 24.66 284.50 23.93Q284.23 23.19 283.40 23.19Q282.37 23.19 282.13 23.82Q281.88 24.44 281.88 27.17L281.88 29.54L284.77 29.54ZM308.28 13.72L308.28 18.82L310.94 18.82L310.94 23.95L308.28 23.95L308.28 41.28Q308.28 44.48 308.61 44.85Q308.94 45.21 311.35 45.21L311.35 50.44L307.37 50.44Q304.00 50.44 302.56 50.16Q301.12 49.88 300.02 48.86Q298.93 47.85 298.66 46.55Q298.39 45.24 298.39 40.41L298.39 23.95L296.26 23.95L296.26 18.82L298.39 18.82L298.39 13.72L308.28 13.72ZM335.45 34.81L322.68 34.81L322.68 41.82Q322.68 44.02 323.00 44.65Q323.32 45.29 324.22 45.29Q325.34 45.29 325.72 44.45Q326.10 43.60 326.10 41.19L326.10 36.91L335.45 36.91L335.45 39.31Q335.45 42.31 335.07 43.92Q334.69 45.53 333.30 47.36Q331.91 49.19 329.77 50.11Q327.64 51.03 324.41 51.03Q321.29 51.03 318.90 50.12Q316.50 49.22 315.17 47.64Q313.84 46.07 313.33 44.18Q312.82 42.29 312.82 38.67L312.82 29.22Q312.82 24.98 313.96 22.52Q315.11 20.07 317.72 18.76Q320.34 17.46 323.73 17.46Q327.88 17.46 330.58 19.03Q333.28 20.61 334.36 23.21Q335.45 25.81 335.45 30.52L335.45 34.81M325.56 29.54L325.56 27.17Q325.56 24.66 325.29 23.93Q325.02 23.19 324.19 23.19Q323.17 23.19 322.92 23.82Q322.68 24.44 322.68 27.17L322.68 29.54L325.56 29.54ZM348.54 18.04L348.14 22.29Q350.29 17.72 354.37 17.46L354.37 28.86Q351.66 28.86 350.39 29.59Q349.12 30.32 348.83 31.63Q348.54 32.93 348.54 37.65L348.54 50.44L338.67 50.44L338.67 18.04L348.54 18.04Z"/></g></g></svg>