<svg xmlns="http://www.w3.org/2000/svg" viewBox="0 10.07948587560665 578.8604458029139 45.94654201274308" data-asc="1.0087890625"><g fill="#000000"><g fill="#000000" transform="translate(0, 0)"><path d="M23.88 25.46L13.60 25.46L13.60 21.88Q13.60 18.48 13.31 17.63Q13.01 16.77 11.91 16.77Q10.96 16.77 10.62 17.50Q10.28 18.24 10.28 21.26L10.28 40.23Q10.28 42.90 10.62 43.74Q10.96 44.58 11.99 44.58Q13.11 44.58 13.51 43.63Q13.92 42.68 13.92 39.92L13.92 35.23L11.84 35.23L11.84 29.22L23.88 29.22L23.88 50.44L17.41 50.44L16.46 47.61Q15.41 49.44 13.81 50.35Q12.21 51.27 10.03 51.27Q7.45 51.27 5.19 50.01Q2.93 48.75 1.76 46.90Q0.59 45.04 0.29 43.01Q0 40.97 0 36.89L0 25.15Q0 19.48 0.61 16.92Q1.22 14.36 4.11 12.22Q7.01 10.08 11.60 10.08Q16.11 10.08 19.09 11.94Q22.07 13.79 22.97 16.35Q23.88 18.90 23.88 23.75L23.88 25.46ZM37.43 18.04L37.04 22.29Q39.18 17.72 43.26 17.46L43.26 28.86Q40.55 28.86 39.28 29.59Q38.01 30.32 37.72 31.63Q37.43 32.93 37.43 37.65L37.43 50.44L27.56 50.44L27.56 18.04L37.43 18.04ZM67.80 34.81L55.03 34.81L55.03 41.82Q55.03 44.02 55.35 44.65Q55.66 45.29 56.57 45.29Q57.69 45.29 58.07 44.45Q58.45 43.60 58.45 41.19L58.45 36.91L67.80 36.91L67.80 39.31Q67.80 42.31 67.42 43.92Q67.04 45.53 65.65 47.36Q64.26 49.19 62.12 50.11Q59.99 51.03 56.76 51.03Q53.64 51.03 51.25 50.12Q48.85 49.22 47.52 47.64Q46.19 46.07 45.68 44.18Q45.17 42.29 45.17 38.67L45.17 29.22Q45.17 24.98 46.31 22.52Q47.46 20.07 50.07 18.76Q52.69 17.46 56.08 17.46Q60.23 17.46 62.93 19.03Q65.63 20.61 66.71 23.21Q67.80 25.81 67.80 30.52L67.80 34.81M57.91 29.54L57.91 27.17Q57.91 24.66 57.64 23.93Q57.37 23.19 56.54 23.19Q55.52 23.19 55.27 23.82Q55.03 24.44 55.03 27.17L55.03 29.54L57.91 29.54ZM93.36 34.81L80.59 34.81L80.59 41.82Q80.59 44.02 80.91 44.65Q81.23 45.29 82.13 45.29Q83.25 45.29 83.63 44.45Q84.01 43.60 84.01 41.19L84.01 36.91L93.36 36.91L93.36 39.31Q93.36 42.31 92.98 43.92Q92.60 45.53 91.21 47.36Q89.82 49.19 87.68 50.11Q85.55 51.03 82.32 51.03Q79.20 51.03 76.81 50.12Q74.41 49.22 73.08 47.64Q71.75 46.07 71.24 44.18Q70.73 42.29 70.73 38.67L70.73 29.22Q70.73 24.98 71.88 22.52Q73.02 20.07 75.63 18.76Q78.25 17.46 81.64 17.46Q85.79 17.46 88.49 19.03Q91.19 20.61 92.27 23.21Q93.36 25.81 93.36 30.52L93.36 34.81M83.47 29.54L83.47 27.17Q83.47 24.66 83.20 23.93Q82.93 23.19 82.10 23.19Q81.08 23.19 80.83 23.82Q80.59 24.44 80.59 27.17L80.59 29.54L83.47 29.54ZM106.62 18.04L106.45 21.02Q107.52 19.24 109.07 18.35Q110.62 17.46 112.65 17.46Q115.19 17.46 116.80 18.65Q118.41 19.85 118.87 21.67Q119.34 23.49 119.34 27.73L119.34 50.44L109.47 50.44L109.47 28.00Q109.47 24.66 109.25 23.93Q109.03 23.19 108.03 23.19Q106.98 23.19 106.71 24.04Q106.45 24.88 106.45 28.54L106.45 50.44L96.58 50.44L96.58 18.04L106.62 18.04ZM149.58 10.91L155.47 50.44L144.95 50.44L144.43 43.33L140.75 43.33L140.14 50.44L129.49 50.44L134.72 10.91L149.58 10.91M144.14 36.33Q143.36 29.61 142.58 19.75Q141.02 31.08 140.63 36.33L144.14 36.33ZM167.09 10.91L167.09 50.44L156.93 50.44L156.93 10.91L167.09 10.91ZM193.04 18.04L193.04 42.99Q193.04 48.05 192.81 49.52Q192.58 51.00 191.16 52.65Q189.75 54.30 187.22 55.16Q184.69 56.03 180.86 56.03Q176.15 56.03 173.29 54.43Q170.43 52.83 170.34 48.14L179.91 48.14Q179.91 50.29 181.47 50.29Q182.59 50.29 182.96 49.63Q183.33 48.97 183.33 46.88L183.33 44.43Q182.06 45.58 180.65 46.17Q179.25 46.75 177.71 46.75Q175.05 46.75 173.33 45.68Q171.61 44.60 170.97 42.86Q170.34 41.11 170.34 37.89L170.34 26.12Q170.34 21.51 172.00 19.48Q173.66 17.46 177.05 17.46Q178.91 17.46 180.43 18.21Q181.96 18.97 183.15 20.48L183.86 18.04L193.04 18.04M183.15 26.64Q183.15 24.41 182.90 23.80Q182.64 23.19 181.76 23.19Q180.91 23.19 180.55 23.89Q180.20 24.58 180.20 26.64L180.20 37.52Q180.20 39.70 180.47 40.34Q180.74 40.99 181.59 40.99Q182.57 40.99 182.86 40.21Q183.15 39.43 183.15 36.67L183.15 26.64ZM218.87 29.42L218.87 37.35Q218.87 41.72 218.43 43.76Q217.99 45.80 216.55 47.57Q215.11 49.34 212.85 50.18Q210.60 51.03 207.67 51.03Q204.39 51.03 202.12 50.31Q199.85 49.58 198.60 48.13Q197.34 46.68 196.80 44.62Q196.26 42.55 196.26 38.43L196.26 30.13Q196.26 25.61 197.24 23.07Q198.22 20.53 200.76 18.99Q203.30 17.46 207.25 17.46Q210.57 17.46 212.95 18.44Q215.33 19.43 216.63 21.02Q217.92 22.61 218.40 24.29Q218.87 25.98 218.87 29.42M209.01 26.98Q209.01 24.49 208.74 23.84Q208.47 23.19 207.59 23.19Q206.71 23.19 206.42 23.84Q206.13 24.49 206.13 26.98L206.13 41.60Q206.13 43.90 206.42 44.59Q206.71 45.29 207.57 45.29Q208.45 45.29 208.73 44.65Q209.01 44.02 209.01 41.92L209.01 26.98ZM231.98 18.04L231.59 22.29Q233.74 17.72 237.82 17.46L237.82 28.86Q235.11 28.86 233.84 29.59Q232.57 30.32 232.28 31.63Q231.98 32.93 231.98 37.65L231.98 50.44L222.12 50.44L222.12 18.04L231.98 18.04ZM250.17 10.91L250.17 16.06L240.01 16.06L240.01 10.91L250.17 10.91M250.17 18.04L250.17 50.44L240.01 50.44L240.01 18.04L250.17 18.04ZM264.11 13.72L264.11 18.82L266.77 18.82L266.77 23.95L264.11 23.95L264.11 41.28Q264.11 44.48 264.44 44.85Q264.77 45.21 267.19 45.21L267.19 50.44L263.21 50.44Q259.84 50.44 258.40 50.16Q256.96 49.88 255.86 48.86Q254.76 47.85 254.49 46.55Q254.22 45.24 254.22 40.41L254.22 23.95L252.10 23.95L252.10 18.82L254.22 18.82L254.22 13.72L264.11 13.72ZM278.81 10.91L278.81 19.80Q280.08 18.63 281.56 18.04Q283.03 17.46 284.72 17.46Q287.30 17.46 289.12 18.77Q290.94 20.09 291.35 21.81Q291.75 23.54 291.75 28.10L291.75 50.44L281.88 50.44L281.88 27.64Q281.88 24.80 281.60 24.00Q281.32 23.19 280.35 23.19Q279.44 23.19 279.13 24.02Q278.81 24.85 278.81 27.32L278.81 50.44L268.95 50.44L268.95 10.91L278.81 10.91ZM304.88 18.04L304.71 21.12Q305.86 19.29 307.45 18.37Q309.03 17.46 311.06 17.46Q315.01 17.46 317.29 21.12Q318.53 19.29 320.09 18.37Q321.66 17.46 323.56 17.46Q326.07 17.46 327.72 18.68Q329.37 19.90 329.83 21.67Q330.30 23.44 330.30 27.42L330.30 50.44L320.73 50.44L320.73 29.32Q320.73 25.17 320.45 24.18Q320.17 23.19 319.14 23.19Q318.09 23.19 317.79 24.17Q317.48 25.15 317.48 29.32L317.48 50.44L307.91 50.44L307.91 29.86Q307.91 25.10 307.68 24.15Q307.45 23.19 306.40 23.19Q305.74 23.19 305.27 23.69Q304.81 24.19 304.76 24.91Q304.71 25.63 304.71 27.98L304.71 50.44L295.14 50.44L295.14 18.04L304.88 18.04ZM353.83 28.39L345.09 28.39L345.09 26.64Q345.09 24.39 344.84 23.79Q344.58 23.19 343.55 23.19Q342.72 23.19 342.31 23.74Q341.89 24.29 341.89 25.39Q341.89 26.88 342.10 27.58Q342.31 28.27 343.35 29.10Q344.38 29.93 347.61 31.52Q351.90 33.62 353.25 35.47Q354.59 37.33 354.59 40.87Q354.59 44.82 353.56 46.84Q352.54 48.85 350.13 49.94Q347.73 51.03 344.34 51.03Q340.58 51.03 337.90 49.85Q335.23 48.68 334.23 46.68Q333.23 44.68 333.23 40.63L333.23 39.06L341.97 39.06L341.97 41.11Q341.97 43.73 342.30 44.51Q342.63 45.29 343.60 45.29Q344.65 45.29 345.07 44.76Q345.48 44.24 345.48 42.55Q345.48 40.23 344.95 39.65Q344.38 39.06 339.21 36.18Q334.86 33.74 333.91 31.75Q332.96 29.76 332.96 27.03Q332.96 23.14 333.98 21.30Q335.01 19.46 337.46 18.46Q339.92 17.46 343.16 17.46Q346.39 17.46 348.65 18.27Q350.90 19.09 352.11 20.43Q353.32 21.78 353.58 22.92Q353.83 24.07 353.83 26.51L353.83 28.39ZM390.33 28.15L380.05 28.15L380.05 21.26Q380.05 18.26 379.72 17.52Q379.39 16.77 378.27 16.77Q377.00 16.77 376.66 17.68Q376.32 18.58 376.32 21.58L376.32 39.94Q376.32 42.82 376.66 43.70Q377.00 44.58 378.20 44.58Q379.35 44.58 379.70 43.70Q380.05 42.82 380.05 39.58L380.05 34.62L390.33 34.62L390.33 36.16Q390.33 42.29 389.47 44.85Q388.60 47.41 385.63 49.34Q382.67 51.27 378.32 51.27Q373.80 51.27 370.87 49.63Q367.94 48.00 366.99 45.10Q366.04 42.21 366.04 36.40L366.04 24.85Q366.04 20.58 366.33 18.44Q366.63 16.31 368.08 14.33Q369.53 12.35 372.11 11.22Q374.68 10.08 378.03 10.08Q382.57 10.08 385.52 11.84Q388.48 13.60 389.40 16.22Q390.33 18.85 390.33 24.39L390.33 28.15ZM402.54 30.59L393.29 30.59L393.29 28.42Q393.29 24.66 394.15 22.62Q395.02 20.58 397.63 19.02Q400.24 17.46 404.42 17.46Q409.42 17.46 411.96 19.23Q414.50 21.00 415.01 23.57Q415.53 26.15 415.53 34.18L415.53 50.44L405.93 50.44L405.93 47.56Q405.03 49.29 403.60 50.16Q402.17 51.03 400.20 51.03Q397.61 51.03 395.45 49.57Q393.29 48.12 393.29 43.21L393.29 40.55Q393.29 36.91 394.43 35.60Q395.58 34.28 400.12 32.52Q404.98 30.62 405.32 29.96Q405.66 29.30 405.66 27.27Q405.66 24.73 405.29 23.96Q404.91 23.19 404.03 23.19Q403.03 23.19 402.78 23.84Q402.54 24.49 402.54 27.20L402.54 30.59M405.66 35.03Q403.30 36.77 402.92 37.94Q402.54 39.11 402.54 41.31Q402.54 43.82 402.87 44.56Q403.20 45.29 404.17 45.29Q405.10 45.29 405.38 44.71Q405.66 44.14 405.66 41.70L405.66 35.03ZM429.08 10.91L429.08 50.44L418.92 50.44L418.92 10.91L429.08 10.91ZM454.42 30.27L445.12 30.27L445.12 26.54Q445.12 24.58 444.80 23.89Q444.48 23.19 443.63 23.19Q442.77 23.19 442.48 23.80Q442.19 24.41 442.19 26.54L442.19 41.82Q442.19 43.55 442.63 44.42Q443.07 45.29 443.92 45.29Q444.92 45.29 445.28 44.38Q445.63 43.48 445.63 40.97L445.63 37.11L454.42 37.11Q454.39 40.99 454.14 42.93Q453.88 44.87 452.50 46.91Q451.12 48.95 448.90 49.99Q446.68 51.03 443.41 51.03Q439.23 51.03 436.79 49.60Q434.35 48.17 433.34 45.59Q432.32 43.02 432.32 38.28L432.32 29.08Q432.32 24.95 433.15 22.85Q433.98 20.75 436.69 19.10Q439.40 17.46 443.29 17.46Q447.14 17.46 449.88 19.09Q452.61 20.73 453.52 23.22Q454.42 25.71 454.42 30.27ZM479.93 18.04L479.93 50.44L469.90 50.44L470.07 47.75Q469.04 49.39 467.54 50.21Q466.04 51.03 464.09 51.03Q461.87 51.03 460.40 50.24Q458.94 49.46 458.24 48.17Q457.54 46.88 457.37 45.47Q457.20 44.07 457.20 39.89L457.20 18.04L467.07 18.04L467.07 40.09Q467.07 43.87 467.30 44.58Q467.53 45.29 468.55 45.29Q469.65 45.29 469.86 44.56Q470.07 43.82 470.07 39.84L470.07 18.04L479.93 18.04ZM493.63 10.91L493.63 50.44L483.47 50.44L483.47 10.91L493.63 10.91ZM505.98 30.59L496.73 30.59L496.73 28.42Q496.73 24.66 497.60 22.62Q498.46 20.58 501.07 19.02Q503.69 17.46 507.86 17.46Q512.87 17.46 515.41 19.23Q517.94 21.00 518.46 23.57Q518.97 26.15 518.97 34.18L518.97 50.44L509.38 50.44L509.38 47.56Q508.47 49.29 507.04 50.16Q505.62 51.03 503.64 51.03Q501.05 51.03 498.89 49.57Q496.73 48.12 496.73 43.21L496.73 40.55Q496.73 36.91 497.88 35.60Q499.02 34.28 503.56 32.52Q508.42 30.62 508.76 29.96Q509.11 29.30 509.11 27.27Q509.11 24.73 508.73 23.96Q508.35 23.19 507.47 23.19Q506.47 23.19 506.23 23.84Q505.98 24.49 505.98 27.20L505.98 30.59M509.11 35.03Q506.74 36.77 506.36 37.94Q505.98 39.11 505.98 41.31Q505.98 43.82 506.31 44.56Q506.64 45.29 507.62 45.29Q508.54 45.29 508.83 44.71Q509.11 44.14 509.11 41.70L509.11 35.03ZM532.76 13.72L532.76 18.82L535.42 18.82L535.42 23.95L532.76 23.95L532.76 41.28Q532.76 44.48 533.09 44.85Q533.42 45.21 535.84 45.21L535.84 50.44L531.86 50.44Q528.49 50.44 527.05 50.16Q525.61 49.88 524.51 48.86Q523.41 47.85 523.14 46.55Q522.88 45.24 522.88 40.41L522.88 23.95L520.75 23.95L520.75 18.82L522.88 18.82L522.88 13.72L532.76 13.72ZM559.91 29.42L559.91 37.35Q559.91 41.72 559.47 43.76Q559.03 45.80 557.59 47.57Q556.15 49.34 553.89 50.18Q551.64 51.03 548.71 51.03Q545.43 51.03 543.16 50.31Q540.89 49.58 539.64 48.13Q538.38 46.68 537.84 44.62Q537.30 42.55 537.30 38.43L537.30 30.13Q537.30 25.61 538.28 23.07Q539.26 20.53 541.80 18.99Q544.34 17.46 548.29 17.46Q551.61 17.46 553.99 18.44Q556.37 19.43 557.67 21.02Q558.96 22.61 559.44 24.29Q559.91 25.98 559.91 29.42M550.05 26.98Q550.05 24.49 549.78 23.84Q549.51 23.19 548.63 23.19Q547.75 23.19 547.46 23.84Q547.17 24.49 547.17 26.98L547.17 41.60Q547.17 43.90 547.46 44.59Q547.75 45.29 548.61 45.29Q549.49 45.29 549.77 44.65Q550.05 44.02 550.05 41.92L550.05 26.98ZM573.02 18.04L572.63 22.29Q574.78 17.72 578.86 17.46L578.86 28.86Q576.15 28.86 574.88 29.59Q573.61 30.32 573.32 31.63Q573.02 32.93 573.02 37.65L573.02 50.44L563.16 50.44L563.16 18.04L573.02 18.04Z"/></g></g></svg>