<svg xmlns="http://www.w3.org/2000/svg" viewBox="0 10.07948587560665 427.1670385397999 41.18606085079281" data-asc="1.0087890625"><g fill="#000000"><g fill="#000000" transform="translate(0, 0)"><path d="M23.88 25.46L13.60 25.46L13.60 21.88Q13.60 18.48 13.31 17.63Q13.01 16.77 11.91 16.77Q10.96 16.77 10.62 17.50Q10.28 18.24 10.28 21.26L10.28 40.23Q10.28 42.90 10.62 43.74Q10.96 44.58 11.99 44.58Q13.11 44.58 13.51 43.63Q13.92 42.68 13.92 39.92L13.92 35.23L11.84 35.23L11.84 29.22L23.88 29.22L23.88 50.44L17.41 50.44L16.46 47.61Q15.41 49.44 13.81 50.35Q12.21 51.27 10.03 51.27Q7.45 51.27 5.19 50.01Q2.93 48.75 1.76 46.90Q0.59 45.04 0.29 43.01Q0 40.97 0 36.89L0 25.15Q0 19.48 0.61 16.92Q1.22 14.36 4.11 12.22Q7.01 10.08 11.60 10.08Q16.11 10.08 19.09 11.94Q22.07 13.79 22.97 16.35Q23.88 18.90 23.88 23.75L23.88 25.46ZM37.43 18.04L37.04 22.29Q39.18 17.72 43.26 17.46L43.26 28.86Q40.55 28.86 39.28 29.59Q38.01 30.32 37.72 31.63Q37.43 32.93 37.43 37.65L37.43 50.44L27.56 50.44L27.56 18.04L37.43 18.04ZM55.62 10.91L55.62 16.06L45.46 16.06L45.46 10.91L55.62 10.91M55.62 18.04L55.62 50.44L45.46 50.44L45.46 18.04L55.62 18.04ZM81.59 10.91L81.59 50.44L71.73 50.44L71.73 48.10Q70.31 49.56 68.75 50.29Q67.19 51.03 65.48 51.03Q63.18 51.03 61.50 49.82Q59.81 48.61 59.34 47.02Q58.86 45.43 58.86 41.85L58.86 26.68Q58.86 22.95 59.34 21.39Q59.81 19.82 61.52 18.64Q63.23 17.46 65.60 17.46Q67.43 17.46 68.96 18.12Q70.48 18.77 71.73 20.09L71.73 10.91L81.59 10.91M71.73 26.20Q71.73 24.41 71.42 23.80Q71.12 23.19 70.21 23.19Q69.34 23.19 69.03 23.74Q68.73 24.29 68.73 26.20L68.73 42.07Q68.73 44.04 69.02 44.67Q69.31 45.29 70.14 45.29Q71.09 45.29 71.41 44.59Q71.73 43.90 71.73 41.19L71.73 26.20ZM97.22 30.83L97.22 37.65L84.25 37.65L84.25 30.83L97.22 30.83ZM108.67 30.59L99.41 30.59L99.41 28.42Q99.41 24.66 100.28 22.62Q101.15 20.58 103.76 19.02Q106.37 17.46 110.55 17.46Q115.55 17.46 118.09 19.23Q120.63 21.00 121.14 23.57Q121.66 26.15 121.66 34.18L121.66 50.44L112.06 50.44L112.06 47.56Q111.16 49.29 109.73 50.16Q108.30 51.03 106.32 51.03Q103.74 51.03 101.57 49.57Q99.41 48.12 99.41 43.21L99.41 40.55Q99.41 36.91 100.56 35.60Q101.71 34.28 106.25 32.52Q111.11 30.62 111.45 29.96Q111.79 29.30 111.79 27.27Q111.79 24.73 111.41 23.96Q111.04 23.19 110.16 23.19Q109.16 23.19 108.91 23.84Q108.67 24.49 108.67 27.20L108.67 30.59M111.79 35.03Q109.42 36.77 109.05 37.94Q108.67 39.11 108.67 41.31Q108.67 43.82 109.00 44.56Q109.33 45.29 110.30 45.29Q111.23 45.29 111.51 44.71Q111.79 44.14 111.79 41.70L111.79 35.03ZM156.91 18.04L152.98 50.44L142.26 50.44Q141.38 44.51 140.23 34.81Q139.84 39.06 139.14 43.41L138.04 50.44L127.32 50.44L123.14 18.04L131.64 18.04Q131.74 19.31 133.79 36.57Q133.94 34.81 135.99 18.04L144.17 18.04L146.17 36.57Q146.63 28.47 148.41 18.04L156.91 18.04ZM167.33 30.59L158.08 30.59L158.08 28.42Q158.08 24.66 158.95 22.62Q159.81 20.58 162.43 19.02Q165.04 17.46 169.21 17.46Q174.22 17.46 176.76 19.23Q179.30 21.00 179.81 23.57Q180.32 26.15 180.32 34.18L180.32 50.44L170.73 50.44L170.73 47.56Q169.82 49.29 168.40 50.16Q166.97 51.03 164.99 51.03Q162.40 51.03 160.24 49.57Q158.08 48.12 158.08 43.21L158.08 40.55Q158.08 36.91 159.23 35.60Q160.38 34.28 164.92 32.52Q169.78 30.62 170.12 29.96Q170.46 29.30 170.46 27.27Q170.46 24.73 170.08 23.96Q169.70 23.19 168.82 23.19Q167.82 23.19 167.58 23.84Q167.33 24.49 167.33 27.20L167.33 30.59M170.46 35.03Q168.09 36.77 167.71 37.94Q167.33 39.11 167.33 41.31Q167.33 43.82 167.66 44.56Q167.99 45.29 168.97 45.29Q169.90 45.29 170.18 44.71Q170.46 44.14 170.46 41.70L170.46 35.03ZM193.58 18.04L193.19 22.29Q195.34 17.72 199.41 17.46L199.41 28.86Q196.70 28.86 195.43 29.59Q194.17 30.32 193.87 31.63Q193.58 32.93 193.58 37.65L193.58 50.44L183.72 50.44L183.72 18.04L193.58 18.04ZM223.95 34.81L211.18 34.81L211.18 41.82Q211.18 44.02 211.50 44.65Q211.82 45.29 212.72 45.29Q213.84 45.29 214.22 44.45Q214.60 43.60 214.60 41.19L214.60 36.91L223.95 36.91L223.95 39.31Q223.95 42.31 223.57 43.92Q223.19 45.53 221.80 47.36Q220.41 49.19 218.27 50.11Q216.14 51.03 212.92 51.03Q209.79 51.03 207.40 50.12Q205.00 49.22 203.67 47.64Q202.34 46.07 201.83 44.18Q201.32 42.29 201.32 38.67L201.32 29.22Q201.32 24.98 202.47 22.52Q203.61 20.07 206.23 18.76Q208.84 17.46 212.23 17.46Q216.38 17.46 219.08 19.03Q221.78 20.61 222.86 23.21Q223.95 25.81 223.95 30.52L223.95 34.81M214.06 29.54L214.06 27.17Q214.06 24.66 213.79 23.93Q213.53 23.19 212.70 23.19Q211.67 23.19 211.43 23.82Q211.18 24.44 211.18 27.17L211.18 29.54L214.06 29.54ZM274.95 10.91L270.39 50.44L257.54 50.44Q255.79 41.33 254.44 29.74Q253.83 34.69 251.59 50.44L238.82 50.44L234.23 10.91L244.21 10.91L245.26 24.71L246.34 38.01Q246.90 27.69 249.17 10.91L259.86 10.91Q260.08 12.65 260.99 23.95L262.11 38.96Q262.96 24.63 264.97 10.91L274.95 10.91ZM299.05 34.81L286.28 34.81L286.28 41.82Q286.28 44.02 286.60 44.65Q286.91 45.29 287.82 45.29Q288.94 45.29 289.32 44.45Q289.70 43.60 289.70 41.19L289.70 36.91L299.05 36.91L299.05 39.31Q299.05 42.31 298.67 43.92Q298.29 45.53 296.90 47.36Q295.51 49.19 293.37 50.11Q291.24 51.03 288.01 51.03Q284.89 51.03 282.50 50.12Q280.10 49.22 278.77 47.64Q277.44 46.07 276.93 44.18Q276.42 42.29 276.42 38.67L276.42 29.22Q276.42 24.98 277.56 22.52Q278.71 20.07 281.32 18.76Q283.94 17.46 287.33 17.46Q291.48 17.46 294.18 19.03Q296.88 20.61 297.96 23.21Q299.05 25.81 299.05 30.52L299.05 34.81M289.16 29.54L289.16 27.17Q289.16 24.66 288.89 23.93Q288.62 23.19 287.79 23.19Q286.77 23.19 286.52 23.82Q286.28 24.44 286.28 27.17L286.28 29.54L289.16 29.54ZM312.13 10.91L312.13 20.26Q313.35 18.85 314.86 18.15Q316.36 17.46 318.12 17.46Q320.14 17.46 321.63 18.09Q323.12 18.73 323.90 19.87Q324.68 21.02 324.84 22.12Q325 23.22 325 26.81L325 41.41Q325 44.97 324.52 46.72Q324.05 48.46 322.29 49.74Q320.53 51.03 318.12 51.03Q316.38 51.03 314.88 50.27Q313.38 49.51 312.13 48.00L311.50 50.44L302.27 50.44L302.27 10.91L312.13 10.91M315.14 27.25Q315.14 24.73 314.82 23.96Q314.50 23.19 313.57 23.19Q312.67 23.19 312.40 23.86Q312.13 24.54 312.13 27.25L312.13 41.21Q312.13 43.82 312.44 44.56Q312.74 45.29 313.65 45.29Q314.58 45.29 314.86 44.53Q315.14 43.77 315.14 40.89L315.14 27.25ZM348.39 28.39L339.65 28.39L339.65 26.64Q339.65 24.39 339.39 23.79Q339.14 23.19 338.11 23.19Q337.28 23.19 336.87 23.74Q336.45 24.29 336.45 25.39Q336.45 26.88 336.66 27.58Q336.87 28.27 337.90 29.10Q338.94 29.93 342.16 31.52Q346.46 33.62 347.80 35.47Q349.15 37.33 349.15 40.87Q349.15 44.82 348.12 46.84Q347.09 48.85 344.69 49.94Q342.29 51.03 338.89 51.03Q335.13 51.03 332.46 49.85Q329.79 48.68 328.78 46.68Q327.78 44.68 327.78 40.63L327.78 39.06L336.52 39.06L336.52 41.11Q336.52 43.73 336.85 44.51Q337.18 45.29 338.16 45.29Q339.21 45.29 339.62 44.76Q340.04 44.24 340.04 42.55Q340.04 40.23 339.50 39.65Q338.94 39.06 333.76 36.18Q329.42 33.74 328.47 31.75Q327.51 29.76 327.51 27.03Q327.51 23.14 328.54 21.30Q329.57 19.46 332.02 18.46Q334.47 17.46 337.72 17.46Q340.94 17.46 343.20 18.27Q345.46 19.09 346.67 20.43Q347.88 21.78 348.13 22.92Q348.39 24.07 348.39 26.51L348.39 28.39ZM361.94 10.91L361.94 16.06L351.78 16.06L351.78 10.91L361.94 10.91M361.94 18.04L361.94 50.44L351.78 50.44L351.78 18.04L361.94 18.04ZM375.88 13.72L375.88 18.82L378.54 18.82L378.54 23.95L375.88 23.95L375.88 41.28Q375.88 44.48 376.21 44.85Q376.54 45.21 378.96 45.21L378.96 50.44L374.98 50.44Q371.61 50.44 370.17 50.16Q368.73 49.88 367.63 48.86Q366.53 47.85 366.26 46.55Q365.99 45.24 365.99 40.41L365.99 23.95L363.87 23.95L363.87 18.82L365.99 18.82L365.99 13.72L375.88 13.72ZM403.05 34.81L390.28 34.81L390.28 41.82Q390.28 44.02 390.60 44.65Q390.92 45.29 391.82 45.29Q392.94 45.29 393.32 44.45Q393.70 43.60 393.70 41.19L393.70 36.91L403.05 36.91L403.05 39.31Q403.05 42.31 402.67 43.92Q402.29 45.53 400.90 47.36Q399.51 49.19 397.38 50.11Q395.24 51.03 392.02 51.03Q388.89 51.03 386.50 50.12Q384.11 49.22 382.78 47.64Q381.45 46.07 380.93 44.18Q380.42 42.29 380.42 38.67L380.42 29.22Q380.42 24.98 381.57 22.52Q382.71 20.07 385.33 18.76Q387.94 17.46 391.33 17.46Q395.48 17.46 398.18 19.03Q400.88 20.61 401.97 23.21Q403.05 25.81 403.05 30.52L403.05 34.81M393.16 29.54L393.16 27.17Q393.16 24.66 392.90 23.93Q392.63 23.19 391.80 23.19Q390.77 23.19 390.53 23.82Q390.28 24.44 390.28 27.17L390.28 29.54L393.16 29.54ZM426.42 28.39L417.68 28.39L417.68 26.64Q417.68 24.39 417.42 23.79Q417.16 23.19 416.14 23.19Q415.31 23.19 414.89 23.74Q414.48 24.29 414.48 25.39Q414.48 26.88 414.69 27.58Q414.89 28.27 415.93 29.10Q416.97 29.93 420.19 31.52Q424.49 33.62 425.83 35.47Q427.17 37.33 427.17 40.87Q427.17 44.82 426.15 46.84Q425.12 48.85 422.72 49.94Q420.31 51.03 416.92 51.03Q413.16 51.03 410.49 49.85Q407.81 48.68 406.81 46.68Q405.81 44.68 405.81 40.63L405.81 39.06L414.55 39.06L414.55 41.11Q414.55 43.73 414.88 44.51Q415.21 45.29 416.19 45.29Q417.24 45.29 417.65 44.76Q418.07 44.24 418.07 42.55Q418.07 40.23 417.53 39.65Q416.97 39.06 411.79 36.18Q407.45 33.74 406.49 31.75Q405.54 29.76 405.54 27.03Q405.54 23.14 406.57 21.30Q407.59 19.46 410.05 18.46Q412.50 17.46 415.75 17.46Q418.97 17.46 421.23 18.27Q423.49 19.09 424.69 20.43Q425.90 21.78 426.16 22.92Q426.42 24.07 426.42 26.51L426.42 28.39Z"/></g></g></svg>