<svg xmlns="http://www.w3.org/2000/svg" viewBox="0 10.905034107337714 344.1426945844683 45.1214969956401" data-asc="1.0087890625"><g fill="#000000"><g fill="#000000" transform="translate(0, 0)"><path d="M22.71 18.04L22.71 42.99Q22.71 48.05 22.47 49.52Q22.24 51.00 20.83 52.65Q19.41 54.30 16.88 55.16Q14.36 56.03 10.52 56.03Q5.81 56.03 2.95 54.43Q0.10 52.83 0 48.14L9.57 48.14Q9.57 50.29 11.13 50.29Q12.26 50.29 12.62 49.63Q12.99 48.97 12.99 46.88L12.99 44.43Q11.72 45.58 10.31 46.17Q8.91 46.75 7.37 46.75Q4.71 46.75 2.99 45.68Q1.27 44.60 0.63 42.86Q0 41.11 0 37.89L0 26.12Q0 21.51 1.66 19.48Q3.32 17.46 6.71 17.46Q8.57 17.46 10.10 18.21Q11.62 18.97 12.82 20.48L13.53 18.04L22.71 18.04M12.82 26.64Q12.82 24.41 12.56 23.80Q12.30 23.19 11.43 23.19Q10.57 23.19 10.22 23.89Q9.86 24.58 9.86 26.64L9.86 37.52Q9.86 39.70 10.13 40.34Q10.40 40.99 11.25 40.99Q12.23 40.99 12.52 40.21Q12.82 39.43 12.82 36.67L12.82 26.64ZM36.08 18.04L35.69 22.29Q37.84 17.72 41.92 17.46L41.92 28.86Q39.21 28.86 37.94 29.59Q36.67 30.32 36.38 31.63Q36.08 32.93 36.08 37.65L36.08 50.44L26.22 50.44L26.22 18.04L36.08 18.04ZM54.27 10.91L54.27 16.06L44.12 16.06L44.12 10.91L54.27 10.91M54.27 18.04L54.27 50.44L44.12 50.44L44.12 18.04L54.27 18.04ZM80.25 10.91L80.25 50.44L70.39 50.44L70.39 48.10Q68.97 49.56 67.41 50.29Q65.84 51.03 64.14 51.03Q61.84 51.03 60.16 49.82Q58.47 48.61 58.00 47.02Q57.52 45.43 57.52 41.85L57.52 26.68Q57.52 22.95 58.00 21.39Q58.47 19.82 60.18 18.64Q61.89 17.46 64.26 17.46Q66.09 17.46 67.61 18.12Q69.14 18.77 70.39 20.09L70.39 10.91L80.25 10.91M70.39 26.20Q70.39 24.41 70.08 23.80Q69.78 23.19 68.87 23.19Q67.99 23.19 67.69 23.74Q67.38 24.29 67.38 26.20L67.38 42.07Q67.38 44.04 67.68 44.67Q67.97 45.29 68.80 45.29Q69.75 45.29 70.07 44.59Q70.39 43.90 70.39 41.19L70.39 26.20ZM95.87 30.83L95.87 37.65L82.91 37.65L82.91 30.83L95.87 30.83ZM108.67 10.91L108.67 16.06L98.51 16.06L98.51 10.91L108.67 10.91M108.67 18.04L108.67 50.44L98.51 50.44L98.51 18.04L108.67 18.04ZM122.24 18.04L122.07 21.02Q123.14 19.24 124.69 18.35Q126.25 17.46 128.27 17.46Q130.81 17.46 132.42 18.65Q134.03 19.85 134.50 21.67Q134.96 23.49 134.96 27.73L134.96 50.44L125.10 50.44L125.10 28.00Q125.10 24.66 124.88 23.93Q124.66 23.19 123.66 23.19Q122.61 23.19 122.34 24.04Q122.07 24.88 122.07 28.54L122.07 50.44L112.21 50.44L112.21 18.04L122.24 18.04ZM148.75 13.72L148.75 18.82L151.42 18.82L151.42 23.95L148.75 23.95L148.75 41.28Q148.75 44.48 149.08 44.85Q149.41 45.21 151.83 45.21L151.83 50.44L147.85 50.44Q144.48 50.44 143.04 50.16Q141.60 49.88 140.50 48.86Q139.40 47.85 139.14 46.55Q138.87 45.24 138.87 40.41L138.87 23.95L136.74 23.95L136.74 18.82L138.87 18.82L138.87 13.72L148.75 13.72ZM175.93 34.81L163.16 34.81L163.16 41.82Q163.16 44.02 163.48 44.65Q163.79 45.29 164.70 45.29Q165.82 45.29 166.20 44.45Q166.58 43.60 166.58 41.19L166.58 36.91L175.93 36.91L175.93 39.31Q175.93 42.31 175.55 43.92Q175.17 45.53 173.78 47.36Q172.39 49.19 170.25 50.11Q168.12 51.03 164.89 51.03Q161.77 51.03 159.38 50.12Q156.98 49.22 155.65 47.64Q154.32 46.07 153.81 44.18Q153.30 42.29 153.30 38.67L153.30 29.22Q153.30 24.98 154.44 22.52Q155.59 20.07 158.20 18.76Q160.82 17.46 164.21 17.46Q168.36 17.46 171.06 19.03Q173.75 20.61 174.84 23.21Q175.93 25.81 175.93 30.52L175.93 34.81M166.04 29.54L166.04 27.17Q166.04 24.66 165.77 23.93Q165.50 23.19 164.67 23.19Q163.65 23.19 163.40 23.82Q163.16 24.44 163.16 27.17L163.16 29.54L166.04 29.54ZM189.18 18.04L189.01 21.02Q190.09 19.24 191.64 18.35Q193.19 17.46 195.21 17.46Q197.75 17.46 199.37 18.65Q200.98 19.85 201.44 21.67Q201.90 23.49 201.90 27.73L201.90 50.44L192.04 50.44L192.04 28.00Q192.04 24.66 191.82 23.93Q191.60 23.19 190.60 23.19Q189.55 23.19 189.28 24.04Q189.01 24.88 189.01 28.54L189.01 50.44L179.15 50.44L179.15 18.04L189.18 18.04ZM225.44 28.39L216.70 28.39L216.70 26.64Q216.70 24.39 216.44 23.79Q216.19 23.19 215.16 23.19Q214.33 23.19 213.92 23.74Q213.50 24.29 213.50 25.39Q213.50 26.88 213.71 27.58Q213.92 28.27 214.95 29.10Q215.99 29.93 219.21 31.52Q223.51 33.62 224.85 35.47Q226.20 37.33 226.20 40.87Q226.20 44.82 225.17 46.84Q224.15 48.85 221.74 49.94Q219.34 51.03 215.94 51.03Q212.18 51.03 209.51 49.85Q206.84 48.68 205.83 46.68Q204.83 44.68 204.83 40.63L204.83 39.06L213.57 39.06L213.57 41.11Q213.57 43.73 213.90 44.51Q214.23 45.29 215.21 45.29Q216.26 45.29 216.67 44.76Q217.09 44.24 217.09 42.55Q217.09 40.23 216.55 39.65Q215.99 39.06 210.82 36.18Q206.47 33.74 205.52 31.75Q204.57 29.76 204.57 27.03Q204.57 23.14 205.59 21.30Q206.62 19.46 209.07 18.46Q211.52 17.46 214.77 17.46Q217.99 17.46 220.25 18.27Q222.51 19.09 223.72 20.43Q224.93 21.78 225.18 22.92Q225.44 24.07 225.44 26.51L225.44 28.39ZM238.99 10.91L238.99 16.06L228.83 16.06L228.83 10.91L238.99 10.91M238.99 18.04L238.99 50.44L228.83 50.44L228.83 18.04L238.99 18.04ZM252.93 13.72L252.93 18.82L255.59 18.82L255.59 23.95L252.93 23.95L252.93 41.28Q252.93 44.48 253.26 44.85Q253.59 45.21 256.01 45.21L256.01 50.44L252.03 50.44Q248.66 50.44 247.22 50.16Q245.78 49.88 244.68 48.86Q243.58 47.85 243.31 46.55Q243.04 45.24 243.04 40.41L243.04 23.95L240.92 23.95L240.92 18.82L243.04 18.82L243.04 13.72L252.93 13.72ZM279.42 18.04L276.59 41.48Q275.93 47.05 275.48 49.07Q275.02 51.10 273.97 52.42Q272.92 53.74 271.06 54.36Q269.19 54.98 265.09 54.98L259.11 54.98L259.11 49.80Q261.40 49.80 262.06 49.57Q262.72 49.34 262.72 48.54Q262.72 48.14 262.11 45.14L256.71 18.04L265.67 18.04L268.90 39.89L270.46 18.04L279.42 18.04ZM293.26 30.83L293.26 37.65L280.30 37.65L280.30 30.83L293.26 30.83ZM318.31 18.04L318.31 42.99Q318.31 48.05 318.08 49.52Q317.85 51.00 316.43 52.65Q315.01 54.30 312.49 55.16Q309.96 56.03 306.13 56.03Q301.42 56.03 298.56 54.43Q295.70 52.83 295.61 48.14L305.18 48.14Q305.18 50.29 306.74 50.29Q307.86 50.29 308.23 49.63Q308.59 48.97 308.59 46.88L308.59 44.43Q307.32 45.58 305.92 46.17Q304.52 46.75 302.98 46.75Q300.32 46.75 298.60 45.68Q296.88 44.60 296.24 42.86Q295.61 41.11 295.61 37.89L295.61 26.12Q295.61 21.51 297.27 19.48Q298.93 17.46 302.32 17.46Q304.17 17.46 305.70 18.21Q307.23 18.97 308.42 20.48L309.13 18.04L318.31 18.04M308.42 26.64Q308.42 24.41 308.17 23.80Q307.91 23.19 307.03 23.19Q306.18 23.19 305.82 23.89Q305.47 24.58 305.47 26.64L305.47 37.52Q305.47 39.70 305.74 40.34Q306.01 40.99 306.86 40.99Q307.84 40.99 308.13 40.21Q308.42 39.43 308.42 36.67L308.42 26.64ZM344.14 29.42L344.14 37.35Q344.14 41.72 343.70 43.76Q343.26 45.80 341.82 47.57Q340.38 49.34 338.12 50.18Q335.86 51.03 332.93 51.03Q329.66 51.03 327.39 50.31Q325.12 49.58 323.86 48.13Q322.61 46.68 322.07 44.62Q321.53 42.55 321.53 38.43L321.53 30.13Q321.53 25.61 322.51 23.07Q323.49 20.53 326.03 18.99Q328.56 17.46 332.52 17.46Q335.84 17.46 338.22 18.44Q340.60 19.43 341.89 21.02Q343.19 22.61 343.66 24.29Q344.14 25.98 344.14 29.42M334.28 26.98Q334.28 24.49 334.01 23.84Q333.74 23.19 332.86 23.19Q331.98 23.19 331.69 23.84Q331.40 24.49 331.40 26.98L331.40 41.60Q331.40 43.90 331.69 44.59Q331.98 45.29 332.84 45.29Q333.72 45.29 334.00 44.65Q334.28 44.02 334.28 41.92L334.28 26.98Z"/></g></g></svg>