<svg xmlns="http://www.w3.org/2000/svg" viewBox="0 10.905034107337714 82.71173046326189 39.53387338837117" data-asc="1.0087890625"><g fill="#000000"><g fill="#000000" transform="translate(0, 0)"><path d="M24.49 10.91L18.60 28.76L25.05 50.44L14.43 50.44L10.28 33.50L10.28 50.44L0 50.44L0 10.91L10.28 10.91L10.28 26.27L14.84 10.91L24.49 10.91ZM26.83 10.91L43.97 10.91L43.97 18.82L37.11 18.82L37.11 26.32L43.53 26.32L43.53 33.84L37.11 33.84L37.11 42.53L44.65 42.53L44.65 50.44L26.83 50.44L26.83 10.91ZM57.89 10.91L57.89 50.44L47.61 50.44L47.61 10.91L57.89 10.91ZM82.71 10.91L82.71 18.82L76.61 18.82L76.61 50.44L66.33 50.44L66.33 18.82L60.25 18.82L60.25 10.91L82.71 10.91Z"/></g></g></svg>