<svg xmlns="http://www.w3.org/2000/svg" viewBox="0 10.905034107337714 81.73841547349781 40.11755405104778" data-asc="1.0087890625"><g fill="#000000"><g fill="#000000" transform="translate(0, 0)"><path d="M0 10.91L10.35 10.91Q14.55 10.91 16.81 11.57Q19.07 12.23 20.20 13.48Q21.34 14.72 21.74 16.49Q22.14 18.26 22.14 21.97L22.14 25.42Q22.14 29.20 21.36 30.93Q20.58 32.67 18.49 33.59Q16.41 34.52 13.04 34.52L10.28 34.52L10.28 50.44L0 50.44L0 10.91M10.28 17.68L10.28 27.73Q10.72 27.76 11.04 27.76Q12.45 27.76 13.00 27.06Q13.55 26.37 13.55 24.17L13.55 20.92Q13.55 18.90 12.92 18.29Q12.28 17.68 10.28 17.68ZM47.14 34.81L34.38 34.81L34.38 41.82Q34.38 44.02 34.69 44.65Q35.01 45.29 35.91 45.29Q37.04 45.29 37.41 44.45Q37.79 43.60 37.79 41.19L37.79 36.91L47.14 36.91L47.14 39.31Q47.14 42.31 46.77 43.92Q46.39 45.53 45.00 47.36Q43.60 49.19 41.47 50.11Q39.33 51.03 36.11 51.03Q32.98 51.03 30.59 50.12Q28.20 49.22 26.87 47.64Q25.54 46.07 25.02 44.18Q24.51 42.29 24.51 38.67L24.51 29.22Q24.51 24.98 25.66 22.52Q26.81 20.07 29.42 18.76Q32.03 17.46 35.42 17.46Q39.58 17.46 42.27 19.03Q44.97 20.61 46.06 23.21Q47.14 25.81 47.14 30.52L47.14 34.81M37.26 29.54L37.26 27.17Q37.26 24.66 36.99 23.93Q36.72 23.19 35.89 23.19Q34.86 23.19 34.62 23.82Q34.38 24.44 34.38 27.17L34.38 29.54L37.26 29.54ZM60.23 18.04L59.84 22.29Q61.99 17.72 66.06 17.46L66.06 28.86Q63.35 28.86 62.08 29.59Q60.82 30.32 60.52 31.63Q60.23 32.93 60.23 37.65L60.23 50.44L50.37 50.44L50.37 18.04L60.23 18.04ZM81.74 10.91L81.74 15.92Q78.69 15.92 78.14 16.20Q77.59 16.48 77.59 17.80L77.59 18.82L81.74 18.82L81.74 23.95L79.39 23.95L79.39 50.44L69.53 50.44L69.53 23.95L67.50 23.95L67.50 18.82L69.53 18.82Q69.53 15.63 69.75 14.55Q69.97 13.48 70.84 12.63Q71.70 11.79 73.27 11.35Q74.83 10.91 78.13 10.91L81.74 10.91Z"/></g></g></svg>