<svg xmlns="http://www.w3.org/2000/svg" viewBox="0 10.905034107337714 197.50710245766027 40.11755405104778" data-asc="1.0087890625"><g fill="#000000"><g fill="#000000" transform="translate(0, 0)"><path d="M22.46 10.91L22.46 18.82L16.36 18.82L16.36 50.44L6.08 50.44L6.08 18.82L0 18.82L0 10.91L22.46 10.91ZM47.09 18.04L47.09 50.44L37.06 50.44L37.23 47.75Q36.21 49.39 34.70 50.21Q33.20 51.03 31.25 51.03Q29.03 51.03 27.56 50.24Q26.10 49.46 25.40 48.17Q24.71 46.88 24.54 45.47Q24.37 44.07 24.37 39.89L24.37 18.04L34.23 18.04L34.23 40.09Q34.23 43.87 34.46 44.58Q34.69 45.29 35.72 45.29Q36.82 45.29 37.02 44.56Q37.23 43.82 37.23 39.84L37.23 18.04L47.09 18.04ZM60.50 18.04L60.11 22.29Q62.26 17.72 66.33 17.46L66.33 28.86Q63.62 28.86 62.35 29.59Q61.08 30.32 60.79 31.63Q60.50 32.93 60.50 37.65L60.50 50.44L50.63 50.44L50.63 18.04L60.50 18.04ZM78.39 10.91L78.39 20.26Q79.61 18.85 81.12 18.15Q82.62 17.46 84.38 17.46Q86.40 17.46 87.89 18.09Q89.38 18.73 90.16 19.87Q90.94 21.02 91.10 22.12Q91.26 23.22 91.26 26.81L91.26 41.41Q91.26 44.97 90.78 46.72Q90.31 48.46 88.55 49.74Q86.79 51.03 84.38 51.03Q82.64 51.03 81.14 50.27Q79.64 49.51 78.39 48.00L77.76 50.44L68.53 50.44L68.53 10.91L78.39 10.91M81.40 27.25Q81.40 24.73 81.08 23.96Q80.76 23.19 79.83 23.19Q78.93 23.19 78.66 23.86Q78.39 24.54 78.39 27.25L78.39 41.21Q78.39 43.82 78.70 44.56Q79.00 45.29 79.91 45.29Q80.83 45.29 81.12 44.53Q81.40 43.77 81.40 40.89L81.40 27.25ZM116.82 29.42L116.82 37.35Q116.82 41.72 116.38 43.76Q115.94 45.80 114.50 47.57Q113.06 49.34 110.80 50.18Q108.54 51.03 105.62 51.03Q102.34 51.03 100.07 50.31Q97.80 49.58 96.55 48.13Q95.29 46.68 94.75 44.62Q94.21 42.55 94.21 38.43L94.21 30.13Q94.21 25.61 95.19 23.07Q96.17 20.53 98.71 18.99Q101.25 17.46 105.20 17.46Q108.52 17.46 110.90 18.44Q113.28 19.43 114.58 21.02Q115.87 22.61 116.35 24.29Q116.82 25.98 116.82 29.42M106.96 26.98Q106.96 24.49 106.69 23.84Q106.42 23.19 105.54 23.19Q104.66 23.19 104.37 23.84Q104.08 24.49 104.08 26.98L104.08 41.60Q104.08 43.90 104.37 44.59Q104.66 45.29 105.52 45.29Q106.40 45.29 106.68 44.65Q106.96 44.02 106.96 41.92L106.96 26.98ZM140.21 28.39L131.47 28.39L131.47 26.64Q131.47 24.39 131.21 23.79Q130.96 23.19 129.93 23.19Q129.10 23.19 128.69 23.74Q128.27 24.29 128.27 25.39Q128.27 26.88 128.48 27.58Q128.69 28.27 129.72 29.10Q130.76 29.93 133.98 31.52Q138.28 33.62 139.62 35.47Q140.97 37.33 140.97 40.87Q140.97 44.82 139.94 46.84Q138.92 48.85 136.51 49.94Q134.11 51.03 130.71 51.03Q126.95 51.03 124.28 49.85Q121.61 48.68 120.61 46.68Q119.60 44.68 119.60 40.63L119.60 39.06L128.34 39.06L128.34 41.11Q128.34 43.73 128.67 44.51Q129.00 45.29 129.98 45.29Q131.03 45.29 131.45 44.76Q131.86 44.24 131.86 42.55Q131.86 40.23 131.32 39.65Q130.76 39.06 125.59 36.18Q121.24 33.74 120.29 31.75Q119.34 29.76 119.34 27.03Q119.34 23.14 120.36 21.30Q121.39 19.46 123.84 18.46Q126.29 17.46 129.54 17.46Q132.76 17.46 135.02 18.27Q137.28 19.09 138.49 20.43Q139.70 21.78 139.95 22.92Q140.21 24.07 140.21 26.51L140.21 28.39ZM154.00 13.72L154.00 18.82L156.67 18.82L156.67 23.95L154.00 23.95L154.00 41.28Q154.00 44.48 154.33 44.85Q154.66 45.21 157.08 45.21L157.08 50.44L153.10 50.44Q149.73 50.44 148.29 50.16Q146.85 49.88 145.75 48.86Q144.65 47.85 144.38 46.55Q144.12 45.24 144.12 40.41L144.12 23.95L141.99 23.95L141.99 18.82L144.12 18.82L144.12 13.72L154.00 13.72ZM167.65 30.59L158.40 30.59L158.40 28.42Q158.40 24.66 159.27 22.62Q160.13 20.58 162.74 19.02Q165.36 17.46 169.53 17.46Q174.54 17.46 177.08 19.23Q179.61 21.00 180.13 23.57Q180.64 26.15 180.64 34.18L180.64 50.44L171.04 50.44L171.04 47.56Q170.14 49.29 168.71 50.16Q167.29 51.03 165.31 51.03Q162.72 51.03 160.56 49.57Q158.40 48.12 158.40 43.21L158.40 40.55Q158.40 36.91 159.55 35.60Q160.69 34.28 165.23 32.52Q170.09 30.62 170.43 29.96Q170.78 29.30 170.78 27.27Q170.78 24.73 170.40 23.96Q170.02 23.19 169.14 23.19Q168.14 23.19 167.90 23.84Q167.65 24.49 167.65 27.20L167.65 30.59M170.78 35.03Q168.41 36.77 168.03 37.94Q167.65 39.11 167.65 41.31Q167.65 43.82 167.98 44.56Q168.31 45.29 169.29 45.29Q170.21 45.29 170.50 44.71Q170.78 44.14 170.78 41.70L170.78 35.03ZM194.43 13.72L194.43 18.82L197.09 18.82L197.09 23.95L194.43 23.95L194.43 41.28Q194.43 44.48 194.76 44.85Q195.09 45.21 197.51 45.21L197.51 50.44L193.53 50.44Q190.16 50.44 188.72 50.16Q187.28 49.88 186.18 48.86Q185.08 47.85 184.81 46.55Q184.55 45.24 184.55 40.41L184.55 23.95L182.42 23.95L182.42 18.82L184.55 18.82L184.55 13.72L194.43 13.72Z"/></g></g></svg>