<?xml version="1.0" encoding="UTF-8" standalone="no"?>
<!-- Generator: Adobe Illustrator 19.2.0, SVG Export Plug-In . SVG Version: 6.00 Build 0)  -->

<svg
   version="1.1"
   x="0px"
   y="0px"
   width="370px"
   height="344px"
   viewBox="0 0 370 344"
   enable-background="new 0 0 370 344"
   xml:space="preserve"
   id="svg15"
   sodipodi:docname="Dt_Logo_Color-Vertical.svg"
   inkscape:version="1.3.2 (091e20e, 2023-11-25)"
   xmlns:inkscape="http://www.inkscape.org/namespaces/inkscape"
   xmlns:sodipodi="http://sodipodi.sourceforge.net/DTD/sodipodi-0.dtd"
   xmlns="http://www.w3.org/2000/svg"
   xmlns:svg="http://www.w3.org/2000/svg"><defs
   id="defs15">
	

		
		
	</defs><sodipodi:namedview
   id="namedview15"
   pagecolor="#ffffff"
   bordercolor="#999999"
   borderopacity="1"
   inkscape:showpageshadow="0"
   inkscape:pageopacity="0"
   inkscape:pagecheckerboard="0"
   inkscape:deskcolor="#d1d1d1"
   showgrid="false"
   inkscape:zoom="2.1189189"
   inkscape:cx="184.76403"
   inkscape:cy="172.02168"
   inkscape:window-width="2560"
   inkscape:window-height="1306"
   inkscape:window-x="0"
   inkscape:window-y="25"
   inkscape:window-maximized="1"
   inkscape:current-layer="svg15" />
<g
   id="Background">
</g>
<g
   id="Vertical">
</g>
<g
   id="Horizontal">
</g>
<g
   id="Dynatrace_Color">
</g>
<g
   id="g14"
   transform="translate(-0.18829183,63.526943)">
			<path
   fill="#1496ff"
   d="m 151,19.8 c -2.7,14.5 -6.2,35.9 -8,57.6 -3.2,38.4 -1.2,64 -1.2,64 l -53.9,51.3 c 0,0 -4.2,-28.8 -6.3,-61.2 -1.3,-20 -1.7,-37.7 -1.8,-48.4 0,-0.6 0.3,-1.2 0.3,-1.8 0,-0.7 0.9,-7.9 7.9,-14.5 7.7,-7.3 63.8,-51.3 63,-47 z"
   id="path9" />
			<path
   fill="#1284ea"
   d="m 151,19.8 c -2.7,14.5 -6.2,35.9 -8,57.6 0,0 -59.7,-7.1 -63.2,7.3 0,-0.7 1,-9.5 8,-16.2 7.7,-7.4 64,-53 63.2,-48.7 z"
   id="path10" />
			<path
   fill="#b4dc00"
   d="m 79.8,81.3 c 0,1 0,2.1 0,3.3 0.6,-2.6 1.6,-4.5 3.8,-7.2 4.4,-5.6 11.6,-7.1 14.5,-7.5 14.6,-1.9 36.2,-4.3 57.9,-4.9 38.5,-1.2 63.9,2 63.9,2 l 53.9,-51.3 c 0,0 -28.3,-5.4 -60.6,-9.2 C 192.1,4 173.5,2.7 163.1,2.1 c -0.7,0 -8.2,-1 -15.2,5.7 -7.7,7.3 -46.3,43.9 -61.8,58.7 -6.8,6.6 -6.3,14.1 -6.3,14.8 z"
   id="path11" />
			<path
   fill="#6f2da8"
   d="m 271.9,146.8 c -14.6,2 -36.1,4.4 -57.9,5.1 -38.5,1.3 -64,-1.9 -64,-1.9 l -54,51.3 c 0,0 28.6,5.6 60.8,9.3 19.7,2.3 37.3,3.5 47.9,4.1 0.7,0 2,-0.6 2.7,-0.6 0.7,0 8.2,-1.3 15.2,-8 7.8,-7.3 53.6,-59.8 49.3,-59.3 z"
   id="path12" />
			<path
   fill="#591f91"
   d="m 271.9,146.8 c -14.6,2 -36.1,4.4 -57.9,5.1 0,0 4.2,60 -10.4,62.7 0.7,0 10.6,-0.5 17.6,-7.1 7.7,-7.3 55,-61.2 50.7,-60.7 z"
   id="path13" />
			<path
   fill="#73be28"
   d="m 206.9,214.9 c -1,-0.1 -2.1,-0.1 -3.3,-0.2 2.7,-0.5 4.5,-1.4 7.4,-3.4 5.8,-4.2 7.7,-11.2 8.2,-14.1 2.6,-14.5 6,-35.9 7.8,-57.6 3.1,-38.4 1.1,-63.9 1.1,-63.9 L 282,24.4 c 0,0 4,28.5 6.2,60.9 1.4,21.2 1.8,39.8 1.9,50.2 0,0.7 0.6,8.2 -6.4,14.9 -7.7,7.3 -46.2,44.1 -61.7,58.9 -6.9,6.5 -14.4,5.6 -15.1,5.6 z"
   id="path14" />
		</g>
</svg>
